<svg height="512pt" viewBox="0 -11 512 512" width="512pt" xmlns="http://www.w3.org/2000/svg"><path d="m404.859375 59.34375c-42.910156-36.980469-98.769531-59.34375-159.859375-59.34375s-116.949219 22.363281-159.859375 59.34375zm0 0" fill="#fecd0a"/><path d="m389.574219 442.78125h-289.148438c40.523438 29.679688 90.496094 47.21875 144.574219 47.21875s104.050781-17.539062 144.574219-47.21875zm0 0" fill="#2b3894"/><path d="m257.664062 489.664062c49.207032-2.507812 94.570313-19.535156 131.910157-46.882812h-133.808594c30.238281 0 31.703125 44.863281 1.898437 46.882812zm0 0" fill="#232e7a"/><path d="m444.75 57.34375h-357.242188c-53.496093 44.941406-87.507812 112.320312-87.507812 187.65625 0 61.492188 22.660156 117.691406 60.078125 160.710938h267.035156v-230.535157c0-12.542969 10.203125-22.75 22.75-22.75h118.753907v-71.21875c0-13.125-10.738282-23.863281-23.867188-23.863281zm0 0" fill="#2b3894"/><path d="m99.160156 387.597656v-311.160156c0-9.054688 6.148438-16.730469 14.476563-19.09375h-26.128907c-53.496093 44.941406-87.507812 112.320312-87.507812 187.65625 0 61.492188 22.660156 117.691406 60.078125 160.710938h50.851563c-6.917969-3.113282-11.769532-10.070313-11.769532-18.113282zm0 0" fill="#232e7a"/><path d="m0 245c0 61.492188 22.660156 117.691406 60.078125 160.710938h267.035156v-161.429688h-327.1054685c0 .242188-.0078125.480469-.0078125.71875zm0 0" fill="#e6f7fe"/><path d="m99.160156 386.597656v-142.316406h-99.1523435c0 .242188-.0078125.480469-.0078125.71875 0 61.492188 22.660156 117.691406 60.078125 160.710938h53.621094c-8.359375-2.34375-14.539063-10.035157-14.539063-19.113282zm0 0" fill="#d5f1fe"/><path d="m448.449219 126.378906h-417.851563c-19.488281 35.148438-30.597656 75.585938-30.597656 118.621094 0 .433594.015625.863281.015625 1.296875h327.097656v-71.121094c0-12.542969 10.203125-22.75 22.75-22.75h98.585938zm0 0" fill="#0080f4"/><path d="m99.160156 126.378906h-68.5625c-19.488281 35.148438-30.597656 75.585938-30.597656 118.621094 0 .433594.015625.863281.015625 1.296875h99.140625v-119.917969zm0 0" fill="#0063f2"/><path d="m103.777344 445.21875h223.335937v-41.523438c-85.761719 0-187.4375 0-268.757812 0 13.332031 15.660157 28.589843 29.628907 45.421875 41.523438zm0 0" fill="#aeaeff"/><path d="m175.132812 434.835938c0-6.089844 4.914063-11.027344 10.988282-11.078126v-20.066406c-44.609375 0-88.554688 0-127.765625 0 13.332031 15.664063 28.589843 29.632813 45.421875 41.527344h78.585937c-4.21875-1.566406-7.230469-5.617188-7.230469-10.382812zm0 0" fill="#8181fc"/><path d="m444.386719 77.507812h-378.171875c-14.304688 15.265626-26.6875 32.351563-36.738282 50.886719h418.972657v-46.824219c0-2.242187-1.816407-4.0625-4.0625-4.0625zm0 0" fill="#615df9"/><path d="m99.160156 77.507812h-32.945312c-14.304688 15.265626-26.6875 32.351563-36.738282 50.886719h69.679688v-50.886719zm0 0" fill="#3d4ec6"/><path d="m66.746094 112.796875c-5.640625 0-10.082032-4.609375-10.082032-10.082031 0-6.421875 5.90625-11.121094 12.050782-9.882813 4.894531.996094 8.117187 5.265625 8.117187 9.882813-.003906 5.464844-4.425781 10.082031-10.085937 10.082031zm0 0" fill="#39df74"/><path d="m416.699219 110.75h-53.105469c-4.179688 0-7.566406-3.386719-7.566406-7.5625s3.386718-7.5625 7.566406-7.5625h53.105469c4.179687 0 7.566406 3.386719 7.566406 7.5625-.003906 4.175781-3.386719 7.5625-7.566406 7.5625zm0 0" fill="#aeaeff"/><path d="m325.601562 110.75h-218.878906c-4.179687 0-7.566406-3.386719-7.566406-7.5625s3.386719-7.5625 7.566406-7.5625h218.878906c4.175782 0 7.5625 3.386719 7.5625 7.5625s-3.386718 7.5625-7.5625 7.5625zm0 0" fill="#aeaeff"/><path d="m276.492188 103.1875c0-4.175781 3.386718-7.5625 7.5625-7.5625h-177.332032c-4.179687 0-7.566406 3.386719-7.566406 7.5625 0 4.179688 3.386719 7.566406 7.566406 7.566406h177.332032c-4.175782-.003906-7.5625-3.390625-7.5625-7.566406zm0 0" fill="#8181fc"/><path d="m16.535156 156.375h431.914063v-27.980469h-418.972657c-4.878906 9-9.203124 18.34375-12.941406 27.980469zm0 0" fill="#d5f1fe"/><path d="m99.160156 128.394531h-69.683594c-4.878906 9-9.203124 18.34375-12.941406 27.980469h82.625zm0 0" fill="#11dfef"/><path d="m0 245c0 14.351562 1.246094 28.410156 3.613281 42.085938h323.5v-81.574219h-323.929687c-2.082032 12.855469-3.183594 26.042969-3.183594 39.488281zm0 0" fill="#27a3ff"/><path d="m99.160156 205.511719h-95.976562c-2.082032 12.855469-3.183594 26.042969-3.183594 39.488281 0 14.351562 1.246094 28.410156 3.613281 42.085938h95.546875zm0 0" fill="#0080f4"/><path d="m35.992188 188.390625c4.175781 0 7.5625-3.382813 7.5625-7.5625 0-4.175781-3.386719-7.5625-7.5625-7.5625h-25.3125c-1.519532 4.976563-2.886719 10.019531-4.09375 15.125zm0 0" fill="#f948b4"/><g fill="#11dfef"><path d="m192.144531 309.230469h-183.621093c1.386718 5.109375 2.921874 10.15625 4.621093 15.125h179c4.179688 0 7.566407-3.386719 7.566407-7.5625 0-4.179688-3.386719-7.5625-7.566407-7.5625zm0 0"/><path d="m192.144531 338.410156h-173.691406c2.117187 5.128906 4.40625 10.175782 6.859375 15.125h166.832031c4.179688 0 7.566407-3.386718 7.566407-7.5625 0-4.175781-3.386719-7.5625-7.566407-7.5625zm0 0"/><path d="m192.144531 367.589844h-159.308593c2.992187 5.164062 6.167968 10.207031 9.515624 15.125h149.792969c4.179688 0 7.566407-3.386719 7.566407-7.5625 0-4.175782-3.386719-7.5625-7.566407-7.5625zm0 0"/></g><path d="m91.960938 316.792969c0-4.175781 3.386718-7.5625 7.5625-7.5625h-91c1.386718 5.109375 2.921874 10.15625 4.621093 15.125h86.378907c-4.175782 0-7.5625-3.386719-7.5625-7.5625zm0 0" fill="#0ac6e5"/><path d="m91.960938 345.972656c0-4.175781 3.386718-7.5625 7.5625-7.5625h-81.070313c2.117187 5.128906 4.40625 10.175782 6.859375 15.125h74.210938c-4.175782 0-7.5625-3.386718-7.5625-7.5625zm0 0" fill="#0ac6e5"/><path d="m91.960938 375.152344c0-4.175782 3.386718-7.5625 7.5625-7.5625h-66.6875c2.992187 5.164062 6.167968 10.207031 9.515624 15.125h57.171876c-4.175782 0-7.5625-3.386719-7.5625-7.5625zm0 0" fill="#0ac6e5"/><path d="m329.128906 324.355469h-105.273437c-4.179688 0-7.566407-3.386719-7.566407-7.5625 0-4.179688 3.386719-7.5625 7.566407-7.5625h105.273437c4.175782 0 7.5625 3.382812 7.5625 7.5625 0 4.175781-3.386718 7.5625-7.5625 7.5625zm0 0" fill="#11dfef"/><path d="m329.128906 353.535156h-105.273437c-4.179688 0-7.566407-3.386718-7.566407-7.5625 0-4.175781 3.386719-7.5625 7.566407-7.5625h105.273437c4.175782 0 7.5625 3.386719 7.5625 7.5625 0 4.175782-3.386718 7.5625-7.5625 7.5625zm0 0" fill="#11dfef"/><path d="m329.128906 382.714844h-105.273437c-4.179688 0-7.566407-3.386719-7.566407-7.5625 0-4.175782 3.386719-7.5625 7.566407-7.5625h105.273437c4.175782 0 7.5625 3.386718 7.5625 7.5625 0 4.175781-3.386718 7.5625-7.5625 7.5625zm0 0" fill="#11dfef"/><path d="m114.230469 403.691406v8.664063c0 6.65625 5.445312 12.097656 12.097656 12.097656h163.34375c6.652344 0 12.097656-5.441406 12.097656-12.097656v-8.664063c-58.335937 0-125.253906 0-187.539062 0zm0 0" fill="#8181fc"/><path d="m171.058594 412.355469v-8.660157c-19.121094 0-38.183594 0-56.828125 0v8.660157c0 6.65625 5.445312 12.101562 12.097656 12.101562h56.828125c-6.652344 0-12.097656-5.445312-12.097656-12.101562zm0 0" fill="#615df9"/><path d="m487.738281 150.914062h-137.875c-13.378906 0-24.261719 10.882813-24.261719 24.261719v290.5625c0 13.378907 10.882813 24.261719 24.261719 24.261719h137.875c13.378907 0 24.261719-10.882812 24.261719-24.261719v-290.5625c0-13.378906-10.882812-24.261719-24.261719-24.261719zm0 0" fill="#3d4ec6"/><path d="m371.320312 483.148438c0-4.054688 3.09375-7.386719 7.050782-7.765626v-283.433593c0-8.546875-2.4375-16.832031-6.46875-24.371094-.894532-1.675781-1.40625-3.59375-1.40625-5.632813 0-4.949218 3-9.199218 7.277344-11.03125h-27.910157c-13.398437 0-24.261719 10.863282-24.261719 24.261719v290.5625c0 13.398438 10.863282 24.261719 24.261719 24.261719h25.527344c-2.425781-1.324219-4.070313-3.894531-4.070313-6.851562zm0 0" fill="#3342ae"/><path d="m497.953125 227.492188v-52.316407c0-5.640625-4.574219-10.214843-10.214844-10.214843h-20.492187c-1.933594 0-3.5 1.566406-3.5 3.496093 0 4.636719-3.792969 8.429688-8.425782 8.429688h-73.039062c-4.636719 0-8.429688-3.792969-8.429688-8.429688 0-1.929687-1.566406-3.496093-3.496093-3.496093h-20.492188c-5.644531 0-10.21875 4.574218-10.21875 10.214843v52.316407zm0 0" fill="#0080f4"/><path d="m373.6875 175.175781c0-1.574219.15625-3.117187.445312-4.609375-.175781-.675781-.28125-1.378906-.28125-2.109375 0-1.929687-1.566406-3.496093-3.496093-3.496093h-20.492188c-5.640625 0-10.214843 4.574218-10.214843 10.214843v52.316407h34.039062zm0 0" fill="#0063f2"/><path d="m339.644531 322.472656v143.265625c0 5.640625 4.574219 10.214844 10.21875 10.214844h137.875c5.640625 0 10.214844-4.574219 10.214844-10.214844v-143.265625zm0 0" fill="#e6f7fe"/><path d="m373.6875 465.738281v-143.265625h-34.042969v143.265625c0 5.640625 4.574219 10.214844 10.21875 10.214844h26.085938c-1.445313-3.105469-2.261719-6.566406-2.261719-10.214844zm0 0" fill="#d5f1fe"/><path d="m339.644531 225.476562h158.308594v100.859376h-158.308594zm0 0" fill="#27a3ff"/><path d="m339.644531 225.476562h34.042969v100.859376h-34.042969zm0 0" fill="#0080f4"/><path d="m381.742188 209.0625h-16.109376c-4.175781 0-7.5625-3.386719-7.5625-7.5625s3.386719-7.5625 7.5625-7.5625h16.109376c4.175781 0 7.5625 3.386719 7.5625 7.5625s-3.386719 7.5625-7.5625 7.5625zm0 0" fill="#f948b4"/><path d="m471.4375 365.296875h-105.277344c-4.175781 0-7.5625-3.386719-7.5625-7.566406 0-4.175781 3.386719-7.5625 7.5625-7.5625h105.277344c4.175781 0 7.5625 3.386719 7.5625 7.5625 0 4.179687-3.386719 7.566406-7.5625 7.566406zm0 0" fill="#11dfef"/><path d="m471.4375 394.472656h-105.277344c-4.175781 0-7.5625-3.382812-7.5625-7.5625 0-4.175781 3.386719-7.5625 7.5625-7.5625h105.277344c4.175781 0 7.5625 3.386719 7.5625 7.5625 0 4.179688-3.386719 7.5625-7.5625 7.5625zm0 0" fill="#11dfef"/><path d="m471.4375 423.652344h-105.277344c-4.175781 0-7.5625-3.382813-7.5625-7.5625 0-4.175782 3.386719-7.5625 7.5625-7.5625h105.277344c4.175781 0 7.5625 3.386718 7.5625 7.5625 0 4.179687-3.386719 7.5625-7.5625 7.5625zm0 0" fill="#11dfef"/><path d="m401.65625 357.730469c0-4.175781 3.386719-7.5625 7.5625-7.5625h-43.058594c-4.175781 0-7.5625 3.386719-7.5625 7.5625 0 4.179687 3.386719 7.566406 7.5625 7.566406h43.058594c-4.175781 0-7.5625-3.386719-7.5625-7.566406zm0 0" fill="#0ac6e5"/><path d="m401.65625 386.910156c0-4.175781 3.386719-7.5625 7.5625-7.5625h-43.058594c-4.175781 0-7.5625 3.386719-7.5625 7.5625 0 4.179688 3.386719 7.5625 7.5625 7.5625h43.058594c-4.175781 0-7.5625-3.382812-7.5625-7.5625zm0 0" fill="#0ac6e5"/><path d="m401.65625 416.089844c0-4.175782 3.386719-7.5625 7.5625-7.5625h-43.058594c-4.175781 0-7.5625 3.386718-7.5625 7.5625 0 4.179687 3.386719 7.5625 7.5625 7.5625h43.058594c-4.175781 0-7.5625-3.382813-7.5625-7.5625zm0 0" fill="#0ac6e5"/><path d="m394.09375 455.605469c-4.722656 0-8.363281-4.351563-7.410156-9.046875.78125-4.050782 4.816406-6.769532 8.894531-5.929688 3.410156.652344 6.078125 3.714844 6.078125 7.410156 0 4.117188-3.328125 7.566407-7.5625 7.566407zm0 0" fill="#11dfef"/><path d="m418.800781 455.605469c-4.089843 0-7.566406-3.316407-7.566406-7.566407 0-4.777343 4.417969-8.363281 9.046875-7.410156 3.410156.652344 6.078125 3.714844 6.078125 7.410156.003906 4.117188-3.328125 7.566407-7.558594 7.566407zm0 0" fill="#d5f1fe"/><path d="m443.503906 455.605469c-4.089844 0-7.5625-3.316407-7.5625-7.566407 0-4.777343 4.417969-8.363281 9.042969-7.410156 3.410156.652344 6.082031 3.714844 6.082031 7.410156 0 4.117188-3.328125 7.566407-7.5625 7.566407zm0 0" fill="#d5f1fe"/><path d="m66.746094 156.375c0-15.453125-12.527344-27.980469-27.980469-27.980469h-9.289063c-4.878906 9-9.203124 18.34375-12.945312 27.980469zm0 0" fill="#0ac6e5"/></svg>