<svg height="512pt" viewBox="-11 0 512 512" width="512pt" xmlns="http://www.w3.org/2000/svg"><path d="m464.03125 376.859375c16.605469-33.042969 25.96875-70.355469 25.96875-109.859375 0-135.308594-109.691406-245-245-245s-245 109.691406-245 245c0 39.503906 9.363281 76.816406 25.96875 109.859375zm0 0" fill="#fecd0a"/><path d="m24.964844 71.292969h440.070312v61.5h-440.070312zm0 0" fill="#e6f7fe"/><path d="m24.964844 71.292969h66.835937v61.5h-66.835937zm0 0" fill="#d5f1fe"/><path d="m465.035156 283.457031h-440.070312v91.378907c39.886718 81.238281 123.425781 137.164062 220.035156 137.164062s180.148438-55.925781 220.035156-137.164062zm0 0" fill="#e6f7fe"/><path d="m24.964844 283.457031v91.378907c15.949218 32.484374 38.882812 60.914062 66.835937 83.347656v-174.726563zm0 0" fill="#d5f1fe"/><path d="m24.964844 47.027344h440.070312v26.265625h-440.070312zm0 0" fill="#d5f1fe"/><path d="m141.921875 73.292969h-116.957031v-26.265625h92.210937c13.667969 0 24.746094 11.757812 24.746094 26.265625zm0 0" fill="#11dfef"/><path d="m24.964844 47.027344h66.835937v26.265625h-66.835937zm0 0" fill="#0ac6e5"/><path d="m463.691406 0c-8.492187 0-425.023437 0-437.382812 0-.742188 0-1.34375.601562-1.34375 1.34375v47.207031h440.070312v-47.207031c0-.742188-.601562-1.34375-1.34375-1.34375zm0 0" fill="#615df9"/><path d="m99.03125 0c-41.113281 0-69.625 0-72.722656 0-.742188 0-1.34375.601562-1.34375 1.34375v47.207031h66.835937v-37.550781c0-4.90625 2.988281-9.144531 7.230469-11zm0 0" fill="#3342ae"/><path d="m61.300781 33.808594c-5.507812 0-10-4.488282-10-10 0-4.769532 3.351563-8.859375 8.050781-9.8125 6.117188-1.230469 11.949219 3.472656 11.949219 9.8125 0 5.554687-4.542969 10-10 10zm0 0" fill="#f948b4"/><path d="m91.800781 33.808594c-5.429687 0-10-4.421875-10-10 0-6.324219 5.816407-11.046875 11.949219-9.8125 4.84375.984375 8.050781 5.214844 8.050781 9.8125 0 5.507812-4.488281 10-10 10zm0 0" fill="#fecd0a"/><path d="m122.300781 33.808594c-5.429687 0-10-4.421875-10-10 0-6.355469 5.84375-11.042969 11.949219-9.8125 4.84375.984375 8.050781 5.21875 8.050781 9.8125 0 5.507812-4.488281 10-10 10zm0 0" fill="#39df74"/><path d="m436.140625 31.773438h-52.667969c-4.144531 0-7.5-3.359376-7.5-7.5 0-4.140626 3.355469-7.5 7.5-7.5h52.667969c4.140625 0 7.5 3.359374 7.5 7.5 0 4.140624-3.359375 7.5-7.5 7.5zm0 0" fill="#aeaeff"/><path d="m345.792969 31.773438h-183.847657c-4.140624 0-7.5-3.359376-7.5-7.5 0-4.140626 3.359376-7.5 7.5-7.5h183.847657c4.144531 0 7.5 3.359374 7.5 7.5 0 4.140624-3.355469 7.5-7.5 7.5zm0 0" fill="#aeaeff"/><path d="m299.042969 24.273438c0-4.140626 3.359375-7.5 7.5-7.5h-144.597657c-4.140624 0-7.5 3.359374-7.5 7.5 0 4.144531 3.359376 7.5 7.5 7.5h144.597657c-4.140625 0-7.5-3.355469-7.5-7.5zm0 0" fill="#8181fc"/><path d="m103.050781 106.472656h-30.5c-4.140625 0-7.5-3.359375-7.5-7.5 0-4.144531 3.359375-7.5 7.5-7.5h30.5c4.140625 0 7.5 3.355469 7.5 7.5 0 4.140625-3.359375 7.5-7.5 7.5zm0 0" fill="#615df9"/><path d="m418.804688 106.472656h-16c-4.144532 0-7.5-3.359375-7.5-7.5 0-4.144531 3.355468-7.5 7.5-7.5h16c4.140624 0 7.5 3.355469 7.5 7.5 0 4.140625-3.359376 7.5-7.5 7.5zm0 0" fill="#d5f1fe"/><path d="m373.394531 106.472656h-16c-4.140625 0-7.5-3.359375-7.5-7.5 0-4.144531 3.359375-7.5 7.5-7.5h16c4.140625 0 7.5 3.355469 7.5 7.5 0 4.140625-3.359375 7.5-7.5 7.5zm0 0" fill="#d5f1fe"/><path d="m327.984375 106.472656h-16c-4.140625 0-7.5-3.359375-7.5-7.5 0-4.144531 3.359375-7.5 7.5-7.5h16c4.144531 0 7.5 3.355469 7.5 7.5 0 4.140625-3.355469 7.5-7.5 7.5zm0 0" fill="#d5f1fe"/><path d="m282.578125 106.472656h-16c-4.140625 0-7.5-3.359375-7.5-7.5 0-4.144531 3.359375-7.5 7.5-7.5h16c4.140625 0 7.5 3.355469 7.5 7.5 0 4.140625-3.359375 7.5-7.5 7.5zm0 0" fill="#d5f1fe"/><path d="m24.964844 129.636719h440.070312v156.976562h-440.070312zm0 0" fill="#615df9"/><path d="m24.964844 129.636719h66.835937v156.976562h-66.835937zm0 0" fill="#3342ae"/><g fill="#11dfef"><path d="m246.183594 353.019531h-42.332032c-4.140624 0-7.5-3.359375-7.5-7.5 0-4.144531 3.359376-7.5 7.5-7.5h42.332032c4.140625 0 7.5 3.355469 7.5 7.5 0 4.140625-3.359375 7.5-7.5 7.5zm0 0"/><path d="m286.148438 381.78125h-82.296876c-4.140624 0-7.5-3.355469-7.5-7.5s3.359376-7.5 7.5-7.5h82.296876c4.140624 0 7.5 3.355469 7.5 7.5s-3.359376 7.5-7.5 7.5zm0 0"/><path d="m367.46875 353.019531h-42.328125c-4.144531 0-7.5-3.359375-7.5-7.5 0-4.144531 3.355469-7.5 7.5-7.5h42.328125c4.144531 0 7.5 3.355469 7.5 7.5 0 4.140625-3.355469 7.5-7.5 7.5zm0 0"/><path d="m407.433594 381.78125h-82.292969c-4.144531 0-7.5-3.355469-7.5-7.5s3.355469-7.5 7.5-7.5h82.292969c4.144531 0 7.5 3.355469 7.5 7.5s-3.355469 7.5-7.5 7.5zm0 0"/><path d="m124.894531 353.019531h-42.328125c-4.144531 0-7.5-3.359375-7.5-7.5 0-4.144531 3.355469-7.5 7.5-7.5h42.328125c4.144531 0 7.5 3.355469 7.5 7.5 0 4.140625-3.355469 7.5-7.5 7.5zm0 0"/><path d="m164.859375 381.78125h-82.292969c-4.144531 0-7.5-3.355469-7.5-7.5s3.355469-7.5 7.5-7.5h82.292969c4.144531 0 7.5 3.355469 7.5 7.5s-3.355469 7.5-7.5 7.5zm0 0"/></g><path d="m217.691406 166.140625c55.601563 91.800781 124.53125 76.523437 201.582032 120.472656h45.761718v-156.980469h-274.292968c9.492187 10.566407 18.558593 22.65625 26.949218 36.507813zm0 0" fill="#8181fc"/><path d="m465.035156 236.832031v-107.195312h-200.269531c31.414063 118.316406 130.6875 45.027343 200.269531 107.195312zm0 0" fill="#aeaeff"/><path d="m152.859375 312.613281h-58.292969c-6.601562 0-12-5.398437-12-12v-29c0-6.597656 5.398438-12 12-12h58.292969c6.601563 0 12 5.402344 12 12v29c0 6.601563-5.398437 12-12 12zm0 0" fill="#aeaeff"/><path d="m274.148438 312.613281h-58.296876c-6.597656 0-12-5.398437-12-12v-29c0-6.597656 5.402344-12 12-12h58.296876c6.597656 0 12 5.402344 12 12v29c0 6.601563-5.402344 12-12 12zm0 0" fill="#aeaeff"/><path d="m395.433594 312.613281h-58.292969c-6.601563 0-12-5.398437-12-12v-29c0-6.597656 5.398437-12 12-12h58.292969c6.601562 0 12 5.402344 12 12v29c0 6.601563-5.398438 12-12 12zm0 0" fill="#aeaeff"/><path d="m123.714844 300.613281v-29c0-6.597656 5.398437-12 12-12h-41.148438c-6.601562 0-12 5.402344-12 12v29c0 6.601563 5.398438 12 12 12h41.148438c-6.601563 0-12-5.398437-12-12zm0 0" fill="#8181fc"/><path d="m245 300.613281v-29c0-6.597656 5.398438-12 12-12h-41.148438c-6.597656 0-12 5.402344-12 12v29c0 6.601563 5.402344 12 12 12h41.148438c-6.601562 0-12-5.398437-12-12zm0 0" fill="#8181fc"/><path d="m366.285156 300.613281v-29c0-6.597656 5.402344-12 12-12h-41.144531c-6.601563 0-12 5.402344-12 12v29c0 6.601563 5.398437 12 12 12h41.144531c-6.597656 0-12-5.398437-12-12zm0 0" fill="#8181fc"/><path d="m286.148438 410.546875h-82.296876c-4.140624 0-7.5-3.359375-7.5-7.5 0-4.144531 3.359376-7.5 7.5-7.5h82.296876c4.140624 0 7.5 3.355469 7.5 7.5 0 4.140625-3.359376 7.5-7.5 7.5zm0 0" fill="#11dfef"/><path d="m407.433594 410.546875h-82.292969c-4.144531 0-7.5-3.359375-7.5-7.5 0-4.144531 3.355469-7.5 7.5-7.5h82.292969c4.144531 0 7.5 3.355469 7.5 7.5 0 4.140625-3.355469 7.5-7.5 7.5zm0 0" fill="#11dfef"/><path d="m164.859375 410.546875h-82.292969c-4.144531 0-7.5-3.359375-7.5-7.5 0-4.144531 3.355469-7.5 7.5-7.5h82.292969c4.144531 0 7.5 3.355469 7.5 7.5 0 4.140625-3.355469 7.5-7.5 7.5zm0 0" fill="#11dfef"/><path d="m164.859375 439.3125h-8.808594c-4.140625 0-7.5-3.359375-7.5-7.5 0-4.144531 3.359375-7.5 7.5-7.5h8.808594c4.144531 0 7.5 3.355469 7.5 7.5 0 4.140625-3.355469 7.5-7.5 7.5zm0 0" fill="#d5f1fe"/><path d="m124.894531 439.3125h-42.328125c-4.144531 0-7.5-3.359375-7.5-7.5 0-4.144531 3.355469-7.5 7.5-7.5h42.332032c4.140624 0 7.5 3.355469 7.5 7.5 0 4.140625-3.359376 7.5-7.503907 7.5zm0 0" fill="#11dfef"/><path d="m286.148438 439.3125h-8.808594c-4.144532 0-7.5-3.359375-7.5-7.5 0-4.144531 3.355468-7.5 7.5-7.5h8.808594c4.140624 0 7.5 3.355469 7.5 7.5 0 4.140625-3.359376 7.5-7.5 7.5zm0 0" fill="#d5f1fe"/><path d="m246.183594 439.3125h-42.332032c-4.140624 0-7.5-3.359375-7.5-7.5 0-4.144531 3.359376-7.5 7.5-7.5h42.332032c4.140625 0 7.5 3.355469 7.5 7.5 0 4.140625-3.359375 7.5-7.5 7.5zm0 0" fill="#11dfef"/><path d="m407.433594 439.3125h-8.808594c-4.140625 0-7.5-3.359375-7.5-7.5 0-4.144531 3.359375-7.5 7.5-7.5h8.808594c4.144531 0 7.5 3.355469 7.5 7.5 0 4.140625-3.355469 7.5-7.5 7.5zm0 0" fill="#d5f1fe"/><path d="m367.472656 439.3125h-42.332031c-4.144531 0-7.5-3.359375-7.5-7.5 0-4.144531 3.355469-7.5 7.5-7.5h42.332031c4.140625 0 7.5 3.355469 7.5 7.5 0 4.140625-3.359375 7.5-7.5 7.5zm0 0" fill="#11dfef"/></svg>