<svg height="511pt" viewBox="-10 0 511 511.99996" width="511pt" xmlns="http://www.w3.org/2000/svg"><path d="m74.976562 442.894531 334.191407 6.402344c49.925781-44.851563 81.332031-109.902344 81.332031-182.296875 0-135.308594-109.691406-245-245-245s-245 109.691406-245 245c0 69.019531 28.550781 131.363281 74.476562 175.894531zm0 0" fill="#2b3894"/><path d="m245.5 512c39.476562 0 76.761719-9.347656 109.785156-25.933594-15.285156 1.761719-48.582031-.207031-213.683594.644532-1.660156 0-3.304687-.058594-4.933593-.171876 32.789062 16.289063 69.738281 25.460938 108.832031 25.460938zm0 0" fill="#27a3ff"/><path d="m414.914062 389.859375c.953126.1875 1.9375.289063 2.945313.289063h3.851563c8.46875 0 15.398437-6.929688 15.398437-15.398438v-23.101562c0-8.46875-6.929687-15.398438-15.398437-15.398438h-3.851563c-1.007813 0-1.992187.105469-2.945313.292969zm0 0" fill="#aeaeff"/><path d="m414.914062 298.261719c.953126.183593 1.9375.289062 2.945313.289062h3.851563c8.46875 0 15.398437-6.929687 15.398437-15.398437 0-18.277344 0-42.804688 0-59.460938 0-8.46875-6.929687-15.398437-15.398437-15.398437h-3.851563c-1.007813 0-1.992187.101562-2.945313.289062zm0 0" fill="#aeaeff"/><path d="m421.710938 368.828125h-3.851563c-1.007813 0-1.992187-.105469-2.945313-.292969v21.324219c.953126.1875 1.9375.289063 2.945313.289063h3.851563c8.46875 0 15.398437-6.929688 15.398437-15.398438v-21.320312c0 8.46875-6.929687 15.398437-15.398437 15.398437zm0 0" fill="#8181fc"/><path d="m421.710938 245.230469h-3.851563c-1.007813 0-1.992187-.105469-2.945313-.292969v53.324219c.953126.183593 1.9375.289062 2.945313.289062h3.851563c8.46875 0 15.398437-6.929687 15.398437-15.398437 0-16.144532 0-37.15625 0-53.324219 0 8.472656-6.929687 15.402344-15.398437 15.402344zm0 0" fill="#8181fc"/><path d="m345.320312 119.945312c7.40625 0 14.550782 1.125 21.28125 3.210938h.535157c-28.886719-8.859375-34.570313-34.453125-35.292969-38.058594-1.203125-17.695312-4.390625-66.671875-4.660156-68.035156-1.609375-8.074219-9.3125-9.503906-9.1875-9.433594-45.4375-10.015625-106.460938-9.855468-149.347656-1.359375-4.03125.796875-7.113282 4.054688-7.691407 8.121094l-4.898437 70.210937s-3.835938 27.710938-33.261719 37.847657c16.460937-4.457031 8.957031-1.632813 222.523437-2.503907zm0 0" fill="#27a3ff"/><path d="m217.078125 82.402344 2.960937-74.226563c.289063-3.515625 1.585938-6.453125 3.382813-7.871093-19.640625.722656-38.511719 2.742187-54.773437 5.964843-4.027344.796875-7.113282 4.054688-7.691407 8.121094l-4.898437 70.214844s-3.835938 27.707031-33.257813 37.84375c11.199219-3.03125 11.304688-2.691407 77.53125-2.441407 14.71875-12.125 16.746094-37.605468 16.746094-37.605468zm0 0" fill="#0080f4"/><path d="m345.320312 117.433594h-203.71875c-39.714843 0-72.027343 32.3125-72.027343 72.027344v227.730468c0 8.667969 1.539062 16.980469 4.355469 24.679688 19.792968 19.421875 42.867187 35.503906 68.3125 47.351562h203.078124c1.21875 0 2.433594-.035156 3.636719-.09375 22.503907-10.5 43.15625-24.304687 61.3125-40.8125 4.535157-9.425781 7.082031-19.984375 7.082031-31.125v-227.726562c0-39.71875-32.3125-72.03125-72.03125-72.03125zm0 0" fill="#aeaeff"/><path d="m203.089844 117.433594h-61.488282c-39.71875 0-72.027343 32.3125-72.027343 72.027344v227.730468c0 8.667969 1.539062 16.980469 4.355469 24.679688 19.792968 19.421875 42.867187 35.503906 68.3125 47.351562h60.847656c-23.445313-17.492187 0-34.652344 0-34.652344v-302.488281c-21.679688-19.808593 0-34.648437 0-34.648437zm0 0" fill="#8181fc"/><path d="m345.320312 454.574219c20.613282 0 37.378907-16.769531 37.378907-37.378907v-227.730468c0-20.613282-16.765625-37.382813-37.378907-37.382813h-203.71875c-20.609374 0-37.378906 16.769531-37.378906 37.382813v227.730468c0 20.609376 16.769532 37.378907 37.378906 37.378907zm0 0" fill="#3d4ec6"/><path d="m186.355469 424.058594v-241.457032c0-12.261718 5.597656-23.242187 14.375-30.519531h-59.128907c-20.609374 0-37.378906 16.769531-37.378906 37.382813v227.730468c0 20.609376 16.769532 37.378907 37.378906 37.378907h59.128907c-8.777344-7.277344-14.375-18.253907-14.375-30.515625zm0 0" fill="#3342ae"/><path d="m218.980469 195.152344h-65.253907c-4.746093 0-8.589843 3.847656-8.589843 8.589844v75.105468c0 4.746094 3.84375 8.59375 8.589843 8.59375h65.253907c4.746093 0 8.59375-3.847656 8.59375-8.59375v-75.105468c0-4.742188-3.847657-8.589844-8.59375-8.589844zm0 0" fill="#f948b4"/><path d="m336.207031 195.152344h-68.265625c-4.746094 0-8.59375 3.847656-8.59375 8.589844v75.105468c0 4.746094 3.847656 8.59375 8.59375 8.59375h68.265625c4.746094 0 8.59375-3.847656 8.59375-8.59375v-75.105468c0-4.742188-3.847656-8.589844-8.59375-8.589844zm0 0" fill="#27a3ff"/><path d="m218.980469 319.214844h-65.253907c-4.746093 0-8.589843 3.847656-8.589843 8.59375v75.105468c0 4.742188 3.84375 8.589844 8.589843 8.589844h65.253907c4.746093 0 8.59375-3.847656 8.59375-8.589844v-75.105468c0-4.746094-3.847657-8.59375-8.59375-8.59375zm0 0" fill="#fecd0a"/><path d="m336.207031 319.214844h-68.265625c-4.746094 0-8.59375 3.847656-8.59375 8.59375v75.105468c0 4.742188 3.847656 8.589844 8.59375 8.589844h68.265625c4.746094 0 8.59375-3.847656 8.59375-8.589844v-75.105468c0-4.746094-3.847656-8.59375-8.59375-8.59375zm0 0" fill="#00c82f"/><path d="m184.195312 278.847656v-75.105468c0-4.742188 3.847657-8.589844 8.59375-8.589844h-39.0625c-4.746093 0-8.589843 3.847656-8.589843 8.589844v75.105468c0 4.746094 3.84375 8.59375 8.589843 8.59375h39.0625c-4.746093 0-8.59375-3.847656-8.59375-8.59375zm0 0" fill="#e00e8b"/><path d="m298.410156 278.847656v-75.105468c0-4.742188 3.847656-8.589844 8.59375-8.589844h-39.0625c-4.746094 0-8.59375 3.847656-8.59375 8.589844v75.105468c0 4.746094 3.847656 8.59375 8.59375 8.59375h39.0625c-4.746094 0-8.59375-3.847656-8.59375-8.59375zm0 0" fill="#0080f4"/><path d="m184.195312 402.914062v-75.105468c0-4.746094 3.847657-8.59375 8.59375-8.59375h-39.0625c-4.746093 0-8.589843 3.847656-8.589843 8.59375v75.105468c0 4.742188 3.84375 8.589844 8.589843 8.589844h39.0625c-4.746093 0-8.59375-3.847656-8.59375-8.589844zm0 0" fill="#fca60d"/><path d="m298.410156 402.914062v-75.105468c0-4.746094 3.847656-8.59375 8.59375-8.59375h-39.0625c-4.746094 0-8.59375 3.847656-8.59375 8.59375v75.105468c0 4.742188 3.847656 8.589844 8.59375 8.589844h39.0625c-4.746094 0-8.59375-3.847656-8.59375-8.589844zm0 0" fill="#02ad22"/><path d="m311.292969 266.421875h-18.4375c-4.875 0-8.824219-3.949219-8.824219-8.828125 0-4.875 3.949219-8.824219 8.824219-8.824219h18.4375c4.875 0 8.828125 3.949219 8.828125 8.824219-.003906 4.878906-3.953125 8.828125-8.828125 8.828125zm0 0" fill="#4fbbff"/><path d="m195.574219 266.421875h-18.4375c-4.875 0-8.828125-3.949219-8.828125-8.828125 0-4.875 3.953125-8.824219 8.828125-8.824219h18.4375c4.875 0 8.824219 3.949219 8.824219 8.824219 0 4.878906-3.949219 8.828125-8.824219 8.828125zm0 0" fill="#fc7acd"/><path d="m311.292969 390.484375h-18.4375c-4.875 0-8.824219-3.949219-8.824219-8.828125 0-4.875 3.949219-8.824219 8.824219-8.824219h18.4375c4.875 0 8.828125 3.949219 8.828125 8.824219-.003906 4.878906-3.953125 8.828125-8.828125 8.828125zm0 0" fill="#a2ec00"/><path d="m195.574219 390.484375h-18.4375c-4.875 0-8.828125-3.949219-8.828125-8.828125 0-4.875 3.953125-8.824219 8.828125-8.824219h18.4375c4.875 0 8.824219 3.949219 8.824219 8.824219 0 4.878906-3.949219 8.828125-8.824219 8.828125zm0 0" fill="#fce395"/><path d="m441.425781 123.15625c0 32.433594-26.292969 58.726562-58.726562 58.726562-32.433594 0-58.726563-26.292968-58.726563-58.726562s26.292969-58.726562 58.726563-58.726562c32.433593 0 58.726562 26.292968 58.726562 58.726562zm0 0" fill="#00c82f"/><path d="m418.253906 169.890625c-37.019531-.007813-41.503906-25.191406-41.378906-38.050781.042969-4.445313-1.539062-8.796875-4.574219-12.039063-19.699219-21.050781-5.320312-52.96875-5.183593-53.265625-24.867188 6.828125-43.144532 29.582032-43.144532 56.621094 0 32.433594 26.292969 58.726562 58.726563 58.726562 13.367187 0 25.683593-4.472656 35.554687-11.992187zm0 0" fill="#02ad22"/><path d="m369.179688 149.433594-17.242188-17.242188c-4.59375-4.59375-4.59375-12.046875 0-16.644531 4.597656-4.59375 12.050781-4.59375 16.644531 0l8.917969 8.917969 20.675781-20.671875c4.59375-4.597657 12.046875-4.597657 16.640625 0 4.597656 4.597656 4.597656 12.046875 0 16.644531l-28.992187 28.996094c-4.597657 4.59375-12.050781 4.59375-16.644531 0zm0 0" fill="#e6f7fe"/></svg>