<svg height="512pt" viewBox="-11 0 512 512" width="512pt" xmlns="http://www.w3.org/2000/svg"><path d="m442.027344 412.625c30.140625-40.710938 47.972656-91.082031 47.972656-145.625 0-135.308594-109.691406-245-245-245s-245 109.691406-245 245c0 54.542969 17.832031 104.914062 47.972656 145.625zm0 0" fill="#fecd0a"/><path d="m409.816406 0h-329.632812c-18.164063 0-32.941406 14.777344-32.941406 32.941406v378.683594c9.171874 12.519531 19.503906 24.132812 30.832031 34.6875h333.851562c11.328125-10.554688 21.664063-22.167969 30.832031-34.6875v-378.683594c0-18.164062-14.777343-32.941406-32.941406-32.941406zm0 0" fill="#3d4ec6"/><path d="m78.101562 446.3125h43.878907v-416.554688c-16.894531-18.742187 0-29.757812 0-29.757812h-41.796875c-18.164063 0-32.941406 14.777344-32.941406 32.941406v378.683594c9.171874 12.523438 19.523437 24.128906 30.859374 34.6875zm0 0" fill="#3342ae"/><path d="m77 445.3125c43.863281 41.339844 102.96875 66.6875 168 66.6875s124.136719-25.347656 168-66.6875v-364.605469h-336zm0 0" fill="#e6f7fe"/><path d="m121.980469 80.707031h-44.980469v364.605469c13.617188 12.832031 28.703125 24.121094 44.980469 33.59375zm0 0" fill="#d5f1fe"/><path d="m413 81.914062v-48.972656c0-1.726562-1.457031-3.183594-3.183594-3.183594h-329.632812c-1.726563 0-3.183594 1.457032-3.183594 3.183594v48.972656zm0 0" fill="#615df9"/><path d="m121.980469 29.757812h-41.796875c-1.726563 0-3.183594 1.457032-3.183594 3.183594v48.972656h44.980469zm0 0" fill="#3d4ec6"/><g fill="#27a3ff"><path d="m211.28125 310.644531c-.011719 0-.023438-.003906-.039062-.003906h-56.472657c-8.128906 0-15.125 6.246094-15.507812 14.367187-.40625 8.671876 6.503906 15.832032 15.082031 15.832032h16.488281c1.460938 0 2.191407 1.765625 1.160157 2.796875l-51.21875 51.214843c-5.894532 5.898438-5.894532 15.457032 0 21.355469 5.894531 5.894531 15.457031 5.894531 21.355468 0l51.214844-51.21875c1.035156-1.03125 2.800781-.300781 2.800781 1.160157v16.0625c0 8.128906 6.246094 15.125 14.367188 15.507812 8.671875.40625 15.828125-6.5 15.828125-15.082031v-56.894531c0-8.382813-6.839844-15.078126-15.058594-15.097657zm0 0"/><path d="m369.230469 394.859375-51.21875-51.222656c-1.035157-1.03125-.300781-2.796875 1.160156-2.796875h16.058594c8.132812 0 15.125-6.246094 15.507812-14.367188.410157-8.671875-6.5-15.832031-15.078125-15.832031h-56.898437c-8.175781 0-15.097657 6.65625-15.097657 15.101563v56.46875c0 8.128906 6.246094 15.125 14.367188 15.507812 8.671875.410156 15.828125-6.5 15.828125-15.082031v-16.488281c0-1.460938 1.765625-2.191407 2.796875-1.15625l51.222656 51.21875c5.898438 5.898437 15.457032 5.898437 21.351563 0 5.898437-5.898438 5.898437-15.457032 0-21.351563zm0 0"/><path d="m210.511719 185.886719c-8.121094.382812-14.367188 7.378906-14.367188 15.507812v16.066407c0 1.457031-1.765625 2.191406-2.800781 1.15625l-51.214844-51.214844c-5.898437-5.898438-15.457031-5.898438-21.355468 0-5.894532 5.894531-5.894532 15.453125 0 21.351562l51.21875 51.21875c1.03125 1.03125.300781 2.796875-1.160157 2.796875h-16.0625c-8.128906 0-15.125 6.246094-15.507812 14.367188-.410157 8.671875 6.5 15.832031 15.082031 15.832031h56.898438c8.316406 0 15.097656-6.746094 15.097656-15.101562v-56.898438c0-8.578125-7.15625-15.488281-15.828125-15.082031zm0 0"/><path d="m278.761719 272.964844h56.472656c8.128906 0 15.125-6.246094 15.507813-14.367188.40625-8.671875-6.5-15.828125-15.082032-15.828125h-16.488281c-1.460937 0-2.195313-1.765625-1.160156-2.800781l51.214843-51.214844c5.898438-5.898437 5.898438-15.457031 0-21.355468-5.894531-5.894532-15.453124-5.894532-21.351562 0l-51.21875 51.21875c-1.03125 1.03125-2.796875.300781-2.796875-1.160157v-16.0625c0-8.128906-6.246094-15.125-14.367187-15.507812-8.671876-.40625-15.828126 6.5-15.828126 15.082031v56.894531c0 8.054688 6.484376 15.101563 15.097657 15.101563zm0 0"/></g><path d="m106.253906 64.894531c-5.074218 0-9.058594-4.148437-9.058594-9.058593 0-5.730469 5.285157-10.019532 10.832032-8.878907 4 .757813 7.285156 4.363281 7.285156 8.878907 0 5.023437-4.078125 9.058593-9.058594 9.058593zm0 0" fill="#f948b4"/><path d="m131.039062 64.894531c-5.066406 0-9.058593-4.128906-9.058593-9.058593 0-5.773438 5.34375-10.015626 10.824219-8.878907 4.078124.773438 7.292968 4.460938 7.292968 8.878907 0 5.0625-4.136718 9.058593-9.058594 9.058593zm0 0" fill="#fecd0a"/><path d="m155.8125 64.894531c-4.972656 0-9.058594-4.058593-9.058594-9.058593 0-5.601563 5.179688-10.039063 10.835938-8.878907 4.140625.785157 7.28125 4.527344 7.28125 8.878907 0 4.898437-3.96875 9.058593-9.058594 9.058593zm0 0" fill="#39df74"/><path d="m324.773438 64.894531h-137.871094c-5.003906 0-9.058594-4.054687-9.058594-9.058593 0-5.003907 4.054688-9.058594 9.058594-9.058594h137.871094c5.003906 0 9.0625 4.054687 9.0625 9.058594 0 5.003906-4.058594 9.058593-9.0625 9.058593zm0 0" fill="#aeaeff"/><path d="m289.84375 55.835938c0-5.003907 4.054688-9.058594 9.058594-9.058594h-112c-5.003906 0-9.058594 4.054687-9.058594 9.058594 0 5.003906 4.054688 9.058593 9.058594 9.058593h112c-5.003906 0-9.058594-4.054687-9.058594-9.058593zm0 0" fill="#8181fc"/><path d="m381.109375 64.894531h-19.496094c-5.003906 0-9.058593-4.054687-9.058593-9.058593 0-5.003907 4.054687-9.058594 9.058593-9.058594h19.496094c5.003906 0 9.058594 4.054687 9.058594 9.058594 0 5.003906-4.054688 9.058593-9.058594 9.058593zm0 0" fill="#aeaeff"/><path d="m193.050781 218.324219-50.921875-50.921875c-5.898437-5.898438-15.457031-5.898438-21.355468 0-5.894532 5.894531-5.894532 15.453125 0 21.351562l50.921874 50.921875c-2.511718-12.730469 8.6875-23.855469 21.355469-21.351562zm0 0" fill="#0080f4"/><path d="m171.695312 343.933594-50.921874 50.917968c-5.894532 5.898438-5.894532 15.457032 0 21.355469 5.894531 5.894531 15.457031 5.894531 21.355468 0l50.921875-50.921875c-12.714843 2.507813-23.855469-8.664062-21.355469-21.351562zm0 0" fill="#0080f4"/><path d="m335.660156 242.769531h-16.488281c-.960937 0-1.59375-.761719-1.632813-1.574219-13.390624 3.4375-25.546874-8.691406-22.09375-22.109374-.820312-.03125-1.585937-.664063-1.585937-1.625v-16.066407c0-8.128906-6.25-15.125-14.371094-15.507812-8.667969-.40625-15.828125 6.503906-15.828125 15.082031v56.894531c0 8.050781 6.484375 15.101563 15.101563 15.101563h56.46875c8.132812 0 15.125-6.246094 15.507812-14.367188.410157-8.667968-6.5-15.828125-15.078125-15.828125zm0 0" fill="#0080f4"/><path d="m317.601562 342.058594c.179688-.667969.753907-1.21875 1.570313-1.21875h16.058594c8.132812 0 15.125-6.25 15.507812-14.371094.410157-8.667969-6.5-15.828125-15.078125-15.828125h-56.898437c-8.175781 0-15.097657 6.65625-15.097657 15.101563v56.46875c0 8.128906 6.246094 15.125 14.367188 15.507812 8.671875.40625 15.828125-6.5 15.828125-15.082031v-16.488281c0-1 .828125-1.640626 1.679687-1.625-3.757812-13.429688 8.398438-26.023438 22.0625-22.464844zm0 0" fill="#0080f4"/></svg>