<svg height="512pt" viewBox="0 0 512.00008 512" width="512pt" xmlns="http://www.w3.org/2000/svg"><path d="m245 22c-135.308594 0-245 109.691406-245 245 0 51.324219 15.792969 98.957031 42.769531 138.320312l292.957031 89.324219c90.390626-36.058593 154.273438-124.386719 154.273438-227.644531 0-135.308594-109.691406-245-245-245zm0 0" fill="#f948b4"/><path d="m298.691406 0h-218.34375c-21.1875 0-38.425781 17.238281-38.425781 38.425781v365.636719c7.070313 10.457031 14.933594 20.339844 23.492187 29.5625l247.300782 68.859375c8.320312-2.390625 16.46875-5.195313 24.402344-8.417969v-455.640625c0-21.1875-17.238282-38.425781-38.425782-38.425781zm0 0" fill="#3d4ec6"/><path d="m140.269531 454.46875v-413.339844c-19.460937-24.660156 0-41.128906 0-41.128906h-59.921875c-21.1875 0-38.425781 17.238281-38.425781 38.425781v365.636719c7.070313 10.460938 14.9375 20.339844 23.496094 29.5625zm0 0" fill="#3342ae"/><path d="m298.691406 22.242188h-32.449218c-3.058594 0-5.539063 2.480468-5.539063 5.542968 0 7.339844-6.007813 13.34375-13.347656 13.34375h-115.671875c-7.339844 0-13.347656-6.003906-13.347656-13.34375 0-3.058594-2.480469-5.542968-5.539063-5.542968h-32.449219c-8.9375 0-16.179687 7.246093-16.179687 16.183593v393.851563c44.792969 48.988281 109.21875 79.722656 180.832031 79.722656 24.144531 0 47.472656-3.503906 69.507812-10.015625.234376-1.097656.363282-2.238281.363282-3.410156 0-16.292969 0-443.445313 0-460.148438 0-8.9375-7.242188-16.183593-16.179688-16.183593zm0 0" fill="#e6f7fe"/><path d="m140.269531 41.128906h-8.585937c-7.339844 0-13.34375-6.003906-13.34375-13.34375 0-3.058594-2.484375-5.542968-5.542969-5.542968h-32.449219c-8.9375 0-16.183594 7.246093-16.183594 16.183593v393.851563c21.355469 23.351562 47.179688 42.542968 76.105469 56.25 0-135.914063 0-313.507813 0-447.398438zm0 0" fill="#d5f1fe"/><path d="m149.730469 369.40625h-40.8125c-6.332031 0-11.46875-5.136719-11.46875-11.46875v-40.816406c0-6.332032 5.136719-11.464844 11.46875-11.464844h40.8125c6.335937 0 11.46875 5.132812 11.46875 11.464844v40.816406c0 6.335938-5.132813 11.46875-11.46875 11.46875zm0 0" fill="#11dfef"/><path d="m149.730469 462.277344h-40.8125c-6.332031 0-11.46875-5.136719-11.46875-11.46875v-40.816406c0-6.332032 5.136719-11.464844 11.46875-11.464844h40.8125c6.335937 0 11.46875 5.132812 11.46875 11.464844v40.816406c0 6.332031-5.132813 11.46875-11.46875 11.46875zm0 0" fill="#11dfef"/><path d="m129.324219 357.9375v-40.8125c0-6.332031 5.132812-11.46875 11.464843-11.46875h-31.871093c-6.332031 0-11.46875 5.136719-11.46875 11.46875v40.8125c0 6.335938 5.136719 11.46875 11.46875 11.46875h31.871093c-6.332031 0-11.464843-5.132812-11.464843-11.46875zm0 0" fill="#0ac6e5"/><path d="m129.324219 450.808594v-40.816406c0-6.332032 5.132812-11.464844 11.464843-11.464844h-31.871093c-6.332031 0-11.46875 5.132812-11.46875 11.464844v40.816406c0 6.332031 5.136719 11.46875 11.46875 11.46875h31.871093c-6.332031 0-11.464843-5.136719-11.464843-11.46875zm0 0" fill="#0ac6e5"/><path d="m281.589844 178.472656c0-14.214844 0-58.367187 0-72.460937 0-7.53125-6.109375-13.640625-13.640625-13.640625-20.335938 0-138.210938 0-156.855469 0-7.535156 0-13.644531 6.109375-13.644531 13.640625v155.203125c0 7.53125 6.109375 13.640625 13.644531 13.640625h126.457031c0-38.433594 17.078125-72.957031 44.039063-96.382813zm0 0" fill="#f948b4"/><path d="m140.269531 261.214844c0-44.941406 0-102.433594 0-155.203125 0-7.53125 6.109375-13.640625 13.640625-13.640625-20.242187 0-36.765625 0-42.820312 0-7.535156 0-13.640625 6.109375-13.640625 13.640625v155.203125c0 7.53125 6.105469 13.640625 13.640625 13.640625h42.820312c-7.53125 0-13.640625-6.105469-13.640625-13.640625zm0 0" fill="#e00e8b"/><g fill="#11dfef"><path d="m250.5625 328.667969h-51.53125c-4.605469 0-8.339844-3.734375-8.339844-8.34375 0-4.605469 3.734375-8.339844 8.339844-8.339844h51.53125c4.609375 0 8.34375 3.734375 8.34375 8.339844 0 4.609375-3.734375 8.34375-8.34375 8.34375zm0 0"/><path d="m274.917969 363.078125h-75.886719c-4.605469 0-8.339844-3.734375-8.339844-8.34375 0-4.605469 3.734375-8.339844 8.339844-8.339844h75.886719c4.605469 0 8.339843 3.734375 8.339843 8.339844 0 4.609375-3.734374 8.34375-8.339843 8.34375zm0 0"/><path d="m253.902344 421.539062h-54.871094c-4.605469 0-8.339844-3.734374-8.339844-8.34375 0-4.605468 3.734375-8.339843 8.339844-8.339843h54.871094c4.605468 0 8.339844 3.734375 8.339844 8.339843 0 4.609376-3.734376 8.34375-8.339844 8.34375zm0 0"/><path d="m281.589844 455.949219h-82.558594c-4.605469 0-8.339844-3.734375-8.339844-8.34375 0-4.605469 3.734375-8.339844 8.339844-8.339844h82.558594c4.605468 0 8.34375 3.730469 8.34375 8.339844s-3.738282 8.34375-8.34375 8.34375zm0 0"/></g><path d="m249.082031 250.601562h-100.472656c-4.605469 0-8.339844-3.734374-8.339844-8.339843 0-4.609375 3.734375-8.34375 8.339844-8.34375h100.472656c4.605469 0 8.34375 3.734375 8.34375 8.34375 0 4.605469-3.738281 8.339843-8.34375 8.339843zm0 0" fill="#fc7acd"/><path d="m148.609375 250.601562h-51.160156c-4.605469 0-8.339844-3.734374-8.339844-8.339843 0-4.609375 3.734375-8.34375 8.339844-8.34375h51.160156c4.609375 0 8.34375 3.734375 8.34375 8.34375 0 4.605469-3.734375 8.339843-8.34375 8.339843zm0 0" fill="#11dfef"/><path d="m218.410156 168.652344-44.402344-29.125c-2.8125-1.84375-6.550781.171875-6.550781 3.539062v58.246094c0 3.367188 3.738281 5.382812 6.550781 3.539062l44.402344-29.121093c2.550782-1.671875 2.550782-5.410157 0-7.078125zm0 0" fill="#ff97df"/><path d="m187.121094 177.066406v-9.753906c0-6.242188 3.511718-11.214844 8.316406-13.730469l-21.429688-14.054687c-2.816406-1.84375-6.554687.171875-6.554687 3.539062v58.246094c0 3.367188 3.742187 5.382812 6.554687 3.539062l21.429688-14.054687c-4.804688-2.515625-8.316406-7.488281-8.316406-13.730469zm0 0" fill="#fc7acd"/><path d="m494.542969 274.855469c0 71.429687-57.902344 129.332031-129.328125 129.332031-71.429688 0-129.332032-57.902344-129.332032-129.332031 0-71.425781 57.902344-129.328125 129.332032-129.328125 71.425781 0 129.328125 57.902344 129.328125 129.328125zm0 0" fill="#8181fc"/><path d="m417.1875 341.246094-47.417969-86.742188c-18.746093-15.699218-15.933593-36.617187-13.519531-45.707031.648438-2.445313-.394531-4.964844-2.476562-6.402344-4.042969-2.78125-4.066407-6.785156-3.296876-9.78125.636719-2.476562-.335937-5.082031-2.488281-6.46875-13.410156-8.640625-11.492187-20-9.242187-25.875.851562-2.210937.328125-4.71875-1.378906-6.363281-1.632813-1.570312-2.503907-3.167969-2.894532-4.695312-56.582031 13.796874-98.589844 64.8125-98.589844 125.644531 0 71.429687 57.902344 129.332031 129.332032 129.332031 27.34375 0 52.699218-8.492188 73.589844-22.972656-33.59375-7.917969-21.617188-39.96875-21.617188-39.96875zm0 0" fill="#615df9"/><path d="m511.808594 345.203125c-.972656-4.5-5.417969-7.351563-9.917969-6.382813l-16.707031 3.621094c11.617187-20.496094 17.703125-43.5 17.703125-67.585937 0-75.910157-61.757813-137.671875-137.671875-137.671875-75.914063 0-137.671875 61.761718-137.671875 137.671875 0 75.914062 61.757812 137.675781 137.671875 137.675781 13.144531 0 26.15625-1.855469 38.667968-5.507812 4.421876-1.292969 6.957032-5.925782 5.667969-10.347657-1.292969-4.421875-5.929687-6.957031-10.347656-5.667969-10.988281 3.210938-22.425781 4.839844-33.988281 4.839844-66.714844 0-120.988282-54.277344-120.988282-120.992187 0-66.714844 54.273438-120.988281 120.988282-120.988281s120.988281 54.273437 120.988281 120.988281c0 21.082031-5.300781 41.222656-15.429687 59.179687l-3.84375-17.714844c-.976563-4.503906-5.414063-7.355468-9.917969-6.386718-4.503907.976562-7.363281 5.417968-6.382813 9.921875l7.9375 36.613281c.1875 1.019531.566406 2.007812 1.128906 2.910156.015626.015625.023438.035156.035157.054688.234375.367187.5.71875.792969 1.050781.035156.039063.070312.074219.105468.113281.28125.304688.585938.597656.917969.867188.011719.007812.023437.019531.035156.027344.003907.003906.003907.007812.007813.011718.320312.25.65625.464844.996094.664063.089843.050781.175781.101562.261718.148437.335938.175782.675782.332032 1.023438.460938.117187.042968.234375.078125.351562.117187.285156.089844.574219.167969.867188.226563.191406.039062.382812.070312.578125.097656.25.03125.503906.054688.753906.0625.117187.003906.230469.03125.347656.03125.585938 0 1.179688-.0625 1.777344-.191406l36.878906-7.996094c4.5-.976562 7.359375-5.417969 6.382813-9.921875zm0 0" fill="#aeaeff"/><path d="m409.550781 396.675781c-1.292969-4.421875-5.929687-6.957031-10.347656-5.667969-10.992187 3.210938-22.425781 4.839844-33.988281 4.839844-66.714844 0-120.992188-54.277344-120.992188-120.992187 0-57.707031 40.613282-106.097657 94.753906-118.113281-.253906-1.058594-.792968-2.046876-1.613281-2.835938-6.925781-6.667969-.277343-13.804688-.25-13.835938-62.480469 13.007813-109.574219 68.5-109.574219 134.785157 0 75.914062 61.761719 137.671875 137.671876 137.671875 13.148437 0 26.15625-1.851563 38.667968-5.503906 4.421875-1.292969 6.960938-5.925782 5.671875-10.347657zm0 0" fill="#8181fc"/><path d="m399.691406 270.667969c-4.605468 0-8.339844-3.734375-8.339844-8.34375v-33.03125c0-14.410157-11.726562-26.136719-26.136718-26.136719-14.414063 0-26.140625 11.726562-26.140625 26.136719v33.03125c0 4.609375-3.734375 8.34375-8.339844 8.34375s-8.34375-3.734375-8.34375-8.34375v-33.03125c0-23.609375 19.210937-42.820313 42.820313-42.820313 23.613281 0 42.820312 19.210938 42.820312 42.820313v33.03125c.003906 4.609375-3.730469 8.34375-8.339844 8.34375zm0 0" fill="#aeaeff"/><path d="m330.734375 270.667969c4.609375 0 8.34375-3.734375 8.34375-8.34375v-33.03125c0-11.121094 6.984375-20.640625 16.796875-24.40625-.457031-.976563-1.164062-1.847657-2.101562-2.492188-4.042969-2.78125-4.066407-6.785156-3.296876-9.78125.300782-1.175781.230469-2.378906-.148437-3.46875-16.292969 6.0625-27.933594 21.769531-27.933594 40.148438v33.035156c0 4.605469 3.734375 8.339844 8.339844 8.339844zm0 0" fill="#8181fc"/><path d="m406.652344 346.429688h-82.875c-7.34375 0-13.347656-6.007813-13.347656-13.347657v-65.230469c0-7.34375 6.003906-13.347656 13.347656-13.347656h82.875c7.339844 0 13.34375 6.003906 13.34375 13.347656v65.230469c0 7.339844-6.003906 13.347657-13.34375 13.347657zm0 0" fill="#fecd0a"/><path d="m359.097656 333.082031v-65.230469c0-7.34375 6.003906-13.347656 13.34375-13.347656h-48.664062c-7.34375 0-13.347656 6.003906-13.347656 13.347656v65.230469c0 7.339844 6.007812 13.347657 13.347656 13.347657h48.664062c-7.339844 0-13.34375-6.007813-13.34375-13.347657zm0 0" fill="#fca60d"/><path d="m364.441406 274.875c-8.5625.394531-15.472656 7.679688-15.449218 16.253906.015624 5.335938 2.617187 10.054688 6.613281 12.996094.789062.585938 1.265625 1.5 1.265625 2.480469v6.210937c0 4.566406 3.519531 8.550782 8.085937 8.6875 4.722657.140625 8.597657-3.644531 8.597657-8.339844v-6.558593c0-.976563.46875-1.890625 1.253906-2.46875 4.015625-2.953125 6.625-7.695313 6.625-13.058594 0-9.214844-7.679688-16.632813-16.992188-16.203125zm0 0" fill="#f98a10"/><path d="m148.609375 257.277344c-4.605469 0-8.339844-3.734375-8.339844-8.34375v-14.457032c0-4.609374 3.734375-8.34375 8.339844-8.34375 4.609375 0 8.34375 3.734376 8.34375 8.34375v14.457032c0 4.609375-3.734375 8.34375-8.34375 8.34375zm0 0" fill="#d5f1fe"/></svg>