<svg height="512pt" viewBox="0 0 512 512" width="512pt" xmlns="http://www.w3.org/2000/svg"><path d="m485.164062 218.367188c-22.558593-112.011719-121.507812-196.367188-240.164062-196.367188-135.308594 0-245 109.691406-245 245 0 42.292969 10.714844 82.082031 29.582031 116.800781zm0 0" fill="#fecd0a"/><path d="m113.464844 473.726562c38 24.226563 83.125 38.273438 131.535156 38.273438s93.535156-14.046875 131.535156-38.273438zm0 0" fill="#2b3894"/><path d="m228.761719 473.726562h-115.296875c33.421875 21.308594 72.355468 34.738282 114.1875 37.664063-17.375-5.902344-16.601563-32.644531 1.109375-37.664063zm0 0" fill="#232e7a"/><path d="m63.726562 220.40625h230.867188v-185.859375c0-19.050781-15.5-34.546875-34.546875-34.546875h-196.316406c-19.050781 0-34.546875 15.496094-34.546875 34.546875v220.40625c0-19.046875 15.496094-34.546875 34.542968-34.546875zm0 0" fill="#2b3894"/><path d="m134.371094 0h-70.644532c-19.046874 0-34.546874 15.496094-34.546874 34.546875v220.40625c0-19.046875 15.5-34.546875 34.546874-34.546875h81.730469c1.332031-1.90625 2.75-3 2.75-3s14.332031-10.945312-19.667969-33.277344c-26.921874-17.6875-18.5625-38.28125-13.917968-46.09375 1.210937-2.03125 1.242187-4.523437.136718-6.613281-7.207031-13.65625.71875-22.964844 6.105469-27.3125 2.320313-1.871094 3.109375-5.054687 2-7.820313-13.183593-32.835937-1.847656-48.941406 5.835938-55.519531 2.683593-2.296875 3.152343-6.257812 1.109375-9.136719-13.019532-18.359374 4.5625-31.632812 4.5625-31.632812zm0 0" fill="#232e7a"/><path d="m63.726562 220.40625h210.867188c0-92.242188 0-178.878906 0-185.859375 0-8.035156-6.515625-14.546875-14.546875-14.546875h-29.179687c-2.75 0-4.980469 2.230469-4.980469 4.980469 0 6.601562-5.398438 12-12 12h-104c-6.601563 0-12-5.398438-12-12 0-2.75-2.230469-4.980469-4.980469-4.980469h-29.175781c-8.035157 0-14.550781 6.511719-14.550781 14.546875v189.085937c4.425781-2.066406 9.351562-3.226562 14.546874-3.226562zm0 0" fill="#4fbbff"/><path d="m148.207031 217.40625s14.332031-10.945312-19.667969-33.277344c-26.921874-17.6875-18.5625-38.28125-13.917968-46.09375 1.210937-2.03125 1.242187-4.523437.136718-6.613281-7.207031-13.65625.71875-22.964844 6.105469-27.3125 2.320313-1.871094 3.109375-5.054687 2-7.820313-13.183593-32.835937-1.847656-48.941406 5.835938-55.519531 1.1875-1.015625 1.941406-2.359375 2.234375-3.789062h-21.046875c-6.601563 0-12-5.398438-12-12 0-2.75-2.230469-4.980469-4.980469-4.980469h-29.175781c-8.035157 0-14.550781 6.511719-14.550781 14.546875v189.085937c4.425781-2.066406 9.351562-3.226562 14.546874-3.226562h81.730469c1.332031-1.90625 2.75-3 2.75-3zm0 0" fill="#27a3ff"/><path d="m213.964844 142.007812c-4.828125 8.101563-13.671875 13.539063-23.765625 13.539063-15.246094 0-27.648438-12.402344-27.648438-27.648437 0-1.300782.097657-2.582032.273438-3.839844-1.511719-1.125-3.027344-2.292969-4.554688-3.542969-51.898437-42.59375-99.070312-17.492187-109.085937-11.257813v113.371094c4.421875-2.0625 9.351562-3.222656 14.546875-3.222656h210.863281v-107.398438c-4.773438 5.300782-27.957031 29.070313-60.628906 30zm0 0" fill="#27a3ff"/><path d="m148.207031 217.40625s14.332031-10.945312-19.667969-33.277344c-26.921874-17.6875-18.5625-38.28125-13.917968-46.09375 1.210937-2.03125 1.242187-4.523437.136718-6.613281-7.207031-13.65625.71875-22.964844 6.105469-27.3125 1.125-.910156 1.882813-2.128906 2.246094-3.457031-36.738281-12.039063-66.25 3.828125-73.925781 8.605468v113.371094c4.421875-2.0625 9.351562-3.222656 14.546875-3.222656h82.484375c1.058594-1.285156 1.992187-2 1.992187-2zm0 0" fill="#0080f4"/><path d="m234.703125 182.507812c-7.742187-7.742187-20.296875-7.742187-28.039063 0l-13.753906 13.753907c-3.382812 3.382812-8.867187 3.382812-12.25 0l-56.660156-56.660157c-8.554688-8.554687-22.421875-8.554687-30.976562 0l-43.839844 43.839844v39.1875c4.421875-2.0625 9.351562-3.222656 14.546875-3.222656h207.871093zm0 0" fill="#a2ec00"/><path d="m148.207031 217.40625s14.332031-10.945312-19.667969-33.277344c-26.921874-17.6875-18.5625-38.28125-13.917968-46.09375.675781-1.128906.96875-2.402344.917968-3.671875-7.640624-2.582031-16.421874-.855469-22.515624 5.238281l-43.839844 43.839844v39.1875c4.421875-2.0625 9.351562-3.222656 14.546875-3.222656h82.484375c1.058594-1.285156 1.992187-2 1.992187-2zm0 0" fill="#00c82f"/><path d="m219.027344 127.898438c0 15.921874-12.90625 28.828124-28.828125 28.828124s-28.828125-12.90625-28.828125-28.828124c0-15.921876 12.90625-28.828126 28.828125-28.828126s28.828125 12.90625 28.828125 28.828126zm0 0" fill="#fecd0a"/><path d="m477.453125 217.40625h-413.726563c-19.046874 0-34.546874 15.5-34.546874 34.546875v131.082031c5.90625 10.957032 12.628906 21.410156 20.074218 31.289063l48.40625 48.40625c9.886719 7.453125 20.347656 14.179687 31.316406 20.085937h348.472657c19.050781 0 34.550781-15.496094 34.550781-34.546875v-196.316406c0-19.046875-15.496094-34.546875-34.546875-34.546875zm0 0" fill="#3d4ec6"/><path d="m173.988281 405.128906c-18.136719-12.273437-11.261719-29.347656-6.546875-37.292968 1.5-2.53125 1.234375-5.773438-.734375-7.960938-9.972656-11.09375-6.820312-23.105469-4.148437-29.148438 1.09375-2.472656.675781-5.363281-1.148438-7.363281-31.519531-34.550781-19.960937-70.703125-14.996094-82.210937.929688-2.160156.734376-4.664063-.632812-6.578125-7.046875-9.902344 2.425781-17.167969 2.425781-17.167969h-84.480469c-19.046874 0-34.546874 15.5-34.546874 34.546875v131.082031c5.90625 10.960938 12.628906 21.414063 20.074218 31.289063l48.40625 48.40625c9.886719 7.453125 20.347656 14.179687 31.316406 20.089843h45.007813c-6.808594-6.8125-5.164063-12.875-2.9375-16.492187 1.34375-2.179687 1.390625-4.921875.0625-7.109375-5.738281-9.445312 2.875-17.488281 2.875-17.488281s24.386719-20.101563.003906-36.601563zm0 0" fill="#2b3894"/><path d="m487.019531 286.113281c2.75 0 4.980469-2.230469 4.980469-4.980469v-29.179687c0-8.03125-6.511719-14.546875-14.546875-14.546875-1.089844 0-20.183594 0-49.617187 0v225.410156h49.617187c8.035156 0 14.546875-6.511718 14.546875-14.546875v-29.175781c0-2.75-2.230469-4.980469-4.980469-4.980469-6.597656 0-12-5.402343-12-12v-104c0-6.601562 5.398438-12 12-12zm0 0" fill="#e6f7fe"/><path d="m49.179688 251.953125v162.296875c13.835937 18.371094 30.199218 34.730469 48.570312 48.566406h11.320312v-225.410156c-26.652343 0-43.882812 0-45.339843 0-8.035157 0-14.550781 6.515625-14.550781 14.546875zm0 0" fill="#d5f1fe"/><path d="m107.335938 237.40625h322.238281v225.410156h-322.238281zm0 0" fill="#4fbbff"/><path d="m107.335938 462.816406h64.742187c.023437-1.246094-.292969-2.492187-.964844-3.597656-5.742187-9.445312 2.875-17.488281 2.875-17.488281s24.386719-20.101563 0-36.601563c-18.136719-12.273437-11.261719-29.347656-6.546875-37.292968 1.5-2.53125 1.234375-5.773438-.734375-7.960938-9.972656-11.09375-6.820312-23.105469-4.144531-29.148438 1.09375-2.472656.671875-5.363281-1.148438-7.363281-31.523437-34.550781-19.960937-70.703125-15-82.210937.515626-1.195313.671876-2.496094.488282-3.746094h-39.566406zm0 0" fill="#27a3ff"/><path d="m390.085938 317.015625c-4.617188 7.746094-13.078126 12.949219-22.734376 12.949219-15.933593 0-28.425781-14.113282-26.1875-30.121094-8.613281-6.417969-30.507812-26.945312-64.980468-26.609375-39.90625.386719-60.417969 28.207031-70.769532 35.339844 0 0-47.640624 42.445312-98.082031 0v154.242187h322.242188c0-5.523437 0-149.554687 0-158.914062-10.082031 6.558594-23.605469 12.660156-39.488281 13.113281zm0 0" fill="#27a3ff"/><path d="m171.113281 459.21875c-5.742187-9.445312 2.875-17.488281 2.875-17.488281s24.382813-20.101563 0-36.601563c-18.136719-12.273437-11.261719-29.347656-6.546875-37.292968 1.5-2.53125 1.234375-5.773438-.734375-7.960938-9.972656-11.09375-6.820312-23.105469-4.148437-29.148438.535156-1.203124.699218-2.503906.53125-3.753906-16.300782 1.894532-35.808594-1.609375-55.753906-18.398437v154.246093h64.742187c.023437-1.246093-.292969-2.496093-.964844-3.601562zm0 0" fill="#0080f4"/><path d="m394.925781 303.519531c0 15.226563-12.34375 27.574219-27.574219 27.574219-15.226562 0-27.574218-12.347656-27.574218-27.574219 0-15.230469 12.347656-27.574219 27.574218-27.574219 15.230469 0 27.574219 12.34375 27.574219 27.574219zm0 0" fill="#fecd0a"/><path d="m184.871094 117.097656c0-6.8125 2.367187-13.066406 6.316406-18-.328125-.011718-.65625-.023437-.988281-.023437-15.921875 0-28.828125 12.90625-28.828125 28.824219 0 15.921874 12.90625 28.828124 28.828125 28.828124 9.109375 0 17.226562-4.230468 22.507812-10.828124-15.460937-.523438-27.835937-13.214844-27.835937-28.800782zm0 0" fill="#fca60d"/><path d="m363.277344 292.714844c0-6.289063 2.109375-12.082032 5.65625-16.722656-.523438-.03125-1.050782-.046876-1.582032-.046876-15.230468 0-27.574218 12.34375-27.574218 27.574219 0 15.226563 12.34375 27.574219 27.574218 27.574219 8.9375 0 16.878907-4.257812 21.917969-10.851562-14.492187-.820313-25.992187-12.828126-25.992187-27.527344zm0 0" fill="#fca60d"/><path d="m429.574219 375.40625-19.652344-19.652344c-7.40625-7.40625-19.414063-7.40625-26.820313 0l-13.15625 13.15625c-3.234374 3.234375-8.480468 3.234375-11.71875 0l-54.199218-54.199218c-8.179688-8.179688-21.449219-8.179688-29.628906 0l-69.828126 69.828124c-2.691406 2.695313-7.058593 2.695313-9.753906 0l-15.851562-15.851562c-8.429688-8.429688-22.09375-8.429688-30.523438 0l-41.109375 41.109375v53.019531h322.242188zm0 0" fill="#a2ec00"/><path d="m171.113281 459.21875c-5.742187-9.445312 2.875-17.488281 2.875-17.488281s24.382813-20.101563 0-36.601563c-18.136719-12.273437-11.261719-29.347656-6.546875-37.292968.90625-1.53125 1.15625-3.316407.785156-4.976563-6.914062-1.476563-14.410156.457031-19.785156 5.828125l-41.105468 41.109375v53.019531h64.742187c.023437-1.242187-.292969-2.492187-.964844-3.597656zm0 0" fill="#00c82f"/><path d="m429.574219 411.757812c-19.09375 19.199219-49.972657 35.191407-89.796875 4.519532-104.222656-80.273438-122.488282 93.8125-232.441406-6.832032v53.371094h322.238281zm0 0" fill="#00c82f"/><path d="m171.113281 459.21875c-5.742187-9.445312 2.875-17.488281 2.875-17.488281-18.484375.457031-39.84375-7.746094-66.65625-32.285157v53.371094h64.746094c.023437-1.242187-.292969-2.492187-.964844-3.597656zm0 0" fill="#02ad22"/><path d="m447.605469 141.003906c-2.925781-2.929687-7.675781-2.929687-10.605469 0l-5.933594 5.933594v-27.199219c0-21.484375-17.480468-38.964843-38.964844-38.964843h-27.035156l5.933594-5.933594c2.929688-2.933594 2.929688-7.679688 0-10.609375-2.929688-2.925781-7.679688-2.925781-10.605469 0l-18.738281 18.738281c-2.925781 2.925781-2.929688 7.675781 0 10.605469l18.738281 18.738281c2.929688 2.929688 7.675781 2.925781 10.605469 0 2.929688-2.929688 2.929688-7.679688 0-10.609375l-5.933594-5.929687h27.035156c13.214844 0 23.964844 10.75 23.964844 23.964843v27.199219l-5.933594-5.933594c-2.929687-2.929687-7.679687-2.929687-10.605468 0-2.929688 2.929688-2.929688 7.675782 0 10.605469l18.734375 18.738281c2.929687 2.925782 7.679687 2.925782 10.605469 0l18.738281-18.738281c2.929687-2.929687 2.929687-7.679687 0-10.605469zm0 0" fill="#fcedca"/><path d="m404.769531 99.40625c-1.234375-5.992188 3.347657-11.621094 9.46875-11.621094.046875 0 .09375.007813.140625.007813-6.320312-4.417969-13.996094-7.023438-22.277344-7.023438h-27.035156l5.933594-5.933593c2.929688-2.929688 2.929688-7.679688 0-10.605469-2.929688-2.929688-7.679688-2.929688-10.605469 0l-18.738281 18.734375c-2.925781 2.929687-2.929688 7.679687 0 10.609375l18.738281 18.734375c2.929688 2.929687 7.675781 2.929687 10.605469 0 2.929688-2.929688 2.929688-7.675782 0-10.605469l-5.933594-5.933594h27.035156c4.648438 0 8.992188 1.335938 12.667969 3.636719zm0 0" fill="#fce395"/></svg>