<svg height="511pt" viewBox="1 -10 511.999 511" width="511pt" xmlns="http://www.w3.org/2000/svg"><path d="m245 .5c-55.074219 0-105.90625 18.175781-146.820312 48.851562l-96.171876 164.664063c-1.324218 10.308594-2.007812 20.816406-2.007812 31.484375 0 14.417969 1.257812 28.539062 3.644531 42.277344l104.457031 160.933594c39.085938 26.382812 86.195313 41.789062 136.898438 41.789062 135.308594 0 245-109.691406 245-245s-109.691406-245-245-245zm0 0" fill="#27a3ff"/><path d="m1.753906 216.160156c16.355469 12.253906 36.667969 19.511719 58.671875 19.511719 54.097657 0 97.953125-43.855469 97.953125-97.953125 0-40.039062-24.027344-74.464844-58.449218-89.652344-53.171876 39.132813-89.953126 99.222656-98.175782 168.09375zm0 0" fill="#3d4ec6"/><path d="m60.425781 235.671875c14.0625 0 27.429688-2.96875 39.515625-8.304687-12.769531-2.40625-12.570312-11.105469-11.261718-16.175782.542968-2.113281-.492188-4.265625-2.445313-5.226562-12.257813-6.03125-6.707031-18.15625-6.707031-18.15625l-16.878906-.582032v-72.773437h-24.65625c-19.089844 30.089844-31.8125 64.621094-36.238282 101.707031 16.355469 12.253906 36.667969 19.511719 58.671875 19.511719zm0 0" fill="#3342ae"/><path d="m70.269531 73.78125c-28.152343 28.644531-49.320312 64.171875-60.734375 103.832031 11.84375 15.085938 30.226563 24.785157 50.890625 24.785157 35.722657 0 64.679688-28.957032 64.679688-64.679688 0-32.375-23.785157-59.195312-54.835938-63.9375zm0 0" fill="#f948b4"/><path d="m79.527344 187.808594-16.878906-.582032v-72.773437h-24.671876c-12.292968 19.378906-21.949218 40.597656-28.441406 63.160156 11.84375 15.085938 30.226563 24.785157 50.890625 24.785157 6.628907 0 13.019531-1 19.039063-2.851563-2.703125-5.679687.0625-11.738281.0625-11.738281zm0 0" fill="#e00e8b"/><path d="m225.847656 74.484375v21.53125c0 5.046875-2.535156 9.757813-6.75 12.53125l-25.289062 16.640625c-9.003906 5.925781-9.003906 19.132812 0 25.058594l25.289062 16.644531c4.214844 2.773437 6.75 7.484375 6.75 12.527344v21.535156c0 8.285156 6.714844 15 15 15h256.152344c8.285156 0 15-6.714844 15-15v-126.46875c0-8.285156-6.714844-15-15-15h-256.152344c-8.28125 0-15 6.714844-15 15zm0 0" fill="#e6f7fe"/><path d="m327.527344 200.953125v-126.46875c0-8.285156 6.714844-15 15-15h-101.679688c-8.28125 0-14.996094 6.714844-14.996094 15v21.53125c0 5.046875-2.539062 9.757813-6.753906 12.53125l-25.289062 16.640625c-9.003906 5.925781-9.003906 19.132812 0 25.058594l25.289062 16.644531c4.214844 2.773437 6.753906 7.484375 6.753906 12.527344v21.535156c0 8.285156 6.714844 15 14.996094 15h101.679688c-8.285156 0-15-6.714844-15-15zm0 0" fill="#d5f1fe"/><path d="m357.234375 113.277344h-78.066406c-6.117188 0-11.074219-4.960938-11.074219-11.074219 0-6.117187 4.957031-11.074219 11.074219-11.074219h78.066406c6.113281 0 11.074219 4.957032 11.074219 11.074219s-4.960938 11.074219-11.074219 11.074219zm0 0" fill="#f948b4"/><path d="m470.359375 185.140625h-193.960937c-4.585938 0-8.304688-3.71875-8.304688-8.304687 0-4.585938 3.71875-8.304688 8.304688-8.304688h193.960937c4.589844 0 8.304687 3.71875 8.304687 8.304688 0 4.585937-3.714843 8.304687-8.304687 8.304687zm0 0" fill="#11dfef"/><path d="m470.359375 149.769531h-193.960937c-4.585938 0-8.304688-3.71875-8.304688-8.304687 0-4.589844 3.71875-8.304688 8.304688-8.304688h193.960937c4.589844 0 8.304687 3.71875 8.304687 8.304688 0 4.585937-3.714843 8.304687-8.304687 8.304687zm0 0" fill="#11dfef"/><path d="m225.847656 302.046875v21.53125c0 5.046875-2.535156 9.753906-6.75 12.53125l-25.289062 16.640625c-9.003906 5.925781-9.003906 19.132812 0 25.058594l25.289062 16.644531c4.214844 2.773437 6.75 7.480469 6.75 12.527344v21.535156c0 8.285156 6.714844 15 15 15h256.152344c8.285156 0 15-6.714844 15-15v-126.46875c0-8.285156-6.714844-15-15-15h-256.152344c-8.28125 0-15 6.714844-15 15zm0 0" fill="#e6f7fe"/><path d="m327.527344 428.515625v-126.46875c0-8.285156 6.714844-15 15-15h-101.679688c-8.28125 0-14.996094 6.714844-14.996094 15v21.53125c0 5.046875-2.539062 9.753906-6.753906 12.53125l-25.289062 16.640625c-9.003906 5.925781-9.003906 19.132812 0 25.058594l25.289062 16.644531c4.214844 2.773437 6.753906 7.480469 6.753906 12.527344v21.535156c0 8.285156 6.714844 15 14.996094 15h101.679688c-8.285156 0-15-6.714844-15-15zm0 0" fill="#d5f1fe"/><path d="m357.234375 340.835938h-78.066406c-6.117188 0-11.074219-4.957032-11.074219-11.074219 0-6.113281 4.957031-11.070313 11.074219-11.070313h78.066406c6.113281 0 11.074219 4.957032 11.074219 11.070313 0 6.117187-4.960938 11.074219-11.074219 11.074219zm0 0" fill="#fecd0a"/><path d="m323.273438 102.203125c0-6.117187 4.960937-11.074219 11.074218-11.074219h-55.179687c-6.113281 0-11.074219 4.957032-11.074219 11.074219s4.960938 11.074219 11.074219 11.074219h55.179687c-6.117187 0-11.074218-4.957032-11.074218-11.074219zm0 0" fill="#e00e8b"/><path d="m323.273438 329.761719c0-6.113281 4.960937-11.070313 11.074218-11.070313h-55.179687c-6.113281 0-11.074219 4.957032-11.074219 11.070313 0 6.117187 4.960938 11.074219 11.074219 11.074219h55.179687c-6.117187 0-11.074218-4.957032-11.074218-11.074219zm0 0" fill="#fca60d"/><path d="m470.359375 412.703125h-193.960937c-4.585938 0-8.304688-3.71875-8.304688-8.304687 0-4.589844 3.71875-8.308594 8.304688-8.308594h193.960937c4.589844 0 8.304687 3.71875 8.304687 8.308594 0 4.585937-3.714843 8.304687-8.304687 8.304687zm0 0" fill="#11dfef"/><path d="m470.359375 377.332031h-193.960937c-4.585938 0-8.304688-3.71875-8.304688-8.304687 0-4.589844 3.71875-8.308594 8.304688-8.308594h193.960937c4.589844 0 8.304687 3.722656 8.304687 8.308594 0 4.585937-3.714843 8.304687-8.304687 8.304687zm0 0" fill="#11dfef"/><g fill="#0ac6e5"><path d="m320.59375 176.835938c0-4.585938 3.71875-8.304688 8.304688-8.304688h-52.5c-4.585938 0-8.304688 3.71875-8.304688 8.304688 0 4.585937 3.71875 8.304687 8.304688 8.304687h52.5c-4.585938 0-8.304688-3.71875-8.304688-8.304687zm0 0"/><path d="m320.59375 141.464844c0-4.589844 3.71875-8.304688 8.304688-8.304688h-52.5c-4.585938 0-8.304688 3.71875-8.304688 8.304688 0 4.585937 3.71875 8.304687 8.304688 8.304687h52.5c-4.585938 0-8.304688-3.71875-8.304688-8.304687zm0 0"/><path d="m320.59375 404.398438c0-4.589844 3.71875-8.308594 8.304688-8.308594h-52.5c-4.585938 0-8.304688 3.71875-8.304688 8.308594 0 4.585937 3.71875 8.304687 8.304688 8.304687h52.5c-4.585938 0-8.304688-3.71875-8.304688-8.304687zm0 0"/><path d="m320.59375 369.027344c0-4.589844 3.71875-8.308594 8.304688-8.308594h-52.5c-4.585938 0-8.304688 3.722656-8.304688 8.308594 0 4.585937 3.71875 8.304687 8.304688 8.304687h52.5c-4.585938 0-8.304688-3.71875-8.304688-8.304687zm0 0"/></g><path d="m60.425781 140.21875c-7.015625 0-13.855469.738281-20.453125 2.140625-27.160156 5.769531-31.238281 43.125-5.882812 54.449219 8.042968 3.59375 16.957031 5.589844 26.335937 5.589844 9.378907 0 18.292969-1.996094 26.335938-5.589844 25.355469-11.324219 21.277343-48.679688-5.882813-54.449219-6.597656-1.402344-13.4375-2.140625-20.453125-2.140625zm0 0" fill="#27a3ff"/><path d="m79.757812 187.914062c-19.980468-8.925781-21.671874-34.003906-8.207031-47.066406-3.652343-.410156-7.363281-.628906-11.125-.628906-7.011719 0-13.855469.734375-20.449219 2.136719-27.164062 5.773437-31.238281 43.125-5.886718 54.453125 8.042968 3.59375 16.957031 5.589844 26.335937 5.589844 9.382813 0 18.292969-1.996094 26.339844-5.589844 2.714844-1.214844 5.070313-2.738282 7.121094-4.480469-4.933594-.941406-9.667969-2.421875-14.128907-4.414063zm0 0" fill="#0080f4"/><path d="m84.601562 123.46875c0 13.355469-10.824218 24.179688-24.175781 24.179688-13.351562 0-24.175781-10.824219-24.175781-24.179688 0-13.351562 10.824219-24.175781 24.175781-24.175781 13.351563 0 24.175781 10.824219 24.175781 24.175781zm0 0" fill="#f9cfa9"/><path d="m52.25 117.691406c0-7.363281 3.296875-13.953125 8.488281-18.390625-.101562 0-.207031-.007812-.3125-.007812-13.351562 0-24.175781 10.824219-24.175781 24.175781 0 13.355469 10.824219 24.179688 24.175781 24.179688 5.988281 0 11.464844-2.183594 15.6875-5.789063-13.207031-.167969-23.863281-10.921875-23.863281-24.167969zm0 0" fill="#fbbc8d"/><path d="m60.671875 84.117188c29.445313.132812 53.359375 24.125 53.359375 53.601562 0 29.558594-24.046875 53.605469-53.605469 53.605469-19.9375 0-37.355469-10.949219-46.589843-27.140625-3.015626 8.578125-5.582032 17.367187-7.644532 26.351562 13.769532 14.132813 32.988282 22.9375 54.234375 22.9375 41.769531 0 75.753907-33.984375 75.753907-75.753906 0-35.046875-23.925782-64.601562-56.300782-73.210938-6.761718 6.171876-13.171875 12.722657-19.207031 19.609376zm0 0" fill="#fc7acd"/><path d="m86.234375 205.964844c-12.257813-6.03125-6.707031-18.15625-6.707031-18.15625h-.03125c-5.929688 2.265625-12.355469 3.515625-19.070313 3.515625-19.9375 0-37.355469-10.949219-46.589843-27.140625-3.015626 8.578125-5.582032 17.367187-7.644532 26.351562 13.769532 14.132813 32.988282 22.9375 54.234375 22.9375 9.867188 0 19.292969-1.917968 27.945313-5.363281-.4375-.90625-1.175782-1.671875-2.136719-2.144531zm0 0" fill="#f948b4"/><path d="m60.425781 267.328125c-21.320312 0-41.042969 6.816406-57.125 18.378906 11.304688 68.457031 50.976563 127.332031 106.546875 164.15625 29.03125-17 48.53125-48.511719 48.53125-84.582031 0-54.097656-43.855468-97.953125-97.953125-97.953125zm0 0" fill="#3d4ec6"/><path d="m94.1875 432.160156c-16.308594-2.859375-11.417969-18.171875-11.417969-18.171875l-26.550781-85.667969c-14.628906 0-12.832031-9.734374-11.742188-13.167968.207032-.65625-.132812-1.363282-.773437-1.613282-12.261719-4.71875-9.546875-14.953124-8.074219-18.667968.304688-.769532-.046875-1.636719-.800781-1.988282-13.582031-6.335937-6.960937-19.589843-6.707031-20.082031-8.929688 3.121094-17.277344 7.484375-24.816406 12.90625 10.285156 62.304688 44.082031 116.671875 91.972656 153.703125-.191406-2.238281-.015625-4.242187.164062-5.53125.117188-.816406-.4375-1.574218-1.253906-1.71875zm0 0" fill="#3342ae"/><path d="m60.425781 300.597656c-19.144531 0-36.339843 8.324219-48.183593 21.542969 13.375 40.636719 37.074218 76.582031 68.019531 104.707031 26.015625-8.375 44.84375-32.765625 44.84375-61.566406 0-35.722656-28.957031-64.683594-64.679688-64.683594zm0 0" fill="#fca60d"/><path d="m56.21875 328.320312c-14.628906 0-12.832031-9.734374-11.742188-13.167968.207032-.65625-.132812-1.363282-.773437-1.613282-5.023437-1.933593-7.53125-4.792968-8.640625-7.75-8.765625 3.746094-16.546875 9.351563-22.816406 16.351563 13.371094 40.636719 37.074218 76.582031 68.019531 104.707031 1.148437-.371094 2.28125-.78125 3.402344-1.214844-2.921875-5.285156-.894531-11.644531-.894531-11.644531zm0 0" fill="#f48a0b"/><path d="m80.878906 369.917969c-6.597656-1.402344-13.4375-2.136719-20.453125-2.136719-7.011719 0-13.855469.734375-20.449219 2.136719-1.816406.386719-3.519531.921875-5.128906 1.574219 12.390625 20.617187 27.714844 39.269531 45.417969 55.359374 2.21875-.714843 4.390625-1.539062 6.5-2.480468 25.351563-11.328125 21.273437-48.679688-5.886719-54.453125zm0 0" fill="#27a3ff"/><path d="m89.5625 417.980469c-20.582031-9.195313-24.355469-33.222657-13.910156-49.019531-4.960938-.777344-10.046875-1.179688-15.226563-1.179688-7.011719 0-13.855469.734375-20.449219 2.136719-1.816406.386719-3.519531.921875-5.128906 1.574219 12.390625 20.617187 27.714844 39.269531 45.417969 55.359374 2.21875-.714843 4.390625-1.539062 6.5-2.480468 2.773437-1.242188 5.175781-2.808594 7.253906-4.59375-1.507812-.558594-3-1.144532-4.457031-1.796875zm0 0" fill="#0080f4"/><path d="m84.601562 351.03125c0 13.355469-10.824218 24.179688-24.175781 24.179688-13.351562 0-24.175781-10.824219-24.175781-24.179688 0-13.351562 10.824219-24.175781 24.175781-24.175781 13.351563 0 24.175781 10.824219 24.175781 24.175781zm0 0" fill="#f9cfa9"/><path d="m75.425781 369.375c-13.351562 0-24.175781-10.824219-24.175781-24.175781 0-7.328125 3.265625-13.890625 8.414062-18.324219-13 .402344-23.414062 11.0625-23.414062 24.160156 0 13.351563 10.824219 24.175782 24.175781 24.175782 6.023438 0 11.527344-2.207032 15.761719-5.851563-.253906.003906-.503906.015625-.761719.015625zm0 0" fill="#fbbc8d"/><path d="m60.425781 289.527344c-20.023437 0-38.246093 7.820312-51.804687 20.554687 2.261718 8.292969 4.9375 16.410157 8.019531 24.328125 9.71875-13.742187 25.714844-22.738281 43.785156-22.738281 29.558594 0 53.609375 24.046875 53.609375 53.609375 0 25.976562-18.578125 47.6875-43.140625 52.570312 6.003907 6.070313 12.324219 11.824219 18.933594 17.242188 27.210937-11.503906 46.351563-38.464844 46.351563-69.816406 0-41.769532-33.984376-75.75-75.753907-75.75zm0 0" fill="#fecd0a"/><path d="m94.1875 432.160156c-16.308594-2.859375-11.417969-18.171875-11.417969-18.171875v-.003906c-3.75 1.726563-7.722656 3.042969-11.875 3.867187 6.003907 6.070313 12.324219 11.824219 18.933594 17.242188 1.777344-.75 3.519531-1.570312 5.226563-2.453125-.222657-.242187-.519532-.417969-.867188-.480469zm0 0" fill="#fca60d"/><path d="m44.367188 314.136719c-.144532-.261719-.367188-.480469-.667969-.597657-12.257813-4.71875-9.542969-14.953124-8.070313-18.664062.152344-.390625.140625-.804688-.011718-1.164062-10.144532 3.53125-19.320313 9.164062-26.996094 16.371093 2.261718 8.292969 4.9375 16.410157 8.019531 24.328125 6.710937-9.488281 16.414063-16.707031 27.726563-20.273437zm0 0" fill="#fca60d"/></svg>