<svg height="512pt" viewBox="0 -11 512 512" width="512pt" xmlns="http://www.w3.org/2000/svg"><path d="m280.988281 164.054688h195.308594c-33.433594-95.53125-124.355469-164.054688-231.296875-164.054688-41.0625 0-79.761719 10.117188-113.753906 27.972656zm0 0" fill="#fecd0a"/><path d="m253.714844 27.972656h-122.46875c-13.785156 7.238282-26.789063 15.757813-38.867188 25.386719l11.941406 110.695313h176.667969v-108.808594c0-15.039063-12.234375-27.273438-27.273437-27.273438zm0 0" fill="#2b3894"/><path d="m51.472656 395.238281v-181.683593h-49.46875c-1.320312 10.296874-2.003906 20.789062-2.003906 31.445312 0 56.621094 19.21875 108.75 51.472656 150.238281zm0 0" fill="#d5f1fe"/><path d="m427.988281 101.34375c-2.925781-2.929688-7.675781-2.929688-10.605469 0l-5.933593 5.933594v-27.199219c0-21.488281-17.480469-38.96875-38.964844-38.96875h-27.035156l5.933593-5.933594c2.929688-2.929687 2.929688-7.679687 0-10.605469-2.929687-2.929687-7.679687-2.929687-10.605468 0l-18.738282 18.734376c-2.925781 2.929687-2.929687 7.679687 0 10.609374l18.738282 18.734376c2.929687 2.929687 7.675781 2.929687 10.605468 0 2.929688-2.929688 2.929688-7.675782 0-10.605469l-5.933593-5.933594h27.035156c13.214844 0 23.964844 10.75 23.964844 23.964844v27.199219l-5.933594-5.933594c-2.925781-2.925782-7.675781-2.925782-10.605469 0-2.929687 2.929687-2.929687 7.679687 0 10.609375l18.734375 18.734375c2.929688 2.929687 7.679688 2.929687 10.609375 0l18.734375-18.734375c2.929688-2.929688 2.929688-7.679688 0-10.605469zm0 0" fill="#fcedca"/><path d="m1.859375 214.757812h49.613281v-24.933593c0-14.210938 11.5625-25.769531 25.773438-25.769531h179.105468v-85.878907h-190.757812c-34.226562 36.792969-57.277344 84.113281-63.734375 136.582031zm0 0" fill="#615df9"/><path d="m92.378906 78.175781h-26.785156c-34.226562 36.792969-57.277344 84.113281-63.734375 136.582031h49.613281v-24.933593c0-14.210938 11.5625-25.769531 25.773438-25.769531h15.132812zm0 0" fill="#3342ae"/><path d="m50.539062 263.984375h-28.269531c-5.523437 0-10-4.476563-10-10 0-5.519531 4.476563-10 10-10h28.269531c5.523438 0 10 4.480469 10 10 0 5.523437-4.476562 10-10 10zm0 0" fill="#8181fc"/><path d="m50.539062 295.425781h-31.269531c-4.140625 0-7.5-3.359375-7.5-7.5 0-4.144531 3.359375-7.5 7.5-7.5h31.269531c4.140626 0 7.5 3.355469 7.5 7.5 0 4.140625-3.359374 7.5-7.5 7.5zm0 0" fill="#11dfef"/><path d="m50.539062 324.363281h-31.269531c-4.140625 0-7.5-3.355469-7.5-7.5s3.359375-7.5 7.5-7.5h31.269531c4.140626 0 7.5 3.355469 7.5 7.5s-3.359374 7.5-7.5 7.5zm0 0" fill="#11dfef"/><path d="m50.539062 348.878906h-27.472656c3.210938 6.847656 6.726563 13.519532 10.535156 20h16.9375c5.523438 0 10-4.476562 10-10 0-5.523437-4.476562-10-10-10zm0 0" fill="#8181fc"/><path d="m484.726562 162.554688h-407.480468c-15.039063 0-27.273438 12.234374-27.273438 27.269531v203.457031c7.539063 9.902344 15.828125 19.191406 24.753906 27.828125l62.984376 44.175781c32.402343 15.816406 68.800781 24.714844 107.289062 24.714844h239.726562c15.039063 0 27.273438-12.234375 27.273438-27.273438v-272.902343c0-15.035157-12.234375-27.269531-27.273438-27.269531zm0 0" fill="#3d4ec6"/><path d="m74.722656 421.101562 54.378906 38.144532v-269.421875c0-15.035157 12.234376-27.269531 27.273438-27.269531h-79.128906c-15.039063 0-27.273438 12.234374-27.273438 27.269531v203.457031c7.535156 9.898438 15.820313 19.191406 24.75 27.820312zm0 0" fill="#2b3894"/><path d="m74.609375 421.023438c18.5 17.914062 39.8125 32.9375 63.210937 44.339843h346.90625c1.429688 0 2.636719-1.207031 2.636719-2.636719v-138.449218h-412.753906zm0 0" fill="#e6f7fe"/><path d="m129.105469 324.277344h-54.496094v96.746094c16.175781 15.664062 34.5 29.117187 54.496094 39.871093zm0 0" fill="#d5f1fe"/><path d="m74.609375 212.757812h412.753906v113.519532h-412.753906zm0 0" fill="#615df9"/><path d="m74.609375 212.757812h54.496094v113.519532h-54.496094zm0 0" fill="#3342ae"/><path d="m173.164062 372.390625h-38.671874c-5.519532 0-10-4.480469-10-10 0-5.523437 4.480468-10 10-10h38.671874c5.523438 0 10 4.476563 10 10 0 5.519531-4.476562 10-10 10zm0 0" fill="#aeaeff"/><path d="m207.164062 403.828125h-75.671874c-4.140626 0-7.5-3.359375-7.5-7.5 0-4.144531 3.359374-7.5 7.5-7.5h75.671874c4.140626 0 7.5 3.355469 7.5 7.5 0 4.140625-3.359374 7.5-7.5 7.5zm0 0" fill="#11dfef"/><path d="m207.164062 432.765625h-75.671874c-4.140626 0-7.5-3.355469-7.5-7.5 0-4.140625 3.359374-7.5 7.5-7.5h75.671874c4.140626 0 7.5 3.359375 7.5 7.5 0 4.144531-3.359374 7.5-7.5 7.5zm0 0" fill="#11dfef"/><path d="m284.820312 372.390625h-38.667968c-5.523438 0-10-4.480469-10-10 0-5.523437 4.476562-10 10-10h38.667968c5.523438 0 10 4.476563 10 10 0 5.519531-4.476562 10-10 10zm0 0" fill="#aeaeff"/><path d="m318.820312 403.828125h-75.667968c-4.144532 0-7.5-3.359375-7.5-7.5 0-4.144531 3.355468-7.5 7.5-7.5h75.667968c4.144532 0 7.5 3.355469 7.5 7.5 0 4.140625-3.355468 7.5-7.5 7.5zm0 0" fill="#11dfef"/><path d="m318.820312 432.765625h-75.667968c-4.144532 0-7.5-3.355469-7.5-7.5 0-4.140625 3.355468-7.5 7.5-7.5h75.667968c4.144532 0 7.5 3.359375 7.5 7.5 0 4.144531-3.355468 7.5-7.5 7.5zm0 0" fill="#11dfef"/><path d="m396.480469 372.390625h-38.671875c-5.523438 0-10-4.480469-10-10 0-5.523437 4.476562-10 10-10h38.671875c5.523437 0 10 4.476563 10 10 0 5.519531-4.476563 10-10 10zm0 0" fill="#aeaeff"/><g fill="#8181fc"><path d="m156.375 362.390625c0-5.523437 4.476562-10 10-10h-31.882812c-5.519532 0-10 4.476563-10 10 0 5.519531 4.480468 10 10 10h31.882812c-5.523438 0-10-4.480469-10-10zm0 0"/><path d="m268.03125 362.390625c0-5.523437 4.480469-10 10-10h-31.878906c-5.523438 0-10 4.476563-10 10 0 5.519531 4.476562 10 10 10h31.878906c-5.519531 0-10-4.480469-10-10zm0 0"/><path d="m379.691406 362.390625c0-5.523437 4.476563-10 10-10h-31.882812c-5.523438 0-10 4.476563-10 10 0 5.519531 4.476562 10 10 10h31.882812c-5.523437 0-10-4.480469-10-10zm0 0"/></g><path d="m430.480469 403.828125h-75.671875c-4.140625 0-7.5-3.359375-7.5-7.5 0-4.144531 3.359375-7.5 7.5-7.5h75.671875c4.140625 0 7.5 3.355469 7.5 7.5 0 4.140625-3.359375 7.5-7.5 7.5zm0 0" fill="#11dfef"/><path d="m430.480469 432.765625h-75.671875c-4.140625 0-7.5-3.355469-7.5-7.5 0-4.140625 3.359375-7.5 7.5-7.5h75.671875c4.140625 0 7.5 3.359375 7.5 7.5 0 4.144531-3.359375 7.5-7.5 7.5zm0 0" fill="#11dfef"/><path d="m253.714844 52.609375h-160.414063c-10.601562 8.367187-20.492187 17.589844-29.570312 27.566406h192.617187v-24.929687c0-1.429688-1.203125-2.636719-2.632812-2.636719zm0 0" fill="#d5f1fe"/><path d="m92.378906 53.351562c-10.246094 8.171876-19.832031 17.136719-28.648437 26.824219h28.648437zm0 0" fill="#11dfef"/><path d="m484.726562 187.191406h-407.480468c-1.429688 0-2.636719 1.207032-2.636719 2.632813v24.933593h412.753906v-24.933593c0-1.425781-1.207031-2.632813-2.636719-2.632813zm0 0" fill="#d5f1fe"/><path d="m74.609375 189.824219v24.933593h90.988281c0-15.226562-12.34375-27.566406-27.566406-27.566406h-60.785156c-1.429688 0-2.636719 1.207032-2.636719 2.632813zm0 0" fill="#11dfef"/><path d="m129.105469 189.824219c0-.886719.042969-1.765625.128906-2.632813h-51.988281c-1.429688 0-2.636719 1.207032-2.636719 2.632813v24.933593h54.496094zm0 0" fill="#0ac6e5"/><path d="m385.152344 59.746094c-1.230469-5.992188 3.347656-11.617188 9.46875-11.617188.046875 0 .09375.003906.140625.003906-6.320313-4.417968-14-7.023437-22.277344-7.023437h-27.035156l5.933593-5.933594c2.929688-2.929687 2.929688-7.679687 0-10.605469-2.929687-2.929687-7.679687-2.929687-10.609374 0l-18.734376 18.734376c-2.929687 2.929687-2.929687 7.679687 0 10.609374l18.734376 18.734376c2.929687 2.929687 7.679687 2.929687 10.609374 0 2.929688-2.929688 2.929688-7.675782 0-10.605469l-5.933593-5.933594h27.035156c4.648437 0 8.992187 1.335937 12.667969 3.636719zm0 0" fill="#fce395"/></svg>