<svg height="512pt" viewBox="0 -11 512 512" width="512pt" xmlns="http://www.w3.org/2000/svg"><path d="m245 0c-46.246094 0-89.492188 12.820312-126.394531 35.089844l-37.109375 392.355468c26.980468 24.195313 59.359375 42.492188 95.105468 52.871094v-.003906l130.667969 1.691406c105.152344-27.550781 182.730469-123.214844 182.730469-237.003906 0-135.308594-109.691406-245-245-245zm0 0" fill="#27a3ff"/><path d="m303.695312 427.015625h-123.835937l-2.269531 43.371094c-.175782 3.328125-.511719 6.640625-.988282 9.925781 21.710938 6.296875 44.65625 9.6875 68.398438 9.6875 21.519531 0 42.386719-2.785156 62.269531-7.996094-.617187-3.824218-1.035156-7.6875-1.246093-11.574218zm0 0" fill="#86fdfb"/><path d="m201.011719 453.351562h81.550781c9.949219 0 18.675781 5.453126 23.277344 13.589844l-2.144532-39.925781h-123.835937l-2.085937 39.867187c4.609374-8.105468 13.316406-13.53125 23.238281-13.53125zm0 0" fill="#11dfef"/><path d="m491.644531 33.835938c-9.84375 0-226.078125 0-370.921875 0-32.652344 19.257812-60.449218 45.875-81.113281 77.566406l-21.621094 225.867187c4.601563 11.304688 10.015625 22.1875 16.183594 32.574219l207.660156-1.324219 270.167969 1.726563v-316.054688c0-11.195312-9.160156-20.355468-20.355469-20.355468zm0 0" fill="#2b3894"/><path d="m81.496094 62.574219c-16 14.347656-30.105469 30.757812-41.886719 48.828125l-21.621094 225.867187c4.601563 11.304688 10.015625 22.1875 16.183594 32.574219l47.324219-.300781zm0 0" fill="#232e7a"/><path d="m0 245c0 33.402344 6.695312 65.234375 18.796875 94.25h463.753906c.875 0 1.585938-.710938 1.585938-1.585938v-198.554687h-460.128907c-15.386718 32.050781-24.007812 67.960937-24.007812 105.890625zm0 0" fill="#e6f7fe"/><path d="m81.496094 139.109375h-57.488282c-15.386718 32.050781-24.007812 67.960937-24.007812 105.890625 0 33.402344 6.695312 65.234375 18.796875 94.25h62.699219zm0 0" fill="#86fdfb"/><path d="m83.34375 429.082031h408.300781c11.195313 0 20.355469-9.160156 20.355469-20.355469v-41.5625c-19.714844 0-340.097656 0-479.414062 0 13.449218 23.339844 30.648437 44.246094 50.757812 61.917969zm0 0" fill="#e6f7fe"/><path d="m81.496094 408.726562v-41.5625c-17.902344 0-34.394532 0-48.910156 0 13.449218 23.339844 30.648437 44.246094 50.753906 61.917969h18.511718c-11.195312 0-20.355468-9.160156-20.355468-20.355469zm0 0" fill="#86fdfb"/><path d="m255.765625 398.121094c0 7.695312-6.238281 13.933594-13.933594 13.933594-7.695312 0-13.929687-6.238282-13.929687-13.933594 0-7.695313 6.234375-13.929688 13.929687-13.929688 7.695313 0 13.933594 6.234375 13.933594 13.929688zm0 0" fill="#d5f1fe"/><path d="m22.953125 141.359375h461.183594v-31.726563h-443.355469c-6.695312 10.078126-12.660156 20.679688-17.828125 31.726563zm0 0" fill="#d5f1fe"/><path d="m481.675781 61.699219h-399.210937c-16.078125 14.265625-30.265625 30.613281-42.140625 48.621093h443.8125v-46.160156c0-1.335937-1.125-2.460937-2.460938-2.460937zm0 0" fill="#615df9"/><path d="m81.496094 62.585938c-15.675782 14.058593-29.535156 30.09375-41.171875 47.734374h41.171875zm0 0" fill="#3d4ec6"/><path d="m70.914062 94.449219c-4.617187 0-8.445312-3.722657-8.445312-8.441407 0-5.261718 4.828125-9.3125 10.101562-8.277343 4.0625.863281 6.789063 4.308593 6.789063 8.277343 0 4.707032-3.828125 8.441407-8.445313 8.441407zm0 0" fill="#39df74"/><path d="m336.804688 94.453125h-234.820313c-4.664063 0-8.445313-3.777344-8.445313-8.441406 0-4.664063 3.78125-8.445313 8.445313-8.445313h234.820313c4.664062 0 8.445312 3.78125 8.445312 8.445313 0 4.664062-3.777344 8.441406-8.445312 8.441406zm0 0" fill="#aeaeff"/><path d="m289.0625 86.011719c0-4.664063 3.78125-8.445313 8.445312-8.445313h-195.523437c-4.664063 0-8.445313 3.78125-8.445313 8.445313 0 4.664062 3.78125 8.441406 8.445313 8.441406h195.523437c-4.664062 0-8.445312-3.777344-8.445312-8.441406zm0 0" fill="#8181fc"/><path d="m450.851562 94.453125h-79.699218c-4.664063 0-8.445313-3.777344-8.445313-8.441406 0-4.664063 3.78125-8.445313 8.445313-8.445313h79.699218c4.664063 0 8.445313 3.78125 8.445313 8.445313 0 4.664062-3.78125 8.441406-8.445313 8.441406zm0 0" fill="#aeaeff"/><path d="m70.601562 109.632812h-29.820312c-6.695312 10.078126-12.660156 20.679688-17.824219 31.726563h79.027344v-.34375c0-17.332031-14.050781-31.382813-31.382813-31.382813zm0 0" fill="#11dfef"/><path d="m81.496094 111.578125c-3.394532-1.257813-7.0625-1.945313-10.894532-1.945313h-29.820312c-6.695312 10.078126-12.660156 20.679688-17.824219 31.730469h58.539063zm0 0" fill="#0ac6e5"/><path d="m469.046875 271.484375c-4.394531-4.398437-4.394531-11.53125.003906-15.925781l15.765625-15.765625-15.765625-15.765625c-4.398437-4.398438-4.398437-11.527344 0-15.925782 4.394531-4.394531 11.527344-4.394531 15.921875 0l23.730469 23.726563c4.394531 4.398437 4.398437 11.53125 0 15.925781l-23.730469 23.726563c-4.398437 4.402343-11.527344 4.398437-15.925781.003906zm0 0" fill="#8181fc"/><path d="m140.929688 167.59375h-89.257813c-4.367187 0-7.9375 3.570312-7.9375 7.933594v28.8125c5.464844-2.621094 11.996094-4.503906 19.804687-4.578125 10.210938-.101563 22.511719 3.011719 35.324219 13.527343.851563.695313 1.695313 1.347657 2.535157 1.976563-.097657.699219-.152344 1.410156-.152344 2.136719 0 8.496094 6.914062 15.410156 15.410156 15.410156 5.625 0 10.554688-3.03125 13.242188-7.546875 7.277343-.207031 13.699218-2.449219 18.96875-5.253906v-44.480469c0-4.367188-3.570313-7.9375-7.9375-7.9375zm0 0" fill="#4fbbff"/><path d="m51.671875 167.59375c-4.367187 0-7.9375 3.570312-7.9375 7.933594v28.8125c5.464844-2.621094 11.996094-4.503906 19.804687-4.578125 4.886719-.046875 10.25.652343 15.914063 2.53125.777344-1.429688.785156-3.183594-.011719-4.675781-9.167968-17.113282 2.054688-30.023438 2.054688-30.023438zm0 0" fill="#27a3ff"/><path d="m129.898438 223.265625c-2.6875 4.515625-7.617188 7.546875-13.242188 7.546875-8.496094 0-15.410156-6.914062-15.410156-15.410156 0-.726563.054687-1.4375.152344-2.140625-.839844-.625-1.683594-1.277344-2.535157-1.976563-12.816406-10.515625-25.113281-13.625-35.324219-13.527344-7.808593.078126-14.339843 1.960938-19.804687 4.582032v40.347656l18.765625-18.761719c4.765625-4.769531 12.496094-4.769531 17.261719 0l31.578125 31.574219c1.886718 1.886719 4.941406 1.886719 6.828125 0l7.664062-7.664062c4.316407-4.316407 11.3125-4.316407 15.628907 0l7.40625 7.40625v-37.230469c-5.269532 2.804687-11.691407 5.046875-18.96875 5.253906zm0 0" fill="#27a3ff"/><path d="m76.351562 221.535156c.535157-1.167968.578126-2.515625.113282-3.734375-2.75-7.207031-.070313-11.980469 2.308594-14.539062.734374-.785157 1.148437-1.769531 1.242187-2.785157-5.875-2.027343-11.429687-2.765624-16.476563-2.71875-7.808593.078126-14.339843 1.960938-19.804687 4.582032v40.347656l18.765625-18.761719c3.746094-3.75 9.320312-4.535156 13.851562-2.390625zm0 0" fill="#0080f4"/><path d="m141.457031 245.835938c-4.3125-4.316407-11.308593-4.316407-15.625 0l-7.664062 7.664062c-1.886719 1.886719-4.945313 1.886719-6.828125 0l-31.578125-31.574219c-4.765625-4.769531-12.496094-4.769531-17.261719 0l-18.765625 18.761719v38.554688c15.273437-9.507813 31.800781-15.441407 56.855469 3.855468 20.570312 15.847656 37.050781 10.316406 48.273437 1.058594v-30.910156zm0 0" fill="#a2ec00"/><path d="m76.019531 222.148438c.476563-.730469.722657-1.570313.753907-2.417969-4.597657-2.398438-10.410157-1.667969-14.273438 2.195312l-18.765625 18.765625v38.550782c10.582031-6.589844 21.769531-11.453126 35.976563-7.402344 1.003906-.9375 1.785156-1.453125 1.785156-1.453125s13.566406-6.773438-1.433594-21.773438c-11.546875-11.546875-6.828125-22.179687-4.042969-26.464843zm0 0" fill="#00c82f"/><path d="m100.589844 281.097656c-25.054688-19.296875-41.582032-13.363281-56.855469-3.859375v26.816407c0 4.367187 3.570313 7.9375 7.9375 7.9375h89.257813c4.367187 0 7.9375-3.570313 7.9375-7.9375v-21.898438c-11.226563 9.253906-27.703126 14.789062-48.277344-1.058594zm0 0" fill="#00c82f"/><path d="m83.394531 293.113281c-16.984375-12.816406-1.929687-22.707031-1.898437-22.726562-15.0625-5-26.738282-.007813-37.761719 6.855469v26.816406c0 4.363281 3.570313 7.933594 7.9375 7.933594h30.027344c6.160156-5.433594 10.1875-12.46875 1.695312-18.878907zm0 0" fill="#02ad22"/><path d="m132.722656 215.402344c0 8.875-7.195312 16.066406-16.066406 16.066406s-16.066406-7.191406-16.066406-16.066406c0-8.871094 7.195312-16.0625 16.066406-16.0625s16.066406 7.191406 16.066406 16.0625zm0 0" fill="#fecd0a"/><path d="m113.449219 199.660156c-7.335938 1.484375-12.859375 7.96875-12.859375 15.742188 0 8.875 7.191406 16.066406 16.066406 16.066406 6.164062 0 11.507812-3.476562 14.203125-8.574219-13.40625 2.714844-23.664063-11.40625-17.410156-23.234375zm0 0" fill="#fca60d"/><path d="m286.464844 167.59375h-89.261719c-4.363281 0-7.933594 3.570312-7.933594 7.933594v28.8125c5.460938-2.621094 11.992188-4.503906 19.804688-4.578125 10.207031-.101563 22.507812 3.011719 35.320312 13.527343.851563.695313 1.695313 1.347657 2.539063 1.976563-.097656.699219-.152344 1.410156-.152344 2.136719 0 8.496094 6.910156 15.410156 15.40625 15.410156 5.625 0 10.554688-3.03125 13.246094-7.546875 7.273437-.207031 13.695312-2.449219 18.964844-5.253906v-44.480469c0-4.367188-3.570313-7.9375-7.933594-7.9375zm0 0" fill="#4fbbff"/><path d="m197.203125 167.59375c-4.363281 0-7.933594 3.570312-7.933594 7.933594v28.8125c5.460938-2.621094 11.992188-4.503906 19.804688-4.578125 4.882812-.046875 10.246093.652343 15.914062 2.53125.777344-1.429688.785157-3.183594-.015625-4.675781-9.167968-17.113282 2.058594-30.023438 2.058594-30.023438zm0 0" fill="#27a3ff"/><path d="m275.433594 223.265625c-2.691406 4.515625-7.621094 7.546875-13.246094 7.546875-8.496094 0-15.40625-6.914062-15.40625-15.410156 0-.726563.054688-1.4375.152344-2.140625-.84375-.625-1.6875-1.277344-2.539063-1.976563-12.8125-10.515625-25.113281-13.625-35.320312-13.527344-7.8125.078126-14.339844 1.960938-19.804688 4.582032v40.347656l18.765625-18.761719c4.765625-4.769531 12.496094-4.769531 17.261719 0l31.578125 31.574219c1.886719 1.886719 4.941406 1.886719 6.828125 0l7.664063-7.664062c4.316406-4.316407 11.3125-4.316407 15.625 0l7.410156 7.40625v-37.230469c-5.273438 2.804687-11.695313 5.046875-18.96875 5.253906zm0 0" fill="#27a3ff"/><path d="m221.886719 221.535156c.53125-1.167968.574219-2.515625.109375-3.734375-2.746094-7.207031-.066406-11.980469 2.3125-14.539062.730468-.785157 1.144531-1.769531 1.242187-2.785157-5.875-2.027343-11.433593-2.765624-16.476562-2.71875-7.8125.078126-14.339844 1.960938-19.804688 4.582032v40.347656l18.765625-18.761719c3.746094-3.75 9.320313-4.535156 13.851563-2.390625zm0 0" fill="#0080f4"/><path d="m286.992188 245.835938c-4.316407-4.316407-11.3125-4.316407-15.628907 0l-7.664062 7.664062c-1.882813 1.886719-4.941407 1.886719-6.828125 0l-31.574219-31.574219c-4.769531-4.769531-12.496094-4.769531-17.265625 0l-18.765625 18.761719v38.554688c15.273437-9.507813 31.800781-15.441407 56.855469 3.855468 20.574218 15.847656 37.050781 10.316406 48.277344 1.058594v-30.910156zm0 0" fill="#a2ec00"/><path d="m221.554688 222.148438c.472656-.730469.722656-1.570313.753906-2.417969-4.601563-2.398438-10.410156-1.667969-14.277344 2.195312l-18.761719 18.765625v38.550782c10.582031-6.589844 21.769531-11.453126 35.976563-7.402344 1.003906-.9375 1.785156-1.453125 1.785156-1.453125s13.566406-6.773438-1.433594-21.773438c-11.546875-11.546875-6.828125-22.179687-4.042968-26.464843zm0 0" fill="#00c82f"/><path d="m246.121094 281.097656c-25.050782-19.296875-41.582032-13.363281-56.851563-3.859375v26.816407c0 4.367187 3.570313 7.9375 7.933594 7.9375h89.261719c4.363281 0 7.933594-3.570313 7.933594-7.9375v-21.898438c-11.222657 9.253906-27.703126 14.789062-48.277344-1.058594zm0 0" fill="#00c82f"/><path d="m228.929688 293.113281c-16.984376-12.816406-1.933594-22.707031-1.902344-22.726562-15.0625-5-26.738282-.007813-37.757813 6.855469v26.816406c0 4.363281 3.570313 7.933594 7.933594 7.933594h30.027344c6.160156-5.433594 10.191406-12.46875 1.699219-18.878907zm0 0" fill="#02ad22"/><path d="m278.253906 215.402344c0 8.875-7.191406 16.066406-16.066406 16.066406-8.871094 0-16.0625-7.191406-16.0625-16.066406 0-8.871094 7.191406-16.0625 16.0625-16.0625 8.875 0 16.066406 7.191406 16.066406 16.0625zm0 0" fill="#fecd0a"/><path d="m258.984375 199.660156c-7.339844 1.484375-12.863281 7.96875-12.863281 15.742188 0 8.875 7.195312 16.066406 16.066406 16.066406 6.164062 0 11.511719-3.476562 14.207031-8.574219-13.40625 2.714844-23.664062-11.40625-17.410156-23.234375zm0 0" fill="#fca60d"/><path d="m431.996094 167.59375h-89.261719c-4.363281 0-7.933594 3.570312-7.933594 7.933594v28.8125c5.464844-2.621094 11.996094-4.503906 19.804688-4.578125 10.210937-.101563 22.507812 3.011719 35.324219 13.527343.847656.695313 1.691406 1.347657 2.535156 1.976563-.097656.699219-.152344 1.410156-.152344 2.136719 0 8.496094 6.914062 15.410156 15.410156 15.410156 5.625 0 10.550782-3.03125 13.242188-7.546875 7.273437-.207031 13.695312-2.449219 18.964844-5.253906v-44.480469c.003906-4.367188-3.570313-7.9375-7.933594-7.9375zm0 0" fill="#4fbbff"/><path d="m342.734375 167.59375c-4.363281 0-7.933594 3.570312-7.933594 7.933594v28.8125c5.464844-2.621094 11.996094-4.503906 19.804688-4.578125 4.882812-.046875 10.246093.652343 15.914062 2.53125.777344-1.429688.785157-3.183594-.011719-4.675781-9.167968-17.113282 2.054688-30.023438 2.054688-30.023438zm0 0" fill="#27a3ff"/><path d="m420.964844 223.265625c-2.6875 4.515625-7.617188 7.546875-13.242188 7.546875-8.496094 0-15.410156-6.914062-15.410156-15.410156 0-.726563.054688-1.4375.152344-2.140625-.839844-.625-1.6875-1.277344-2.535156-1.976563-12.816407-10.515625-25.113282-13.625-35.324219-13.527344-7.808594.078126-14.339844 1.960938-19.804688 4.582032v40.347656l18.765625-18.761719c4.769532-4.769531 12.496094-4.769531 17.261719 0l31.578125 31.574219c1.886719 1.886719 4.945312 1.886719 6.828125 0l7.664063-7.664062c4.316406-4.316407 11.3125-4.316407 15.628906 0l7.40625 7.40625v-37.230469c-5.273438 2.804687-11.695313 5.046875-18.96875 5.253906zm0 0" fill="#27a3ff"/><path d="m367.417969 221.535156c.53125-1.167968.574219-2.515625.113281-3.734375-2.75-7.207031-.070312-11.980469 2.308594-14.539062.734375-.785157 1.144531-1.769531 1.242187-2.785157-5.875-2.027343-11.429687-2.765624-16.476562-2.71875-7.808594.078126-14.339844 1.960938-19.804688 4.582032v40.347656l18.765625-18.761719c3.746094-3.75 9.320313-4.535156 13.851563-2.390625zm0 0" fill="#0080f4"/><path d="m432.523438 245.835938c-4.3125-4.316407-11.308594-4.316407-15.625 0l-7.664063 7.664062c-1.886719 1.886719-4.945313 1.886719-6.828125 0l-31.578125-31.574219c-4.765625-4.769531-12.496094-4.769531-17.261719 0l-18.765625 18.761719v38.554688c15.273438-9.507813 31.800781-15.441407 56.855469 3.855468 20.574219 15.847656 37.046875 10.316406 48.273438 1.058594v-30.910156zm0 0" fill="#a2ec00"/><path d="m367.085938 222.148438c.476562-.730469.722656-1.570313.753906-2.417969-4.601563-2.398438-10.410156-1.667969-14.273438 2.195312l-18.765625 18.765625v38.550782c10.582031-6.589844 21.769531-11.453126 35.976563-7.402344 1.003906-.9375 1.785156-1.453125 1.785156-1.453125s13.566406-6.773438-1.433594-21.773438c-11.546875-11.546875-6.828125-22.179687-4.042968-26.464843zm0 0" fill="#00c82f"/><path d="m391.65625 281.097656c-25.054688-19.296875-41.582031-13.363281-56.855469-3.859375v26.816407c0 4.367187 3.570313 7.9375 7.9375 7.9375h89.257813c4.367187 0 7.9375-3.570313 7.9375-7.9375v-21.898438c-11.226563 9.253906-27.703125 14.789062-48.277344-1.058594zm0 0" fill="#00c82f"/><path d="m374.460938 293.113281c-16.984376-12.816406-1.929688-22.707031-1.898438-22.726562-15.0625-5-26.742188-.007813-37.761719 6.855469v26.816406c0 4.363281 3.570313 7.933594 7.933594 7.933594h30.03125c6.160156-5.433594 10.1875-12.46875 1.695313-18.878907zm0 0" fill="#02ad22"/><path d="m423.785156 215.402344c0 8.875-7.191406 16.066406-16.0625 16.066406-8.875 0-16.066406-7.191406-16.066406-16.066406 0-8.871094 7.191406-16.0625 16.066406-16.0625 8.871094 0 16.0625 7.191406 16.0625 16.0625zm0 0" fill="#fecd0a"/><path d="m404.515625 199.660156c-7.335937 1.484375-12.859375 7.96875-12.859375 15.742188 0 8.875 7.195312 16.066406 16.066406 16.066406 6.164063 0 11.511719-3.476562 14.203125-8.574219-13.40625 2.714844-23.664062-11.40625-17.410156-23.234375zm0 0" fill="#fca60d"/></svg>