<svg height="512pt" viewBox="-11 0 512 512" width="512pt" xmlns="http://www.w3.org/2000/svg"><path d="m56.210938 423.152344c30.378906 36.691406 71.257812 64.367187 118.023437 78.453125l141.519531.003906c46.773438-14.085937 87.652344-41.761719 118.035156-78.457031l52.273438-112.203125c2.582031-14.257813 3.9375-28.945313 3.9375-43.949219 0-135.308594-109.691406-245-245-245s-245 109.691406-245 245c0 15.003906 1.355469 29.691406 3.9375 43.949219zm0 0" fill="#fecd0a"/><path d="m303.921875 421.3125h-117.949219l-2.160156 41.589844c-.699219 13.417968-3.957031 26.558594-9.578125 38.703125 22.40625 6.75 46.160156 10.394531 70.765625 10.394531 24.601562 0 48.351562-3.640625 70.753906-10.390625-5.628906-12.132813-8.902344-25.257813-9.617187-38.667969zm0 0" fill="#86fdfb"/><path d="m303.921875 421.3125h-117.949219l-2.160156 41.589844c-.699219 13.417968-3.957031 26.558594-9.578125 38.703125 22.40625 6.75 46.160156 10.394531 70.765625 10.394531 24.601562 0 48.351562-3.640625 70.753906-10.390625-5.628906-12.132813-8.902344-25.257813-9.617187-38.667969zm0 0" fill="#86fdfb"/><path d="m203.316406 460.703125h83.285156c8.457032 0 15.949219 4.296875 20.359376 10.867187-.390626-2.859374-.671876-5.734374-.824219-8.628906l-2.21875-41.628906h-117.945313l-2.160156 41.589844c-.152344 2.882812-.425781 5.75-.808594 8.601562 4.414063-6.535156 11.886719-10.800781 20.3125-10.800781zm0 0" fill="#11dfef"/><path d="m467.898438 70.488281c-13.050782 0-432.714844 0-445.796876 0-9.992187 0-18.164062 8.171875-18.164062 18.160157v222.300781c3.789062 20.910156 10.238281 40.886719 18.96875 59.585937l222.09375-1.421875 222.09375 1.421875c8.730469-18.699218 15.183594-38.675781 18.96875-59.585937v-222.300781c0-9.988282-8.171875-18.160157-18.164062-18.160157zm0 0" fill="#2b3894"/><path d="m137.242188 76.609375c0-2.234375.628906-4.328125 1.707031-6.125-63.789063 0-112.523438 0-116.847657 0-9.992187 0-18.164062 8.175781-18.164062 18.164063v222.300781c3.785156 20.910156 10.238281 40.886719 18.96875 59.585937l114.335938-.730468zm0 0" fill="#232e7a"/><path d="m56.210938 423.152344h377.578124c13.828126-16.695313 25.484376-35.253906 34.53125-55.246094-76.511718 0-366.878906 0-446.640624 0 9.046874 19.992188 20.703124 38.550781 34.53125 55.246094zm0 0" fill="#e6f7fe"/><g fill="#d5f1fe"><path d="m137.242188 403.371094v-35.464844c-49.671876 0-91.890626 0-115.5625 0 9.046874 19.992188 20.703124 38.550781 34.527343 55.246094h95.484375c-8.355468-2.691406-14.449218-10.554688-14.449218-19.78125zm0 0"/><path d="m257.429688 395.53125c0 6.863281-5.5625 12.429688-12.429688 12.429688s-12.429688-5.566407-12.429688-12.429688c0-6.867188 5.5625-12.433594 12.429688-12.433594s12.429688 5.566406 12.429688 12.433594zm0 0"/><path d="m459.003906 95.347656h-428.007812c-1.191406 0-2.195313 1.007813-2.195313 2.195313v68.886719 175.152343c0 .785157.632813 1.417969 1.414063 1.417969h429.570312c.78125 0 1.414063-.636719 1.414063-1.417969 0-28.429687 0-216.558593 0-244.039062 0-1.1875-1.003907-2.195313-2.195313-2.195313zm0 0"/></g><path d="m76.542969 341.582031v-175.152343c0-12.292969 0-50.316407 0-68.886719 0-1.191407 1.003906-2.195313 2.195312-2.195313h-47.742187c-1.191406 0-2.195313 1.007813-2.195313 2.195313v68.886719 175.152343c0 .785157.632813 1.417969 1.414063 1.417969h47.746094c-.785157 0-1.417969-.632812-1.417969-1.417969zm0 0" fill="#0ac6e5"/><path d="m373.867188 54.378906h-303.78125v288.621094h352.214843v-244.230469c-25.386719 0-46.277343-19.554687-48.433593-44.390625zm0 0" fill="#e6f7fe"/><path d="m70.085938 54.378906h67.160156v288.621094h-67.160156zm0 0" fill="#d5f1fe"/><path d="m373.671875 50.136719c0-19.042969 11.007813-35.554688 26.988281-43.53125h-322.175781c-4.636719 0-8.398437 3.757812-8.398437 8.398437v40.382813h303.871093c-.1875-1.726563-.285156-3.476563-.285156-5.25zm0 0" fill="#615df9"/><path d="m137.246094 18.605469c0-6.601563 5.398437-12 12-12h-70.761719c-4.636719 0-8.398437 3.757812-8.398437 8.398437v40.382813h67.160156zm0 0" fill="#3342ae"/><path d="m135.277344 40.375c-4.75-.964844-8.078125-5.113281-8.078125-9.847656 0-4.757813 3.320312-8.882813 8.078125-9.855469 6.980468-1.40625 13.21875 4.78125 11.816406 11.816406-1.117188 5.472657-6.398438 8.96875-11.816406 7.886719zm0 0" fill="#fecd0a"/><path d="m106.601562 40.574219c-5.453124 0-10.046874-4.433594-10.046874-10.046875 0-6.460938 5.9375-11.078125 12.003906-9.855469 4.929687 1.007813 8.089844 5.277344 8.089844 9.855469 0 5.503906-4.519532 10.046875-10.046876 10.046875zm0 0" fill="#f948b4"/><path d="m167.890625 40.574219c-5.460937 0-10.046875-4.445313-10.046875-10.046875 0-6.433594 5.914062-11.082032 12.007812-9.855469 4.902344 1 8.085938 5.25 8.085938 9.855469 0 5.558594-4.554688 10.046875-10.046875 10.046875zm0 0" fill="#39df74"/><path d="m379.144531 38.53125h-38.796875c-4.160156 0-7.535156-3.375-7.535156-7.539062 0-4.160157 3.375-7.535157 7.535156-7.535157h38.796875c4.160157 0 7.535157 3.375 7.535157 7.535157 0 4.164062-3.375 7.539062-7.535157 7.539062zm0 0" fill="#aeaeff"/><path d="m302.492188 38.53125h-94.773438c-4.160156 0-7.535156-3.375-7.535156-7.539062 0-4.160157 3.375-7.535157 7.535156-7.535157h94.773438c4.160156 0 7.535156 3.375 7.535156 7.535157 0 4.164062-3.375 7.539062-7.535156 7.539062zm0 0" fill="#aeaeff"/><path d="m275.484375 30.992188c0-4.160157 3.371094-7.535157 7.535156-7.535157h-75.300781c-4.160156 0-7.535156 3.375-7.535156 7.535157 0 4.164062 3.375 7.539062 7.535156 7.539062h75.300781c-4.164062 0-7.535156-3.375-7.535156-7.539062zm0 0" fill="#8181fc"/><path d="m147.191406 107.8125h-19.898437c-4.160157 0-7.535157-3.375-7.535157-7.539062 0-4.160157 3.375-7.535157 7.535157-7.535157h19.898437c4.160156 0 7.535156 3.375 7.535156 7.535157 0 4.164062-3.375 7.539062-7.535156 7.539062zm0 0" fill="#4fbbff"/><path d="m147.191406 143.136719h-19.898437c-4.160157 0-7.535157-3.375-7.535157-7.535157 0-4.164062 3.375-7.539062 7.535157-7.539062h19.898437c4.160156 0 7.535156 3.375 7.535156 7.539062 0 4.160157-3.375 7.535157-7.535156 7.535157zm0 0" fill="#11dfef"/><path d="m147.191406 178.460938h-19.898437c-4.160157 0-7.535157-3.371094-7.535157-7.535157 0-4.164062 3.375-7.535156 7.535157-7.535156h19.898437c4.160156 0 7.535156 3.371094 7.535156 7.535156 0 4.164063-3.375 7.535157-7.535156 7.535157zm0 0" fill="#4fbbff"/><path d="m147.191406 213.785156h-19.898437c-4.160157 0-7.535157-3.371094-7.535157-7.535156 0-4.160156 3.375-7.535156 7.535157-7.535156h19.898437c4.160156 0 7.535156 3.375 7.535156 7.535156 0 4.164062-3.375 7.535156-7.535156 7.535156zm0 0" fill="#fecd0a"/><path d="m147.191406 249.113281h-19.898437c-4.160157 0-7.535157-3.375-7.535157-7.539062 0-4.160157 3.375-7.535157 7.535157-7.535157h19.898437c4.160156 0 7.535156 3.375 7.535156 7.535157 0 4.164062-3.375 7.539062-7.535156 7.539062zm0 0" fill="#11dfef"/><path d="m147.191406 284.4375h-19.898437c-4.160157 0-7.535157-3.375-7.535157-7.535156 0-4.164063 3.375-7.539063 7.535157-7.539063h19.898437c4.160156 0 7.535156 3.375 7.535156 7.539063 0 4.160156-3.375 7.535156-7.535156 7.535156zm0 0" fill="#fecd0a"/><path d="m147.191406 319.761719h-19.898437c-4.160157 0-7.535157-3.371094-7.535157-7.535157 0-4.164062 3.375-7.535156 7.535157-7.535156h19.898437c4.160156 0 7.535156 3.371094 7.535156 7.535156 0 4.164063-3.375 7.535157-7.535156 7.535157zm0 0" fill="#11dfef"/><path d="m238.402344 107.8125h-51.277344c-4.160156 0-7.535156-3.375-7.535156-7.539062 0-4.160157 3.375-7.535157 7.535156-7.535157h51.277344c4.164062 0 7.539062 3.375 7.539062 7.535157 0 4.164062-3.375 7.539062-7.539062 7.539062zm0 0" fill="#11dfef"/><path d="m207.847656 143.136719h-20.722656c-4.160156 0-7.535156-3.375-7.535156-7.535157 0-4.164062 3.375-7.539062 7.535156-7.539062h20.722656c4.160156 0 7.535156 3.375 7.535156 7.539062 0 4.160157-3.375 7.535157-7.535156 7.535157zm0 0" fill="#fecd0a"/><path d="m240.355469 178.460938h-53.230469c-4.160156 0-7.535156-3.371094-7.535156-7.535157 0-4.164062 3.375-7.535156 7.535156-7.535156h53.230469c4.160156 0 7.535156 3.371094 7.535156 7.535156 0 4.164063-3.375 7.535157-7.535156 7.535157zm0 0" fill="#11dfef"/><path d="m240.355469 213.785156h-24.695313c-4.160156 0-7.535156-3.371094-7.535156-7.535156 0-4.160156 3.375-7.535156 7.535156-7.535156h24.695313c4.160156 0 7.535156 3.375 7.535156 7.535156 0 4.164062-3.375 7.535156-7.535156 7.535156zm0 0" fill="#4fbbff"/><path d="m240.355469 249.113281h-18.242188c-4.160156 0-7.535156-3.375-7.535156-7.539062 0-4.160157 3.375-7.535157 7.535156-7.535157h18.242188c4.160156 0 7.535156 3.375 7.535156 7.535157 0 4.164062-3.375 7.539062-7.535156 7.539062zm0 0" fill="#11dfef"/><path d="m240.355469 284.4375h-53.230469c-4.160156 0-7.535156-3.375-7.535156-7.535156 0-4.164063 3.375-7.539063 7.535156-7.539063h53.230469c4.160156 0 7.535156 3.375 7.535156 7.539063 0 4.160156-3.375 7.535156-7.535156 7.535156zm0 0" fill="#4fbbff"/><path d="m240.355469 319.761719h-53.230469c-4.160156 0-7.535156-3.371094-7.535156-7.535157 0-4.164062 3.375-7.535156 7.535156-7.535156h53.230469c4.160156 0 7.535156 3.371094 7.535156 7.535156 0 4.164063-3.375 7.535157-7.535156 7.535157zm0 0" fill="#fecd0a"/><path d="m306.761719 213.785156h-28.039063c-4.160156 0-7.535156-3.371094-7.535156-7.535156 0-4.160156 3.375-7.535156 7.535156-7.535156h28.039063c4.164062 0 7.539062 3.375 7.539062 7.535156 0 4.164062-3.375 7.535156-7.539062 7.535156zm0 0" fill="#fecd0a"/><path d="m363.835938 249.113281h-85.113282c-4.160156 0-7.535156-3.375-7.535156-7.539062 0-4.160157 3.375-7.535157 7.535156-7.535157h85.113282c4.160156 0 7.535156 3.375 7.535156 7.535157 0 4.164062-3.375 7.539062-7.535156 7.539062zm0 0" fill="#11dfef"/><path d="m339 284.4375h-60.277344c-4.164062 0-7.535156-3.375-7.535156-7.535156 0-4.164063 3.371094-7.539063 7.535156-7.539063h60.277344c4.164062 0 7.535156 3.375 7.535156 7.539063 0 4.160156-3.371094 7.535156-7.535156 7.535156zm0 0" fill="#11dfef"/><path d="m472.4375 50.136719c0 27.691406-22.445312 50.140625-50.136719 50.140625-27.691406 0-50.140625-22.449219-50.140625-50.140625 0-27.6875 22.449219-50.136719 50.140625-50.136719 27.691407 0 50.136719 22.449219 50.136719 50.136719zm0 0" fill="#00c82f"/><path d="m452.652344 90.035156c-31.601563-.003906-35.429688-21.503906-35.324219-32.484375.035156-3.792969-1.3125-7.507812-3.90625-10.277343-16.820313-17.972657-4.539063-45.222657-4.425781-45.472657-21.230469 5.828125-36.832032 25.253907-36.832032 48.335938 0 27.691406 22.445313 50.140625 50.136719 50.140625 11.410157-.003906 21.925781-3.820313 30.351563-10.242188zm0 0" fill="#02ad22"/><path d="m410.757812 72.570312-14.722656-14.714843c-3.921875-3.925781-3.921875-10.289063 0-14.210938 3.925782-3.925781 10.289063-3.925781 14.210938 0l7.613281 7.613281 17.648437-17.648437c3.925782-3.925781 10.289063-3.925781 14.210938 0 3.921875 3.921875 3.921875 10.285156 0 14.207031l-24.753906 24.753906c-3.921875 3.925782-10.285156 3.925782-14.207032 0zm0 0" fill="#e6f7fe"/></svg>