<svg height="512pt" viewBox="-11 0 512 512.001" width="512pt" xmlns="http://www.w3.org/2000/svg"><path d="m245 22c-135.308594 0-245 109.691406-245 245 0 104.84375 65.863281 194.289062 158.46875 229.261719l132.660156 11.382812c113.253906-21.578125 198.871094-121.105469 198.871094-240.644531 0-135.308594-109.691406-245-245-245zm0 0" fill="#2b3894"/><path d="m441.90625 0h-393.8125c-16.546875 0-29.957031 13.414062-29.957031 29.960938v329.695312c0 16.546875 13.414062 29.960938 29.957031 29.960938h393.8125c16.546875 0 29.960938-13.414063 29.960938-29.960938v-329.695312c0-16.546876-13.414063-29.960938-29.960938-29.960938zm0 0" fill="#e6f7fe"/><path d="m98.585938 375.195312c0-10.300781 8.277343-18.660156 18.542968-18.816406v-186.609375c-11.835937-1.328125-21.042968-11.363281-21.042968-23.554687 0-12.195313 9.207031-22.230469 21.042968-23.558594v-89.058594c-10.265625-.160156-18.542968-8.519531-18.542968-18.820312 0-5.996094 2.816406-11.328125 7.179687-14.777344h-57.671875c-16.546875 0-29.957031 13.414062-29.957031 29.960938v329.695312c0 16.546875 13.410156 29.960938 29.957031 29.960938h57.226562c-4.113281-3.453126-6.734374-8.628907-6.734374-14.421876zm0 0" fill="#d5f1fe"/><path d="m215.628906 166.097656h-158c-5.265625 0-9.535156 4.265625-9.535156 9.535156v174.488282c0 5.269531 4.269531 9.535156 9.535156 9.535156h158c5.265625 0 9.535156-4.269531 9.535156-9.535156v-174.488282c-.003906-5.265624-4.269531-9.535156-9.535156-9.535156zm0 0" fill="#f948b4"/><path d="m97.429688 350.121094v-174.488282c0-5.265624 4.269531-9.535156 9.53125-9.535156h-49.332032c-5.265625 0-9.535156 4.269532-9.535156 9.535156v174.488282c0 5.269531 4.269531 9.535156 9.535156 9.535156h49.332032c-5.265626 0-9.53125-4.265625-9.53125-9.535156zm0 0" fill="#e00e8b"/><path d="m244.664062 222.308594c0 43.914062-35.597656 79.507812-79.507812 79.507812-43.914062 0-79.507812-35.59375-79.507812-79.507812 0-43.910156 35.59375-79.507813 79.507812-79.507813 43.910156 0 79.507812 35.597657 79.507812 79.507813zm0 0" fill="#fc9ddf"/><path d="m159.609375 206.433594c-14.121094-4.144532-15.980469-14.847656-15.601563-21.675782.1875-3.433593-1.851562-6.550781-5.039062-7.835937-18.1875-7.355469-9.347656-25.453125-9.160156-25.832031-26.167969 13.011718-44.160156 40.007812-44.160156 71.21875 0 43.910156 35.59375 79.507812 79.507812 79.507812v-87.839844c0-3.457031-2.230469-6.570312-5.546875-7.542968zm0 0" fill="#fc7acd"/><path d="m432.371094 29.960938h-157.996094c-5.265625 0-9.535156 4.269531-9.535156 9.535156v174.492187c0 5.265625 4.269531 9.535157 9.535156 9.535157h157.996094c5.265625 0 9.535156-4.269532 9.535156-9.535157v-174.492187c0-5.265625-4.269531-9.535156-9.535156-9.535156zm0 0" fill="#27a3ff"/><path d="m215.628906 29.960938h-158c-5.265625 0-9.535156 4.269531-9.535156 9.535156v77.710937c0 5.265625 4.269531 9.535157 9.535156 9.535157h158c5.265625 0 9.535156-4.269532 9.535156-9.535157v-77.710937c0-5.265625-4.269531-9.535156-9.535156-9.535156zm0 0" fill="#fecd0a"/><path d="m432.371094 262.878906h-158c-5.261719 0-9.53125 4.265625-9.53125 9.53125v77.710938c0 5.269531 4.269531 9.535156 9.53125 9.535156h158c5.265625 0 9.535156-4.269531 9.535156-9.535156v-77.710938c0-5.265625-4.269531-9.53125-9.535156-9.53125zm0 0" fill="#a2ec00"/><path d="m314.171875 213.988281v-174.492187c0-5.265625 4.269531-9.535156 9.535156-9.535156h-49.332031c-5.265625 0-9.535156 4.269531-9.535156 9.535156v174.492187c0 5.265625 4.269531 9.535157 9.535156 9.535157h49.332031c-5.265625 0-9.535156-4.269532-9.535156-9.535157zm0 0" fill="#0080f4"/><path d="m97.429688 117.207031v-77.710937c0-5.265625 4.269531-9.535156 9.53125-9.535156h-49.332032c-5.265625 0-9.535156 4.269531-9.535156 9.535156v77.710937c0 5.265625 4.269531 9.535157 9.535156 9.535157h49.332032c-5.265626 0-9.53125-4.269532-9.53125-9.535157zm0 0" fill="#fca60d"/><path d="m314.171875 350.121094v-77.710938c0-5.265625 4.269531-9.53125 9.535156-9.53125h-49.332031c-5.265625 0-9.535156 4.265625-9.535156 9.53125v77.710938c0 5.269531 4.269531 9.535156 9.535156 9.535156h49.332031c-5.265625 0-9.535156-4.265625-9.535156-9.535156zm0 0" fill="#00c82f"/><path d="m213.179688 222.308594c0 26.527344-21.5 48.027344-48.023438 48.027344-26.527344 0-48.027344-21.5-48.027344-48.027344 0-26.523438 21.5-48.023438 48.027344-48.023438 26.523438 0 48.023438 21.5 48.023438 48.023438zm0 0" fill="#fc7acd"/><path d="m159.609375 206.433594c-14.121094-4.144532-15.980469-14.847656-15.601563-21.675782.097657-1.78125-.414062-3.472656-1.367187-4.871093-15.175781 8.070312-25.511719 24.035156-25.511719 42.421875 0 26.527344 21.5 48.027344 48.023438 48.027344v-56.359376c.003906-3.457031-2.226563-6.570312-5.542969-7.542968zm0 0" fill="#f948b4"/><path d="m290.320312 289.050781h-1.878906c-10.867187 0-19.761718 8.890625-19.761718 19.761719v-13.84375c0-11.386719-9.3125-20.703125-20.699219-20.703125s-20.703125 9.316406-20.703125 20.703125v-4.726562c0-11.382813-9.3125-20.699219-20.699219-20.699219s-20.703125 9.316406-20.703125 20.699219v-66.371094c0-11.386719-9.316406-20.699219-20.699219-20.699219-11.386719 0-20.703125 9.3125-20.703125 20.699219v113.675781c-4.460937.582031-16.136718-2.644531-25.066406 7.46875-15.195312 17.203125-18.417969 41.917969-8.132812 62.449219 9.691406 18.738281-3.3125-1.867188 42.429687 57.210937 3.085937 3.882813 4.765625 8.699219 4.765625 13.664063v17.921875c26.90625 10.164062 56.066406 15.738281 86.53125 15.738281 15.773438 0 31.1875-1.507812 46.128906-4.355469v-37.640625c0-14.492187 18.953125-28.617187 18.953125-68.050781 0-8.734375 0-70.445313 0-93.140625 0-10.871094-8.890625-19.761719-19.761719-19.761719zm0 0" fill="#f9cfa9"/><path d="m160.328125 203.171875h9.652344c5.542969 0 10.074219 4.535156 10.074219 10.074219v18.125c0 5.542968-4.53125 10.078125-10.074219 10.078125h-9.652344c-5.539063 0-10.074219-4.535157-10.074219-10.078125v-18.125c0-5.539063 4.535156-10.074219 10.074219-10.074219zm0 0" fill="#f4f2fa"/><path d="m143.640625 451.746094c2.996094 3.824218 6.328125 8.109375 10.0625 12.929687 3.085937 3.882813 4.765625 8.703125 4.765625 13.664063v17.921875c26.90625 10.164062 56.066406 15.738281 86.53125 15.738281 15.773438 0 31.1875-1.507812 46.128906-4.355469v-37.640625c0-8.875 7.105469-17.621094 12.613282-32.117187-23.386719 21.59375-54.640626 34.792969-88.984376 34.792969-26.210937 0-50.625-7.691407-71.117187-20.933594zm0 0" fill="#fbbc8d"/></svg>