<svg height="512pt" viewBox="-11 0 512 512" width="512pt" xmlns="http://www.w3.org/2000/svg"><path d="m464.539062 375.835938c16.289063-32.789063 25.460938-69.738282 25.460938-108.835938 0-135.308594-109.691406-245-245-245s-245 109.691406-245 245c0 39.097656 9.171875 76.046875 25.460938 108.835938zm0 0" fill="#2b3894"/><path d="m465.035156 71.292969h-440.070312v303.542969c39.886718 81.238281 123.425781 137.164062 220.035156 137.164062s180.148438-55.925781 220.035156-137.164062zm0 0" fill="#e6f7fe"/><path d="m91.800781 71.292969h-66.835937v303.542969c15.949218 32.484374 38.882812 60.914062 66.835937 83.347656zm0 0" fill="#d5f1fe"/><path d="m24.964844 47.027344h440.070312v26.265625h-440.070312zm0 0" fill="#d5f1fe"/><path d="m141.921875 73.292969h-116.957031v-26.265625h92.210937c13.667969 0 24.746094 11.757812 24.746094 26.265625zm0 0" fill="#11dfef"/><path d="m24.964844 47.027344h66.835937v26.265625h-66.835937zm0 0" fill="#0ac6e5"/><path d="m463.691406 0c-8.492187 0-425.023437 0-437.382812 0-.742188 0-1.34375.601562-1.34375 1.34375v47.207031h440.070312v-47.207031c0-.742188-.601562-1.34375-1.34375-1.34375zm0 0" fill="#615df9"/><path d="m91.800781 12c0-6.601562 5.398438-12 12-12-43.664062 0-74.277343 0-77.492187 0-.742188 0-1.34375.601562-1.34375 1.34375v47.207031h66.835937zm0 0" fill="#3342ae"/><path d="m61.300781 33.808594c-5.507812 0-10-4.488282-10-10 0-4.769532 3.351563-8.859375 8.050781-9.8125 6.117188-1.230469 11.949219 3.472656 11.949219 9.8125 0 5.554687-4.542969 10-10 10zm0 0" fill="#f948b4"/><path d="m91.800781 33.808594c-5.429687 0-10-4.421875-10-10 0-6.324219 5.816407-11.046875 11.949219-9.8125 4.84375.984375 8.050781 5.214844 8.050781 9.8125 0 5.507812-4.488281 10-10 10zm0 0" fill="#fecd0a"/><path d="m122.300781 33.808594c-5.429687 0-10-4.421875-10-10 0-6.355469 5.84375-11.042969 11.949219-9.8125 4.84375.984375 8.050781 5.21875 8.050781 9.8125 0 5.507812-4.488281 10-10 10zm0 0" fill="#39df74"/><path d="m436.140625 31.773438h-52.667969c-4.144531 0-7.5-3.359376-7.5-7.5 0-4.140626 3.355469-7.5 7.5-7.5h52.667969c4.140625 0 7.5 3.359374 7.5 7.5 0 4.140624-3.359375 7.5-7.5 7.5zm0 0" fill="#aeaeff"/><path d="m345.792969 31.773438h-183.847657c-4.140624 0-7.5-3.359376-7.5-7.5 0-4.140626 3.359376-7.5 7.5-7.5h183.847657c4.144531 0 7.5 3.359374 7.5 7.5 0 4.140624-3.355469 7.5-7.5 7.5zm0 0" fill="#aeaeff"/><path d="m310.492188 24.273438c0-4.140626 3.359374-7.5 7.5-7.5h-156.046876c-4.140624 0-7.5 3.359374-7.5 7.5 0 4.140624 3.359376 7.5 7.5 7.5h156.046876c-4.140626 0-7.5-3.355469-7.5-7.5zm0 0" fill="#8181fc"/><path d="m178.417969 129.503906c-5.238281-1.757812-10.902344 1.070313-12.65625 6.308594l-10.964844 32.789062-7.789063-15.46875c-3.699218-7.367187-14.222656-7.25-17.863281 0l-7.785156 15.46875-10.96875-32.789062c-1.75-5.238281-7.421875-8.066406-12.65625-6.308594-5.238281 1.75-8.0625 7.417969-6.308594 12.652344l18.570313 55.523438.003906.011718.007812.027344c2.757813 8.25 14.296876 9.382812 18.382813 1.378906.011719-.019531.023437-.035156.035156-.054687l9.652344-19.171875 9.652344 19.171875c.007812.019531.023437.035156.03125.054687 3.996093 7.816406 15.558593 7.070313 18.382812-1.378906l.011719-.03125v-.003906l18.574219-55.527344c1.75-5.234375-1.078125-10.902344-6.3125-12.652344zm0 0" fill="#27a3ff"/><path d="m244.984375 239.816406c51 .007813 95.378906 41.144532 118.222656 101.789063 25.601563 7.277343 47.96875 16.847656 65.808594 28.121093-26.886719-75.695312-99.117187-129.90625-184.03125-129.910156zm0 0" fill="#4fbbff"/><path d="m429.035156 369.738281c-.007812-.003906-.011718-.007812-.019531-.011719.007813.019532.011719.039063.019531.058594zm0 0" fill="#4fbbff"/><path d="m244.972656 239.816406c-85.027344.003906-157.351562 54.355469-184.15625 130.207032 17.847656-11.320313 40.234375-20.9375 65.863282-28.261719 22.832031-60.734375 67.242187-101.941407 118.292968-101.945313zm0 0" fill="#0080f4"/><g fill="#27a3ff"><path d="m439.335938 416.1875c-1.546876-16-5.023438-31.597656-10.300782-46.449219-17.84375-11.28125-40.21875-20.855469-65.824218-28.136719 10.460937 27.769532 16.40625 59.625 16.40625 93.496094h43.601562c5.683594-6.019531 11.058594-12.335937 16.117188-18.910156zm0 0"/><path d="m50.617188 416.121094c5.070312 6.601562 10.460937 12.9375 16.164062 18.980468h43.550781c0-33.808593 5.925781-65.609374 16.347657-93.339843-25.628907 7.324219-48.015626 16.941406-65.863282 28.261719-1.160156 4.300781-7.75 20.90625-10.199218 46.097656zm0 0"/><path d="m126.683594 341.761719c21.128906-6.039063 44.464844-10.515625 69.304687-13.085938 10.421875-53.488281 28.46875-88.859375 48.988281-88.859375h-.003906c-51.050781.003906-95.460937 41.210938-118.289062 101.945313zm0 0"/><path d="m293.953125 328.617188c24.820313 2.539062 48.136719 6.980468 69.253906 12.984374-22.84375-60.644531-67.226562-101.785156-118.230469-101.785156 20.511719.003906 38.554688 35.34375 48.976563 88.800782zm0 0"/></g><path d="m293.953125 328.617188c5.972656 30.625 9.445313 67.195312 9.445313 106.484374h76.21875c0-33.875-5.949219-65.730468-16.410157-93.496093-21.117187-6.007813-44.433593-10.449219-69.253906-12.988281zm0 0" fill="#4fbbff"/><path d="m195.988281 328.675781c-24.84375 2.570313-48.175781 7.046875-69.308593 13.085938-10.421876 27.730469-16.347657 59.527343-16.347657 93.335937h76.222657c0-39.257812 3.46875-75.804687 9.433593-106.421875zm0 0" fill="#0080f4"/><path d="m293.953125 328.617188c-10.421875-53.457032-28.464844-88.796876-48.976563-88.800782-20.519531 0-38.566406 35.371094-48.988281 88.859375 32.183594-3.332031 65.722657-3.355469 97.964844-.058593zm0 0" fill="#4fbbff"/><path d="m303.398438 435.101562c0-39.285156-3.472657-75.855468-9.445313-106.484374-32.1875-3.292969-65.726563-3.277344-97.964844.058593-5.964843 30.613281-9.433593 67.164063-9.433593 106.425781zm0 0" fill="#27a3ff"/><path d="m377.011719 473.425781c16.945312-10.855469 32.457031-23.75 46.207031-38.324219h-43.601562c0 13.117188-.902344 25.929688-2.605469 38.324219zm0 0" fill="#4fbbff"/><path d="m112.933594 473.390625c-1.699219-12.382813-2.601563-25.183594-2.601563-38.292969h-43.550781c13.738281 14.558594 29.226562 27.441406 46.152344 38.292969zm0 0" fill="#0080f4"/><path d="m186.554688 435.101562h-76.222657c0 13.105469.902344 25.90625 2.601563 38.289063 23.433594 15.03125 49.601562 26.164063 77.585937 32.519531-2.558593-21.953125-3.964843-45.832031-3.964843-70.808594zm0 0" fill="#27a3ff"/><path d="m299.429688 505.921875c27.980468-6.347656 54.148437-17.476563 77.582031-32.496094 1.703125-12.394531 2.605469-25.207031 2.605469-38.324219h-76.21875c0 24.984376-1.40625 48.863282-3.96875 70.820313zm0 0" fill="#27a3ff"/><path d="m190.519531 505.910156c17.523438 3.980469 35.753907 6.089844 54.480469 6.089844 18.710938 0 36.925781-2.105469 54.429688-6.078125 2.558593-21.957031 3.96875-45.835937 3.96875-70.820313h-116.84375c0 24.976563 1.40625 48.855469 3.964843 70.808594zm0 0" fill="#4fbbff"/><path d="m136.183594 180.210938c-7.121094 0-12.894532-5.773438-12.894532-12.894532 0-1.238281.183594-2.429687.507813-3.5625l-2.4375 4.847656-10.96875-32.789062c-1.75-5.238281-7.421875-8.066406-12.65625-6.308594-5.238281 1.75-8.0625 7.417969-6.308594 12.652344l18.570313 55.523438.003906.011718.007812.027344c2.757813 8.25 14.296876 9.378906 18.382813 1.378906.011719-.019531.023437-.035156.035156-.054687l9.550781-18.972657c-.589843.082032-1.183593.140626-1.792968.140626zm0 0" fill="#0080f4"/><path d="m285.3125 129.503906c-5.238281-1.757812-10.90625 1.070313-12.65625 6.308594l-10.96875 32.789062-7.785156-15.46875c-3.699219-7.367187-14.222656-7.25-17.863282 0l-7.785156 15.46875-10.96875-32.789062c-1.753906-5.238281-7.421875-8.066406-12.65625-6.308594-5.238281 1.75-8.0625 7.417969-6.3125 12.652344l18.574219 55.523438.003906.011718.007813.027344c2.757812 8.25 14.296875 9.382812 18.382812 1.378906.011719-.019531.023438-.035156.035156-.054687l9.652344-19.171875 9.648438 19.171875c.011718.019531.023437.035156.035156.054687 3.992188 7.816406 15.558594 7.070313 18.382812-1.378906l.011719-.03125v-.003906l18.570313-55.527344c1.753906-5.234375-1.074219-10.902344-6.308594-12.652344zm0 0" fill="#27a3ff"/><path d="m243.078125 180.210938c-7.121094 0-12.894531-5.773438-12.894531-12.894532 0-1.238281.183594-2.429687.507812-3.5625l-2.4375 4.847656-10.96875-32.789062c-1.75-5.238281-7.421875-8.066406-12.65625-6.308594-5.238281 1.75-8.0625 7.417969-6.3125 12.652344l18.570313 55.523438.003906.011718.011719.027344c2.757812 8.25 14.292968 9.378906 18.382812 1.378906.011719-.019531.023438-.035156.03125-.054687l9.550782-18.972657c-.585938.082032-1.179688.140626-1.789063.140626zm0 0" fill="#0080f4"/><path d="m392.214844 129.503906c-5.234375-1.757812-10.902344 1.070313-12.652344 6.308594l-10.96875 32.789062-7.785156-15.46875c-3.699219-7.367187-14.222656-7.25-17.863282 0l-7.789062 15.46875-10.964844-32.789062c-1.753906-5.238281-7.421875-8.066406-12.65625-6.308594-5.238281 1.75-8.0625 7.417969-6.3125 12.652344l18.570313 55.523438.003906.011718.011719.027344c2.757812 8.25 14.292968 9.382812 18.382812 1.378906.007813-.019531.023438-.035156.03125-.054687l9.652344-19.171875 9.652344 19.171875c.011718.019531.023437.035156.035156.054687 3.992188 7.816406 15.554688 7.070313 18.382812-1.378906l.007813-.03125c.003906 0 .003906-.003906.003906-.003906l18.570313-55.527344c1.753906-5.234375-1.074219-10.902344-6.3125-12.652344zm0 0" fill="#27a3ff"/><path d="m349.984375 180.210938c-7.125 0-12.894531-5.773438-12.894531-12.894532 0-1.238281.183594-2.429687.507812-3.5625l-2.441406 4.847656-10.964844-32.789062c-1.753906-5.238281-7.421875-8.066406-12.65625-6.308594-5.238281 1.75-8.0625 7.417969-6.3125 12.652344l18.570313 55.523438.003906.011718.011719.027344c2.753906 8.25 14.292968 9.378906 18.382812 1.378906.007813-.019531.023438-.035156.03125-.054687l9.550782-18.972657c-.585938.082032-1.179688.140626-1.789063.140626zm0 0" fill="#0080f4"/></svg>