<svg height="512pt" viewBox="-11 0 512 512" width="512pt" xmlns="http://www.w3.org/2000/svg"><path d="m483.1875 324.53125c4.445312-18.453125 6.8125-37.714844 6.8125-57.53125 0-135.308594-109.691406-245-245-245s-245 109.691406-245 245c0 19.816406 2.371094 39.078125 6.8125 57.53125zm0 0" fill="#fecd0a"/><path d="m259.128906 511.585938c8.136719-.464844 16.167969-1.316407 24.074219-2.554688l178.578125-127.804688c9.515625-18.019531 16.851562-37.367187 21.652344-57.695312v-287.582031c0-19.824219-16.125-35.949219-35.949219-35.949219h-245.691406c-19.820313 0-35.945313 16.125-35.945313 35.949219v422.871093zm0 0" fill="#2b3894"/><path d="m256.539062 25.503906c-6.546874-1.105468-11.539062-6.785156-11.539062-13.648437 0-5.035157 2.695312-9.429688 6.710938-11.855469h-49.917969c-19.820313 0-35.945313 16.125-35.945313 35.949219v422.871093l90.691406 51.300782zm0 0" fill="#232e7a"/><path d="m462.621094 117.6875c0-46.199219 0-77.960938 0-81.738281 0-8.363281-6.773438-15.136719-15.136719-15.136719h-51.167969c-2.863281 0-5.183594 2.320312-5.183594 5.179688 0 6.867187-5.617187 12.488281-12.484374 12.488281h-108.214844c-6.871094 0-12.488282-5.621094-12.488282-12.488281 0-2.859376-2.320312-5.179688-5.179687-5.179688h-50.96875c-8.363281 0-15.140625 6.777344-15.140625 15.136719v81.738281zm0 0" fill="#4fbbff"/><path d="m319.863281 114.203125c-19.664062-2.554687-23.390625-13.960937-23.585937-21.644531-.109375-4.269532-2.671875-8.074219-6.632813-9.679688-32.796875-13.304687-19.210937-44.402344-19.210937-44.402344-6.867188 0-12.488282-5.617187-12.488282-12.484374 0-2.863282-2.320312-5.183594-5.179687-5.183594h-50.96875c-8.363281 0-15.140625 6.777344-15.140625 15.136718v81.742188h139.769531c-1.664062-1.871094-3.957031-3.144531-6.5625-3.484375zm0 0" fill="#27a3ff"/><path d="m462.621094 247.949219h-275.964844v257.042969c18.699219 4.566406 38.234375 7.007812 58.34375 7.007812 94.699219 0 176.84375-53.734375 217.621094-132.375 0-42.453125 0-88.027344 0-131.675781zm0 0" fill="#e6f7fe"/><path d="m324.640625 281.226562c0-18.378906 14.898437-33.277343 33.277344-33.277343h-171.261719v257.042969c18.699219 4.566406 38.234375 7.007812 58.34375 7.007812 27.882812 0 54.671875-4.660156 79.640625-13.242188zm0 0" fill="#d5f1fe"/><path d="m433.378906 116.8125c-4.1875 7.023438-11.855468 11.742188-20.609375 11.742188-14.441406 0-25.765625-12.792969-23.738281-27.304688-7.804688-5.820312-27.65625-24.425781-58.902344-24.121094-32.902344.316406-51.257812 21.203125-61.371094 29.847656 7.203126 6.277344 11.769532 15.511719 11.769532 25.792969v116.214844h182.09375v-140.210937c-8.148438 4.296874-18.046875 7.71875-29.242188 8.039062zm0 0" fill="#27a3ff"/><path d="m356.59375 248.984375c7.265625-8.832031 8.210938-17.410156-7.320312-22.273437-41.5-13-7.21875-27.78125-18.496094-39.058594s52.496094-29.941406 22.996094-41.316406c-17.792969-6.859376-23.3125-16.945313-24.890626-23.867188-1-4.378906-4.5625-7.683594-9.019531-8.261719-19.664062-2.554687-23.390625-13.964843-23.585937-21.644531-.054688-2.105469-.707032-4.097656-1.824219-5.769531-11.851563 6.746093-20.058594 15.363281-25.695313 20.183593 7.203126 6.277344 11.769532 15.511719 11.769532 25.792969v116.214844zm0 0" fill="#0080f4"/><path d="m398.785156 282.585938h-118.910156v50.585937h118.910156c5.367188 0 9.761719-4.394531 9.761719-9.761719v-31.0625c0-5.371094-4.394531-9.761718-9.761719-9.761718zm0 0" fill="#4fbbff"/><path d="m279.875 282.585938h44.765625v50.585937h-44.765625zm0 0" fill="#27a3ff"/><g fill="#11dfef"><path d="m400.777344 374.238281h-121.40625c-4.292969 0-7.769532-3.476562-7.769532-7.769531 0-4.289062 3.476563-7.765625 7.769532-7.765625h121.40625c4.289062 0 7.769531 3.476563 7.769531 7.765625 0 4.292969-3.480469 7.769531-7.769531 7.769531zm0 0"/><path d="m400.777344 407.058594h-121.40625c-4.292969 0-7.769532-3.476563-7.769532-7.765625 0-4.289063 3.476563-7.769531 7.769532-7.769531h121.40625c4.289062 0 7.769531 3.480468 7.769531 7.769531 0 4.289062-3.480469 7.765625-7.769531 7.765625zm0 0"/><path d="m400.777344 439.882812h-121.40625c-4.292969 0-7.769532-3.476562-7.769532-7.769531 0-4.289062 3.476563-7.765625 7.769532-7.765625h121.40625c4.289062 0 7.769531 3.476563 7.769531 7.765625 0 4.292969-3.480469 7.769531-7.769531 7.769531zm0 0"/><path d="m279.371094 457.171875c-4.289063 0-7.769532 3.476563-7.769532 7.765625s3.480469 7.765625 7.769532 7.765625h98.742187c7.398438-4.796875 14.523438-9.984375 21.34375-15.53125zm0 0"/></g><path d="m451.359375 151.929688c-6.710937-6.714844-17.597656-6.714844-24.308594 0l-11.929687 11.925781c-2.929688 2.933593-7.6875 2.933593-10.621094 0l-49.132812-49.128907c-7.414063-7.417968-19.441407-7.417968-26.855469 0l-47.984375 47.984376v86.273437h182.09375v-85.792969zm0 0" fill="#a2ec00"/><path d="m349.273438 226.710938c-41.5-13-7.21875-27.78125-18.496094-39.058594s52.496094-29.941406 22.996094-41.316406c-17.792969-6.859376-23.3125-16.945313-24.890626-23.867188-.464843-2.03125-1.484374-3.828125-2.886718-5.230469l-45.46875 45.472657v86.273437h76.066406c7.265625-8.832031 8.210938-17.410156-7.320312-22.273437zm0 0" fill="#00c82f"/><path d="m387.773438 206.796875c-49.363282-38.023437-77.457032-13.101563-107.246094 6.355469v35.832031h182.09375v-40.328125c-17.457032 14.269531-42.996094 22.667969-74.847656-1.859375zm0 0" fill="#00c82f"/><path d="m349.273438 226.710938c-41.5-13-7.21875-27.78125-18.496094-39.058594-18.648438 2.960937-34.207032 15.023437-50.25 25.5v35.832031h76.066406c7.265625-8.832031 8.210938-17.410156-7.320312-22.273437zm0 0" fill="#02ad22"/><path d="m390.386719 165.238281h-110.511719v26.675781h110.511719c2.710937 0 4.90625-2.195312 4.90625-4.90625v-16.863281c0-2.707031-2.195313-4.90625-4.90625-4.90625zm0 0" fill="#e6f7fe"/><path d="m259.140625 511.59375c7.523437-.433594 14.957031-1.199219 22.289063-2.292969v-376.53125c0-19.726562-16.050782-35.777343-35.78125-35.777343h-203.304688c-19.726562 0-35.777344 16.050781-35.777344 35.777343v190.761719c4.769532 20.191406 12.039063 39.414062 21.457032 57.328125zm0 0" fill="#3d4ec6"/><path d="m76.605469 121.921875c-3.113281-2.953125-5.0625-7.117187-5.0625-11.746094 0-5.441406 2.691406-10.246093 6.808593-13.183593h-36.007812c-19.726562 0-35.777344 16.050781-35.777344 35.777343v190.761719c4.769532 20.191406 12.039063 39.414062 21.457032 57.328125l48.582031 27.484375zm0 0" fill="#2b3894"/><path d="m260.714844 209.285156c0-42.4375 0-72.460937 0-76.515625 0-8.320312-6.746094-15.066406-15.066406-15.066406h-30.214844c-2.847656 0-5.160156 2.308594-5.160156 5.160156 0 6.832031-5.589844 12.425781-12.425782 12.425781h-107.703125c-6.832031 0-12.425781-5.59375-12.425781-12.425781 0-2.851562-2.308594-5.160156-5.15625-5.160156h-30.21875c-8.320312 0-15.066406 6.746094-15.066406 15.066406v76.515625zm0 0" fill="#4fbbff"/><path d="m115.042969 196.714844c-15.210938-3.195313-16.679688-14.640625-15.625-22.804688.621093-4.832031-1.21875-9.730468-5.097657-12.675781-13.515624-10.265625-4.175781-25.945313-4.175781-25.945313-6.835937 0-12.425781-5.59375-12.425781-12.425781 0-2.851562-2.3125-5.160156-5.160156-5.160156h-30.214844c-8.320312 0-15.066406 6.746094-15.066406 15.066406v76.515625h98.65625c-.355469-.957031-.652344-1.890625-.882813-2.785156-1.265625-4.878906-5.078125-8.75-10.007812-9.785156zm0 0" fill="#27a3ff"/><path d="m27.277344 379.4375c40.75 78.742188 122.945312 132.5625 217.722656 132.5625 5.28125 0 10.515625-.1875 15.714844-.515625 0-45.613281 0-115.941406 0-183.707031h-233.4375zm0 0" fill="#e6f7fe"/><path d="m94.292969 460.160156c0-39.699218 0-86.621094 0-132.382812h-67.015625v51.660156c16.3125 31.523438 39.273437 59.042969 67.015625 80.722656zm0 0" fill="#d5f1fe"/><path d="m27.277344 208.214844v120.628906h233.4375v-140.195312c-8.816406 5.554687-20.421875 10.578124-33.964844 10.964843-4.09375 6.867188-11.589844 11.480469-20.148438 11.480469-14.125 0-25.195312-12.507812-23.210937-26.699219-7.632813-5.691406-27.042969-23.882812-57.59375-23.585937-35.371094.34375-53.550781 25.003906-62.726563 31.324218 0 0-14.636718 13.03125-35.792968 16.082032zm0 0" fill="#27a3ff"/><path d="m143.996094 304.292969c-36.273438-8.753907-19.222656-36.089844-19.222656-36.089844s41.5-33.742187 19.222656-41.992187c-12.566406-4.65625-17.25-13.171876-18.945313-19.714844-1.265625-4.875-5.078125-8.746094-10.007812-9.78125-15.210938-3.195313-16.679688-14.640625-15.625-22.804688.328125-2.539062-.03125-5.09375-1.003907-7.378906-18.066406 7.765625-28.917968 21.175781-35.34375 25.601562 0 0-14.636718 13.03125-35.792968 16.082032v120.628906h120.996094c.007812-.003906 31.992187-15.800781-4.277344-24.550781zm0 0" fill="#0080f4"/><path d="m27.277344 239.867188v88.976562h233.4375v-78.507812l-16.382813-16.386719c-6.5625-6.5625-17.207031-6.5625-23.769531 0l-11.660156 11.660156c-2.871094 2.871094-7.519532 2.871094-10.390625 0l-48.035157-48.035156c-7.253906-7.253907-19.011718-7.253907-26.261718 0l-61.894532 61.890625c-2.386718 2.386718-6.253906 2.386718-8.640624 0l-14.050782-14.050782c-3.4375-3.4375-7.855468-5.269531-12.351562-5.546874zm0 0" fill="#a2ec00"/><path d="m143.996094 304.292969c-36.273438-8.753907-19.222656-36.089844-19.222656-36.089844s41.5-33.742187 19.222656-41.992187c-12.566406-4.65625-17.25-13.171876-18.945313-19.714844-.621093-2.390625-1.855469-4.535156-3.535156-6.226563l-59.195313 59.195313c-2.386718 2.386718-6.253906 2.386718-8.640624 0l-14.050782-14.050782c-3.4375-3.4375-7.855468-5.273437-12.351562-5.546874v88.976562h120.996094c.007812-.003906 31.992187-15.800781-4.277344-24.550781zm0 0" fill="#00c82f"/><path d="m27.277344 309.746094v19.097656h233.4375v-44.234375c-16.992188 16.546875-43.96875 29.625-78.554688 2.984375-73.398437-56.53125-98.699218 29.253906-154.882812 22.152344zm0 0" fill="#00c82f"/><path d="m143.996094 304.292969c-31.960938-7.710938-22.527344-29.84375-19.832032-35.003907-34.625 6.972657-58.578124 45.300782-96.886718 40.457032v19.097656h120.996094c.007812-.003906 31.992187-15.800781-4.277344-24.550781zm0 0" fill="#02ad22"/><path d="m209.84375 244.03125h-131.695312c-2.710938 0-4.90625 2.199219-4.90625 4.90625v16.863281c0 2.710938 2.199218 4.90625 4.90625 4.90625h131.695312c2.710938 0 4.90625-2.195312 4.90625-4.90625v-16.863281c0-2.710938-2.195312-4.90625-4.90625-4.90625zm0 0" fill="#e6f7fe"/><path d="m216.78125 411.960938h-145.566406c-5.371094 0-9.761719-4.390626-9.761719-9.757813v-31.066406c0-5.367188 4.390625-9.757813 9.761719-9.757813h145.566406c5.367188 0 9.757812 4.390625 9.757812 9.757813v31.066406c0 5.367187-4.390624 9.757813-9.757812 9.757813zm0 0" fill="#4fbbff"/><path d="m100.242188 265.800781v-16.863281c0-2.707031 2.199218-4.90625 4.90625-4.90625h-27c-2.710938 0-4.90625 2.199219-4.90625 4.90625v16.863281c0 2.710938 2.199218 4.90625 4.90625 4.90625h27c-2.707032 0-4.90625-2.195312-4.90625-4.90625zm0 0" fill="#d5f1fe"/><path d="m88.453125 402.203125v-31.066406c0-5.367188 4.390625-9.757813 9.761719-9.757813h-27c-5.371094 0-9.761719 4.390625-9.761719 9.757813v31.066406c0 5.367187 4.390625 9.757813 9.761719 9.757813h27c-5.371094 0-9.761719-4.390626-9.761719-9.757813zm0 0" fill="#27a3ff"/><path d="m218.773438 434.386719h-149.554688c-.933594 0-1.828125.175781-2.65625.476562 4.933594 5.242188 10.097656 10.265625 15.472656 15.058594h136.738282c4.289062 0 7.765624-3.476563 7.765624-7.769531 0-4.289063-3.476562-7.765625-7.765624-7.765625zm0 0" fill="#11dfef"/><path d="m218.773438 467.128906h-115.128907c7.996094 5.65625 16.347657 10.847656 25.011719 15.53125h90.117188c4.289062 0 7.765624-3.476562 7.765624-7.765625 0-4.289062-3.476562-7.765625-7.765624-7.765625zm0 0" fill="#11dfef"/><path d="m437.113281 104.578125c0 13.804687-11.1875 24.996094-24.996093 24.996094-13.804688 0-24.996094-11.191407-24.996094-24.996094s11.191406-24.996094 24.996094-24.996094c13.808593 0 24.996093 11.191407 24.996093 24.996094zm0 0" fill="#fecd0a"/><path d="m231.039062 187.652344c0 13.496094-10.941406 24.441406-24.4375 24.441406-13.5 0-24.441406-10.945312-24.441406-24.441406 0-13.5 10.941406-24.441406 24.441406-24.441406 13.496094 0 24.4375 10.941406 24.4375 24.441406zm0 0" fill="#fecd0a"/><path d="m405.597656 80.449219c-10.640625 2.867187-18.476562 12.582031-18.476562 24.128906 0 13.804687 11.191406 24.996094 24.996094 24.996094 9.644531 0 18.003906-5.464844 22.171874-13.460938-21.160156 5.707031-38.636718-16.585937-28.691406-35.664062zm0 0" fill="#fca60d"/><path d="m200.464844 163.988281c-10.527344 2.722657-18.304688 12.285157-18.304688 23.664063 0 13.496094 10.941406 24.441406 24.441406 24.441406 9.511719 0 17.75-5.441406 21.789063-13.375-20.660156 5.339844-37.304687-16.304688-27.925781-34.730469zm0 0" fill="#fca60d"/><path d="m391.386719 165.238281h-23.300781v26.675781h23.300781c2.710937 0 4.90625-2.195312 4.90625-4.90625v-16.863281c0-2.707031-2.195313-4.90625-4.90625-4.90625zm0 0" fill="#f948b4"/><path d="m210.84375 244.03125h-23.300781v26.675781h23.300781c2.710938 0 4.90625-2.195312 4.90625-4.90625v-16.863281c0-2.710938-2.195312-4.90625-4.90625-4.90625zm0 0" fill="#f948b4"/></svg>