<svg height="512pt" viewBox="0 -11 512 512" width="512pt" xmlns="http://www.w3.org/2000/svg"><path d="m450.859375 112.121094c-43.640625-67.464844-119.53125-112.121094-205.859375-112.121094-58.066406 0-111.402344 20.214844-153.386719 53.96875l.019531 6.382812c74.886719 23.097657 244.171876 68.964844 359.226563 51.769532zm0 0" fill="#27a3ff"/><path d="m397.203125 436.984375h-304.40625c41.800781 33.1875 94.683594 53.015625 152.203125 53.015625s110.402344-19.828125 152.203125-53.015625zm0 0" fill="#2b3894"/><path d="m397.203125 436.984375h-205.097656c7.003906 14.871094 4.097656 34.453125-9.144531 45.085937 20.691406 5.402344 41.734374 7.929688 62.039062 7.929688 91.84375 0 147.691406-50.53125 152.203125-53.015625zm0 0" fill="#232e7a"/><path d="m372.492188 53.164062h-279.882813c-7.835937 6.234376-15.269531 12.957032-22.28125 20.089844l-50.207031 74.414063c-12.933594 29.835937-20.121094 62.742187-20.121094 97.332031 0 11.410156.789062 22.636719 2.300781 33.628906l.007813-.003906 30.546875 88.960938c6.324219 10.910156 13.453125 21.300781 21.324219 31.0625h341.980468v-321.816407c0-13.015625-10.648437-23.667969-23.667968-23.667969zm0 0" fill="#2b3894"/><path d="m92.609375 53.164062c-7.835937 6.234376-15.269531 12.957032-22.28125 20.089844l-50.207031 74.414063c-12.933594 29.835937-20.121094 62.742187-20.121094 97.332031 0 11.410156.789062 22.636719 2.300781 33.628906l.007813-.003906 30.546875 88.960938c6.324219 10.910156 13.453125 21.300781 21.324219 31.0625h34.832031v-321.816407c0-13.019531 10.648437-23.667969 23.667969-23.667969zm0 0" fill="#232e7a"/><path d="m19.367188 149.378906c-12.46875 29.378906-19.367188 61.695313-19.367188 95.621094 0 11.410156.789062 22.636719 2.300781 33.628906l.007813-.003906 30.546875 88.960938c6.324219 10.910156 13.453125 21.300781 21.324219 31.0625h321.980468v-249.269532zm0 0" fill="#e6f7fe"/><path d="m19.367188 149.378906c-12.46875 29.378906-19.367188 61.695313-19.367188 95.621094 0 11.410156.789062 22.636719 2.300781 33.628906l.007813-.003906 30.546875 88.960938c6.324219 10.910156 13.453125 21.300781 21.324219 31.0625h34.832031v-249.269532zm0 0" fill="#d5f1fe"/><path d="m372.136719 73.164062h-301.75c-15.347657 15.59375-28.617188 33.230469-39.371094 52.464844h345.144531v-48.4375c0-2.222656-1.800781-4.027344-4.023437-4.027344zm0 0" fill="#615df9"/><path d="m89.011719 73.164062h-18.625c-15.347657 15.59375-28.617188 33.230469-39.371094 52.464844h57.996094zm0 0" fill="#3d4ec6"/><path d="m344.675781 106.132812h-52.667969c-4.144531 0-7.5-3.359374-7.5-7.5 0-4.144531 3.355469-7.5 7.5-7.5h52.667969c4.140625 0 7.5 3.355469 7.5 7.5 0 4.140626-3.359375 7.5-7.5 7.5zm0 0" fill="#aeaeff"/><path d="m254.328125 91.132812h-199.972656c-3.921875 4.851563-7.660157 9.851563-11.207031 15h211.179687c4.144531 0 7.5-3.359374 7.5-7.5 0-4.144531-3.355469-7.5-7.5-7.5zm0 0" fill="#aeaeff"/><path d="m204.355469 98.632812c0-4.144531 3.359375-7.5 7.5-7.5h-157.5c-3.921875 4.851563-7.660157 9.851563-11.207031 15h168.707031c-4.140625 0-7.5-3.359374-7.5-7.5zm0 0" fill="#8181fc"/><path d="m431.757812 396.648438c-7.492187 0-213.164062 0-379.1875 0 12.078126 15.308593 25.945313 29.140624 41.285157 41.183593h300.871093c.5 0 .976563-.027343 1.46875-.035156 14.816407-11.636719 28.242188-24.953125 40.027344-39.644531-1.242187-.9375-2.785156-1.503906-4.464844-1.503906zm0 0" fill="#aeaeff"/><path d="m117.507812 427.738281c0-6.289062 5.082032-11.386719 11.363282-11.414062v-19.675781c-25.789063 0-51.488282 0-76.300782 0 12.078126 15.308593 25.945313 29.140624 41.28125 41.183593h29.746094c-3.621094-1.914062-6.089844-5.714843-6.089844-10.09375zm0 0" fill="#8181fc"/><path d="m70.78125 417.242188h147.914062c6.601563 0 12-5.402344 12-12v-8.59375c-55.410156 0-118.617187 0-178.125 0 5.683594 7.203124 11.769532 14.074218 18.210938 20.59375zm0 0" fill="#8181fc"/><path d="m114.234375 405.242188v-8.59375c-20.679687 0-41.386719 0-61.664063 0 5.683594 7.203124 11.769532 14.074218 18.210938 20.59375h55.453125c-6.597656 0-12-5.402344-12-12zm0 0" fill="#615df9"/><path d="m18.542969 151.378906h357.621093v-27.75h-344.027343c-5.09375 8.914063-9.632813 18.179688-13.59375 27.75zm0 0" fill="#d5f1fe"/><path d="m89.011719 123.628906h-56.875c-5.09375 8.914063-9.632813 18.179688-13.597657 27.75h70.472657zm0 0" fill="#11dfef"/><path d="m0 245c0 11.929688.871094 23.652344 2.515625 35.125h46.339844c3.875 0 7.027343 3.152344 7.027343 7.027344v27.253906h34.628907v-27.253906c0-3.875 3.152343-7.027344 7.027343-7.027344h80.324219c3.875 0 7.027344 3.152344 7.027344 7.027344v27.253906h34.628906v-27.253906c0-3.875 3.152344-7.027344 7.027344-7.027344h13.777344v34.28125h1.5v-166.710938h-221.722657c-12.921874 29.828126-20.101562 62.726563-20.101562 97.304688zm0 0" fill="#00c82f"/><path d="m89.011719 314.40625v-166.710938h-68.910157c-12.921874 29.828126-20.101562 62.726563-20.101562 97.304688 0 11.929688.871094 23.652344 2.515625 35.125h46.339844c3.875 0 7.027343 3.152344 7.027343 7.027344v27.253906zm0 0" fill="#02ad22"/><path d="m48.855469 278.628906h-46.546875c4.402344 32.078125 15.007812 62.179688 30.582031 89.050782h15.964844c4.691406 0 8.527343-3.839844 8.527343-8.527344v-71.996094c0-4.691406-3.835937-8.527344-8.527343-8.527344zm0 0" fill="#fecd0a"/><path d="m177.863281 367.679688h-80.324219c-4.691406 0-8.527343-3.839844-8.527343-8.53125v-71.992188c0-4.691406 3.835937-8.527344 8.527343-8.527344h80.324219c4.691407 0 8.527344 3.835938 8.527344 8.527344v71.992188c.003906 4.691406-3.835937 8.53125-8.527344 8.53125zm0 0" fill="#fecd0a"/><path d="m119.910156 359.148438v-71.992188c0-4.691406 3.839844-8.527344 8.53125-8.527344h-30.902344c-4.691406 0-8.527343 3.835938-8.527343 8.527344v71.992188c0 4.691406 3.835937 8.53125 8.527343 8.53125h30.902344c-4.691406 0-8.53125-3.839844-8.53125-8.53125zm0 0" fill="#fca60d"/><path d="m241.824219 278.628906h-15.277344c-4.6875 0-8.527344 3.835938-8.527344 8.527344v71.992188c0 4.691406 3.839844 8.53125 8.527344 8.53125h15.277344zm0 0" fill="#fecd0a"/><path d="m17.273438 302.371094h-10.5c1.625 6.78125 3.53125 13.453125 5.707031 20h4.792969c5.523437 0 10-4.476563 10-10 0-5.519532-4.476563-10-10-10zm0 0" fill="#fca60d"/><path d="m30.011719 332.15625h-14.035157c1.933594 5.082031 4.027344 10.085938 6.285157 15h7.75c4.144531 0 7.5-3.359375 7.5-7.5 0-4.144531-3.355469-7.5-7.5-7.5zm0 0" fill="#fce395"/><path d="m146.28125 322.371094h-17.160156c-5.523438 0-10-4.476563-10-10 0-5.519532 4.476562-10 10-10h17.160156c5.523438 0 10 4.480468 10 10 0 5.523437-4.476562 10-10 10zm0 0" fill="#fca60d"/><path d="m159.019531 347.15625h-42.636719c-4.144531 0-7.5-3.359375-7.5-7.5 0-4.144531 3.355469-7.5 7.5-7.5h42.636719c4.144531 0 7.5 3.355469 7.5 7.5 0 4.140625-3.355469 7.5-7.5 7.5zm0 0" fill="#fce395"/><path d="m195.558594 226.898438h-137.214844c-2.617188 0-4.738281 2.121093-4.738281 4.734374v16.285157c0 2.613281 2.121093 4.734375 4.738281 4.734375h137.214844zm0 0" fill="#e6f7fe"/><path d="m89.011719 247.917969v-16.285157c0-2.613281 2.121093-4.734374 4.734375-4.734374h-35.402344c-2.617188 0-4.738281 2.121093-4.738281 4.734374v16.285157c0 2.613281 2.121093 4.734375 4.738281 4.734375h35.402344c-2.613282.003906-4.734375-2.117188-4.734375-4.734375zm0 0" fill="#d5f1fe"/><path d="m213.082031 186.203125h-10.019531c-4.140625 0-7.5-3.355469-7.5-7.5 0-4.140625 3.359375-7.5 7.5-7.5h10.019531c4.140625 0 7.5 3.359375 7.5 7.5 0 4.144531-3.359375 7.5-7.5 7.5zm0 0" fill="#a2ec00"/><path d="m177.355469 186.203125h-10.019531c-4.140626 0-7.5-3.355469-7.5-7.5 0-4.140625 3.359374-7.5 7.5-7.5h10.019531c4.140625 0 7.5 3.359375 7.5 7.5 0 4.144531-3.359375 7.5-7.5 7.5zm0 0" fill="#a2ec00"/><path d="m217.0625 226.898438h-22.503906v25.757812h22.503906c2.613281 0 4.738281-2.121094 4.738281-4.738281v-16.28125c-.003906-2.617188-2.125-4.738281-4.738281-4.738281zm0 0" fill="#615df9"/><path d="m512 129.292969v338.078125c0 12.480468-10.148438 22.628906-22.628906 22.628906h-226.421875c-12.476563 0-22.625-10.148438-22.625-22.628906v-338.078125c0-12.476563 10.148437-22.628907 22.625-22.628907h226.421875c12.480468 0 22.628906 10.152344 22.628906 22.628907zm0 0" fill="#3d4ec6"/><path d="m309.144531 106.664062h-46.191406c-12.476563 0-22.628906 10.148438-22.628906 22.625v338.082032c0 12.476562 10.152343 22.628906 22.628906 22.628906h46.191406c-13.730469-10.445312 0-20.441406 0-20.441406v-342.453125c-11.640625-11.640625 0-20.441407 0-20.441407zm0 0" fill="#3342ae"/><path d="m260.765625 352.695312v114.675782c0 1.1875 1 2.1875 2.183594 2.1875h226.421875c1.1875 0 2.1875-1 2.1875-2.1875v-114.675782zm0 0" fill="#e6f7fe"/><path d="m309.035156 467.371094v-114.675782h-48.269531v114.675782c0 1.1875 1 2.1875 2.183594 2.1875h46.191406c-.066406-.71875-.105469-1.449219-.105469-2.1875zm0 0" fill="#d5f1fe"/><path d="m260.765625 169.285156v185.410156h49.769531v-29c0-6.082031 4.949219-11.03125 11.027344-11.03125h109.195312c6.082032 0 11.03125 4.949219 11.03125 11.03125v29h49.769532v-185.410156zm0 0" fill="#00c82f"/><path d="m260.765625 169.285156h48.269531v185.410156h-48.269531zm0 0" fill="#02ad22"/><path d="m323.46875 206.9375c0 9.925781-8.042969 17.96875-17.96875 17.96875s-17.96875-8.042969-17.96875-17.96875c0-9.921875 8.042969-17.96875 17.96875-17.96875s17.96875 8.046875 17.96875 17.96875zm0 0" fill="#d7f9b7"/><path d="m318 217.789062c-9.925781 0-17.96875-8.042968-17.96875-17.96875 0-4.039062 1.347656-7.753906 3.597656-10.753906-9.042968.9375-16.097656 8.582032-16.097656 17.871094 0 9.925781 8.042969 17.96875 17.96875 17.96875 5.886719 0 11.09375-2.839844 14.371094-7.214844-.613282.066406-1.238282.097656-1.871094.097656zm0 0" fill="#a2ec00"/><path d="m430.761719 437.984375h-109.199219c-6.890625 0-12.527344-5.636719-12.527344-12.527344v-99.761719c0-6.890624 5.636719-12.53125 12.527344-12.53125h109.199219c6.890625 0 12.527343 5.640626 12.527343 12.53125v99.761719c0 6.890625-5.636718 12.527344-12.527343 12.527344zm0 0" fill="#fecd0a"/><path d="m337.8125 425.457031v-99.761719c0-6.890624 5.636719-12.53125 12.527344-12.53125h-28.777344c-6.890625 0-12.527344 5.640626-12.527344 12.53125v99.761719c0 6.890625 5.636719 12.527344 12.527344 12.527344h28.777344c-6.890625 0-12.527344-5.636719-12.527344-12.527344zm0 0" fill="#fca60d"/><path d="m389.855469 360.070312h-25.875c-5.523438 0-10-4.476562-10-10 0-5.523437 4.476562-10 10-10h25.875c5.523437 0 10 4.476563 10 10 0 5.523438-4.476563 10-10 10zm0 0" fill="#fca60d"/><path d="m409.066406 412.132812h-64.296875c-4.140625 0-7.5-3.359374-7.5-7.5 0-4.140624 3.359375-7.5 7.5-7.5h64.296875c4.140625 0 7.5 3.359376 7.5 7.5 0 4.140626-3.359375 7.5-7.5 7.5zm0 0" fill="#fce395"/><path d="m409.066406 384.851562h-64.296875c-4.140625 0-7.5-3.359374-7.5-7.5 0-4.140624 3.359375-7.5 7.5-7.5h64.296875c4.140625 0 7.5 3.359376 7.5 7.5 0 4.140626-3.359375 7.5-7.5 7.5zm0 0" fill="#fce395"/><path d="m417.050781 259.746094h-103.277343c-2.617188 0-4.738282 2.121094-4.738282 4.738281v16.285156c0 2.613281 2.121094 4.734375 4.738282 4.734375h103.277343zm0 0" fill="#e6f7fe"/><path d="m339.035156 280.769531v-16.285156c0-2.617187 2.121094-4.738281 4.738282-4.738281h-30c-2.617188 0-4.738282 2.121094-4.738282 4.738281v16.285156c0 2.613281 2.121094 4.734375 4.738282 4.734375h30c-2.617188 0-4.738282-2.121094-4.738282-4.734375zm0 0" fill="#d5f1fe"/><path d="m438.550781 259.746094h-22.5v25.761718h22.5c2.617188 0 4.738281-2.121093 4.738281-4.738281v-16.285156c0-2.617187-2.121093-4.738281-4.738281-4.738281zm0 0" fill="#615df9"/><path d="m489.371094 127.105469h-226.421875c-1.183594 0-2.183594 1-2.183594 2.183593v40.996094h230.792969v-40.996094c0-1.183593-1-2.183593-2.1875-2.183593zm0 0" fill="#615df9"/><path d="m309.144531 127.105469h-46.191406c-1.1875 0-2.1875 1-2.1875 2.183593v40.996094h48.378906zm0 0" fill="#3d4ec6"/><path d="m284.988281 156.195312c-4.132812 0-7.5-3.367187-7.5-7.5 0-4.796874 4.421875-8.285156 8.960938-7.347656 3.542969.660156 6.039062 3.882813 6.039062 7.347656 0 3.988282-3.222656 7.5-7.5 7.5zm0 0" fill="#f948b4"/><path d="m326.019531 156.195312c-4.140625 0-7.5-3.375-7.5-7.5 0-4.746093 4.371094-8.296874 8.960938-7.347656 3.507812.65625 6.039062 3.847656 6.039062 7.347656 0 4.042969-3.285156 7.5-7.5 7.5zm0 0" fill="#39df74"/><path d="m422.5 156.195312h-70.75c-4.140625 0-7.5-3.359374-7.5-7.5 0-4.140624 3.359375-7.5 7.5-7.5h70.75c4.140625 0 7.5 3.359376 7.5 7.5 0 4.140626-3.355469 7.5-7.5 7.5zm0 0" fill="#aeaeff"/><path d="m399.75 148.695312c0-4.140624 3.359375-7.5 7.5-7.5h-55.5c-4.140625 0-7.5 3.359376-7.5 7.5 0 4.140626 3.359375 7.5 7.5 7.5h55.5c-4.140625 0-7.5-3.359374-7.5-7.5zm0 0" fill="#8181fc"/><path d="m470 156.195312h-25c-4.140625 0-7.5-3.359374-7.5-7.5 0-4.140624 3.359375-7.5 7.5-7.5h25c4.140625 0 7.5 3.359376 7.5 7.5 0 4.140626-3.355469 7.5-7.5 7.5zm0 0" fill="#aeaeff"/><g fill="#a2ec00"><path d="m470 199.820312h-8.75c-4.140625 0-7.5-3.355468-7.5-7.5 0-4.140624 3.359375-7.5 7.5-7.5h8.75c4.140625 0 7.5 3.359376 7.5 7.5 0 4.144532-3.355469 7.5-7.5 7.5zm0 0"/><path d="m438.792969 199.820312h-8.75c-4.140625 0-7.5-3.355468-7.5-7.5 0-4.140624 3.359375-7.5 7.5-7.5h8.75c4.140625 0 7.5 3.359376 7.5 7.5 0 4.144532-3.359375 7.5-7.5 7.5zm0 0"/><path d="m407.585938 199.820312h-8.75c-4.144532 0-7.5-3.355468-7.5-7.5 0-4.140624 3.355468-7.5 7.5-7.5h8.75c4.140624 0 7.5 3.359376 7.5 7.5 0 4.144532-3.359376 7.5-7.5 7.5zm0 0"/><path d="m376.375 199.820312h-8.75c-4.140625 0-7.5-3.355468-7.5-7.5 0-4.140624 3.359375-7.5 7.5-7.5h8.75c4.140625 0 7.5 3.359376 7.5 7.5 0 4.144532-3.355469 7.5-7.5 7.5zm0 0"/></g></svg>