<svg height="512pt" viewBox="-11 0 512 512" width="512pt" xmlns="http://www.w3.org/2000/svg"><path d="m465.660156 373.558594c15.585938-32.21875 24.339844-68.363282 24.339844-106.558594 0-135.308594-109.691406-245-245-245-70.085938 0-133.292969 29.433594-177.949219 76.609375l240.546875 405.308594c46.550782-12.269531 87.675782-37.898438 119.039063-72.527344zm0 0" fill="#f948b4"/><path d="m152.234375 48.761719v50.351562h150.652344c2.507812 0 4.546875 2.039063 4.546875 4.546875v327.816406h119.144531c15.652344-17.265624 28.875-36.777343 39.125-57.988281v-324.726562zm0 0" fill="#27a3ff"/><path d="m152.234375 48.761719h89.515625v50.351562h-89.515625zm0 0" fill="#0080f4"/><path d="m31.746094 146.335938c-20.199219 35.621093-31.746094 76.789062-31.746094 120.664062 0 135.308594 109.691406 245 245 245 22.132812 0 43.574219-2.953125 63.96875-8.453125v-357.210937zm0 0" fill="#e6f7fe"/><path d="m81.410156 146.335938h-49.664062c-20.199219 35.621093-31.746094 76.789062-31.746094 120.664062 0 72.433594 31.441406 137.511719 81.410156 182.367188zm0 0" fill="#d5f1fe"/><path d="m409.171875 89.59375h-59.777344c-7.644531 0-13.839843 6.195312-13.839843 13.835938 0 7.644531 6.195312 13.839843 13.839843 13.839843h26.4375l-151.863281 152.296875v-26.304687c0-7.640625-6.195312-13.835938-13.835938-13.835938-7.644531 0-13.839843 6.195313-13.839843 13.835938v59.785156c.007812 7.769531 6.339843 13.832031 13.839843 13.832031h59.773438c7.644531 0 13.839844-6.195312 13.839844-13.839844 0-7.640624-6.195313-13.835937-13.839844-13.835937h-26.4375l151.863281-152.300781v26.304687c0 7.644531 6.195313 13.839844 13.839844 13.839844 7.640625 0 13.835937-6.195313 13.835937-13.839844v-59.785156c-.007812-7.621094-6.203124-13.828125-13.835937-13.828125zm0 0" fill="#4fbbff"/><path d="m302.886719 97.574219h-234.855469c-14.277344 14.910156-26.679688 31.625-36.851562 49.761719h277.792968l-.003906-43.675782c0-3.359375-2.722656-6.085937-6.082031-6.085937zm0 0" fill="#615df9"/><path d="m81.410156 109.574219c0-6.597657 5.398438-12 12-12h-25.378906c-14.277344 14.910156-26.679688 31.625-36.851562 49.761719h50.230468zm0 0" fill="#3d4ec6"/><path d="m60.363281 132.226562c-5.621093 0-10.25-4.578124-10.25-10.25 0-4.847656 3.394531-9.066406 8.25-10.054687 6.175781-1.257813 12.246094 3.5 12.246094 10.054687 0 5.648438-4.597656 10.25-10.246094 10.25zm0 0" fill="#fecd0a"/><path d="m91.65625 132.226562c-5.542969 0-10.246094-4.503906-10.246094-10.25 0-4.828124 3.375-9.0625 8.25-10.054687 6.265625-1.257813 12.246094 3.554687 12.246094 10.054687 0 5.648438-4.597656 10.25-10.25 10.25zm0 0" fill="#39df74"/><path d="m279.351562 130.144531h-26.992187c-4.246094 0-7.683594-3.441406-7.683594-7.6875 0-4.246093 3.441407-7.6875 7.683594-7.6875h26.992187c4.246094 0 7.6875 3.441407 7.6875 7.6875 0 4.246094-3.441406 7.6875-7.6875 7.6875zm0 0" fill="#aeaeff"/><path d="m213.742188 130.144531h-82.199219c-4.246094 0-7.6875-3.441406-7.6875-7.6875 0-4.246093 3.441406-7.6875 7.6875-7.6875h82.199219c4.246093 0 7.6875 3.441407 7.6875 7.6875 0 4.246094-3.441407 7.6875-7.6875 7.6875zm0 0" fill="#aeaeff"/><path d="m460.675781 0h-302.574219c-3.242187 0-5.867187 2.625-5.867187 5.863281v43.898438h313.46875v-44.730469c0-2.785156-2.257813-5.03125-5.027344-5.03125zm0 0" fill="#615df9"/><path d="m241.75 12c0-6.601562 5.398438-12 12-12h-95.648438c-3.242187 0-5.867187 2.625-5.867187 5.863281v43.898438h89.515625zm0 0" fill="#3d4ec6"/><path d="m189.476562 34.652344c-5.691406 0-10.25-4.671875-10.25-10.25 0-6.480469 5.976563-11.320313 12.257813-10.054688 4.808594.992188 8.242187 5.152344 8.242187 10.054688 0 5.773437-4.722656 10.25-10.25 10.25zm0 0" fill="#f948b4"/><path d="m220.738281 34.652344c-4.765625 0-9.046875-3.34375-10.042969-8.253906-1.457031-7.148438 4.941407-13.484376 12.050782-12.050782 4.808594.992188 8.242187 5.152344 8.242187 10.054688 0 5.773437-4.722656 10.25-10.25 10.25zm0 0" fill="#fecd0a"/><path d="m252 34.652344c-5.679688 0-10.25-4.660156-10.25-10.25 0-6.484375 5.980469-11.320313 12.257812-10.054688 4.917969 1.011719 8.242188 5.269532 8.242188 10.054688 0 5.703125-4.660156 10.25-10.25 10.25zm0 0" fill="#39df74"/><path d="m436.089844 32.566406h-26.992188c-4.246094 0-7.6875-3.441406-7.6875-7.6875s3.441406-7.6875 7.6875-7.6875h26.992188c4.246094 0 7.683594 3.441406 7.683594 7.6875s-3.4375 7.6875-7.683594 7.6875zm0 0" fill="#aeaeff"/><path d="m370.480469 32.566406h-77.84375c-4.246094 0-7.6875-3.441406-7.6875-7.6875s3.441406-7.6875 7.6875-7.6875h77.84375c4.242187 0 7.683593 3.441406 7.683593 7.6875s-3.441406 7.6875-7.683593 7.6875zm0 0" fill="#aeaeff"/><path d="m189.476562 122.457031c0-4.246093 3.445313-7.6875 7.6875-7.6875h-65.621093c-4.246094 0-7.6875 3.441407-7.6875 7.6875 0 4.246094 3.441406 7.6875 7.6875 7.6875h65.621093c-4.242187 0-7.6875-3.441406-7.6875-7.6875zm0 0" fill="#8181fc"/><path d="m350.570312 24.878906c0-4.246094 3.445313-7.6875 7.6875-7.6875h-65.621093c-4.246094 0-7.6875 3.441406-7.6875 7.6875s3.441406 7.6875 7.6875 7.6875h65.621093c-4.242187 0-7.6875-3.441406-7.6875-7.6875zm0 0" fill="#8181fc"/><path d="m269.90625 289.203125h-26.4375l65.097656-65.28125c-12.371094 3.605469-23.375-8.648437-18.625-20.515625l-65.972656 66.160156v-26.300781c0-7.644531-6.195312-13.839844-13.835938-13.839844-7.644531 0-13.839843 6.195313-13.839843 13.839844v59.78125c.007812 7.769531 6.339843 13.832031 13.835937 13.832031h59.777344c7.644531 0 13.835938-6.195312 13.835938-13.839844.003906-7.640624-6.191407-13.835937-13.835938-13.835937zm0 0" fill="#27a3ff"/></svg>