<svg height="512pt" viewBox="0 -11 512 512" width="512pt" xmlns="http://www.w3.org/2000/svg"><path d="m245 0c-66.386719 0-126.597656 26.417969-170.71875 69.296875l3.789062 355.011719c30.195313 28.121094 67.492188 48.710937 108.910157 58.773437l114.089843.464844c108.285157-25.355469 188.929688-122.53125 188.929688-238.546875 0-135.308594-109.691406-245-245-245zm0 0" fill="#27a3ff"/><path d="m299.839844 423.390625h-111.832032l-2.046874 39.164063c-.347657 6.609374-1.367188 13.140624-3.011719 19.511718 19.816406 5.171875 40.609375 7.933594 62.050781 7.933594 20.738281 0 40.867188-2.589844 60.101562-7.4375-1.726562-6.511719-2.796874-13.203125-3.160156-19.96875zm0 0" fill="#86fdfb"/><path d="m206.511719 450.058594h74.847656c8.46875 0 15.984375 4.242187 20.488281 10.757812l-2.007812-37.425781h-111.832032l-1.957031 37.386719c4.507813-6.492188 12.007813-10.71875 20.460938-10.71875zm0 0" fill="#11dfef"/><path d="m243.972656 370.5625 243.976563 1.558594v-285.414063c0-10.109375-8.273438-18.382812-18.382813-18.382812-10.382812 0-275.128906 0-394.296875 0-46.394531 44.578125-75.269531 107.253906-75.269531 176.675781 0 46.457031 12.941406 89.882812 35.398438 126.894531zm0 0" fill="#2b3894"/><path d="m121.863281 78.929688c0-3.898438 1.15625-7.53125 3.125-10.605469-18.269531 0-35.09375 0-49.71875 0-46.394531 44.578125-75.269531 107.253906-75.269531 176.675781 0 46.457031 12.941406 89.882812 35.398438 126.894531l86.464843-.550781zm0 0" fill="#232e7a"/><path d="m79.082031 425.253906h390.484375c10.109375 0 18.382813-8.273437 18.382813-18.382812v-37.53125c-18.890625 0-343.515625 0-454.082031 0 12.28125 20.808594 27.546874 39.644531 45.214843 55.914062zm0 0" fill="#e6f7fe"/><path d="m121.863281 406.484375v-37.144531c-35.132812 0-65.855469 0-87.996093 0 12.28125 20.808594 27.546874 39.644531 45.214843 55.914062h56.394531c-7.878906-2.605468-13.613281-10.042968-13.613281-18.769531zm0 0" fill="#d5f1fe"/><path d="m256.554688 397.296875c0 6.949219-5.632813 12.582031-12.582032 12.582031-6.945312 0-12.578125-5.632812-12.578125-12.582031s5.632813-12.582031 12.578125-12.582031c6.949219 0 12.582032 5.632812 12.582032 12.582031zm0 0" fill="#d5f1fe"/><path d="m462.785156 342.699219c0-22.109375 0-144.496094 0-210.015625-7.175781-13.890625-15.640625-27.011719-25.242187-39.195313h-385.085938c-10.535156 13.371094-19.695312 27.867188-27.296875 43.277344v28.664063 177.269531c0 .789062.644532 1.433593 1.4375 1.433593h434.757813c.789062 0 1.429687-.644531 1.429687-1.433593zm0 0" fill="#8181fc"/><path d="m121.863281 93.488281h-69.40625c-10.535156 13.371094-19.695312 27.867188-27.296875 43.277344v28.664063 177.269531c0 .789062.644532 1.433593 1.4375 1.433593h95.265625zm0 0" fill="#615df9"/><path d="m94.667969 91.453125v213.175781c0 5.230469 4.242187 9.472656 9.472656 9.472656h398.386719c5.230468 0 9.472656-4.242187 9.472656-9.472656v-213.175781zm0 0" fill="#e6f7fe"/><path d="m172.804688 304.476562v-213.023437h-78.136719v213.175781c0 5.230469 4.242187 9.472656 9.472656 9.472656h73.390625c-2.871094-2.242187-4.726562-5.722656-4.726562-9.625zm0 0" fill="#d5f1fe"/><path d="m502.527344 44.117188h-398.386719c-5.230469 0-9.472656 4.242187-9.472656 9.476562v39.894531h417.332031v-39.894531c0-5.234375-4.242188-9.476562-9.472656-9.476562zm0 0" fill="#615df9"/><path d="m172.804688 53.746094c0-3.902344 1.855468-7.382813 4.726562-9.628906h-73.390625c-5.230469 0-9.472656 4.242187-9.472656 9.476562v39.894531h78.136719zm0 0" fill="#3d4ec6"/><path d="m470.886719 121.796875h-60.332031c-7.070313 0-12.804688 5.730469-12.804688 12.804687v138.386719c0 7.070313 5.734375 12.804688 12.804688 12.804688h60.332031c7.070312 0 12.804687-5.734375 12.804687-12.804688v-138.386719c0-7.074218-5.730468-12.804687-12.804687-12.804687zm0 0" fill="#fecd0a"/><path d="m429.753906 272.988281v-138.386719c0-7.070312 5.730469-12.804687 12.804688-12.804687h-32c-7.074219 0-12.804688 5.734375-12.804688 12.804687v138.386719c0 7.074219 5.730469 12.804688 12.804688 12.804688h32c-7.074219 0-12.804688-5.730469-12.804688-12.804688zm0 0" fill="#fca60d"/><path d="m357.539062 121.796875h-223.449218c-6.753906 0-12.226563 5.472656-12.226563 12.226563v139.542968c0 6.753906 5.472657 12.226563 12.226563 12.226563h223.449218c6.753907 0 12.226563-5.472657 12.226563-12.226563v-139.542968c0-6.753907-5.472656-12.226563-12.226563-12.226563zm0 0" fill="#f948b4"/><path d="m134.089844 121.796875c-6.753906 0-12.226563 5.472656-12.226563 12.226563v139.542968c0 6.753906 5.472657 12.226563 12.226563 12.226563h38.714844v-163.996094zm0 0" fill="#e00e8b"/><path d="m259.636719 203.796875 109.78125-72.625c-1.285157-5.375-6.109375-9.375-11.875-9.375h-1.597657l-110.132812 72.855469-110.128906-72.855469h-1.597656c-5.769532 0-10.589844 4-11.875 9.375l109.78125 72.625-109.78125 72.621094c1.285156 5.375 6.109374 9.375 11.875 9.375h1.597656l110.128906-72.855469 110.128906 72.855469h1.597656c5.769532 0 10.589844-4 11.878907-9.375zm0 0" fill="#fc7acd"/><path d="m474.765625 122.398438-34.042969 64.964843-34.042968-64.964843c-5.175782 1.644531-8.925782 6.484374-8.925782 12.203124v3.625l34.359375 65.566407-34.359375 65.566406v3.628906c0 5.71875 3.75 10.558594 8.925782 12.203125l34.042968-64.96875 34.042969 64.96875c5.175781-1.644531 8.925781-6.484375 8.925781-12.203125v-3.628906l-34.359375-65.566406 34.359375-65.566407v-3.625c0-5.71875-3.75-10.558593-8.925781-12.203124zm0 0" fill="#fce395"/><path d="m129.628906 78.300781c6.339844 1.265625 12.160156-3.644531 12.160156-9.976562 0-4.75-3.308593-8.976563-8.1875-9.964844-6.136718-1.242187-12.148437 3.433594-12.148437 9.964844-.003906 4.804687 3.347656 8.980469 8.175781 9.976562zm0 0" fill="#f948b4"/><path d="m162.636719 78.492188c5.65625 0 10.167969-4.609376 10.167969-10.167969 0-4.796875-3.355469-8.984375-8.1875-9.964844-6.171876-1.246094-12.148438 3.46875-12.148438 9.964844-.003906 5.542969 4.488281 10.167969 10.167969 10.167969zm0 0" fill="#fecd0a"/><path d="m193.648438 78.492188c5.660156 0 10.171874-4.609376 10.171874-10.167969 0-4.683594-3.246093-8.960938-8.1875-9.964844-6.210937-1.253906-12.152343 3.507813-12.152343 9.964844 0 5.570312 4.507812 10.167969 10.167969 10.167969zm0 0" fill="#39df74"/><path d="m429.058594 76.429688h53.558594c4.210937 0 7.625-3.414063 7.625-7.625 0-4.214844-3.414063-7.628907-7.625-7.628907h-53.558594c-4.214844 0-7.628906 3.414063-7.628906 7.628907 0 4.210937 3.414062 7.625 7.628906 7.625zm0 0" fill="#aeaeff"/><path d="m242.097656 76.429688h148.644532c4.210937 0 7.628906-3.414063 7.628906-7.625 0-4.214844-3.417969-7.628907-7.628906-7.628907h-148.644532c-4.210937 0-7.625 3.414063-7.625 7.628907 0 4.210937 3.414063 7.625 7.625 7.625zm0 0" fill="#aeaeff"/><path d="m352.472656 68.804688c0-4.214844 3.414063-7.628907 7.625-7.628907h-118c-4.210937 0-7.625 3.414063-7.625 7.628907 0 4.210937 3.414063 7.625 7.625 7.625h118c-4.210937 0-7.625-3.414063-7.625-7.625zm0 0" fill="#8181fc"/></svg>