<svg height="512pt" viewBox="0 0 512 512" width="512pt" xmlns="http://www.w3.org/2000/svg"><path d="m51.230469 401.53125c14.910156 22.644531 33.46875 42.671875 54.847656 59.238281l41.367187 25.90625c32.71875 16.203125 69.566407 25.324219 108.554688 25.324219 38.984375 0 75.835938-9.121094 108.558594-25.324219l41.363281-25.90625c21.378906-16.566406 39.9375-36.589843 54.847656-59.238281l25.90625-51.835938c9.265625-25.835937 14.324219-53.675781 14.324219-82.695312 0-135.308594-109.691406-245-245-245s-245 109.691406-245 245c0 29.019531 5.058594 56.859375 14.324219 82.695312zm0 0" fill="#f948b4"/><path d="m217.722656 51.230469h-141.171875c-7.152343 0-12.953125-5.800781-12.953125-12.953125 0-7.15625 5.800782-12.953125 12.953125-12.953125h141.171875c7.15625 0 12.953125 5.796875 12.953125 12.953125 0 7.152344-5.796875 12.953125-12.953125 12.953125zm0 0" fill="#86fdfb"/><path d="m217.722656 25.320312h-65.996094c7.152344 0 12.949219 5.800782 12.949219 12.953126 0 7.15625-5.796875 12.953124-12.949219 12.953124h65.996094c7.15625 0 12.953125-5.796874 12.953125-12.953124 0-7.152344-5.796875-12.953126-12.953125-12.953126zm0 0" fill="#11dfef"/><path d="m435.449219 51.230469h-141.171875c-7.15625 0-12.953125-5.800781-12.953125-12.953125 0-7.15625 5.796875-12.953125 12.953125-12.953125h141.171875c7.152343 0 12.953125 5.796875 12.953125 12.953125 0 7.152344-5.800782 12.953125-12.953125 12.953125zm0 0" fill="#86fdfb"/><path d="m435.449219 25.320312h-66c7.152343 0 12.953125 5.800782 12.953125 12.953126 0 7.15625-5.800782 12.953124-12.953125 12.953124h66c7.152343 0 12.953125-5.796874 12.953125-12.953124 0-7.152344-5.800782-12.953126-12.953125-12.953126zm0 0" fill="#11dfef"/><path d="m217.722656 460.769531h-111.644531c12.835937 9.945313 26.683594 18.636719 41.367187 25.90625h70.277344c7.15625 0 12.953125-5.796875 12.953125-12.953125 0-7.152344-5.796875-12.953125-12.953125-12.953125zm0 0" fill="#86fdfb"/><path d="m217.722656 460.769531h-65.996094c7.152344 0 12.949219 5.800781 12.949219 12.953125 0 7.15625-5.796875 12.953125-12.949219 12.953125h65.996094c7.15625 0 12.953125-5.800781 12.953125-12.953125s-5.796875-12.953125-12.953125-12.953125zm0 0" fill="#11dfef"/><g fill="#86fdfb"><path d="m294.277344 460.769531c-7.15625 0-12.953125 5.800781-12.953125 12.953125 0 7.15625 5.796875 12.953125 12.953125 12.953125h70.28125c14.679687-7.269531 28.527344-15.960937 41.363281-25.90625zm0 0"/><path d="m38.277344 281.324219c-7.15625 0-12.957032 5.796875-12.957032 12.953125v55.414062c6.597657 18.402344 15.335938 35.777344 25.910157 51.839844v-107.253906c0-7.15625-5.800781-12.953125-12.953125-12.953125zm0 0"/><path d="m38.277344 230.675781c-7.15625 0-12.953125-5.796875-12.953125-12.953125v-141.171875c0-7.152343 5.796875-12.953125 12.953125-12.953125 7.152344 0 12.953125 5.800782 12.953125 12.953125v141.171875c0 7.15625-5.800781 12.953125-12.953125 12.953125zm0 0"/><path d="m486.675781 349.695312v-55.417968c0-7.15625-5.796875-12.953125-12.953125-12.953125-7.152344 0-12.953125 5.800781-12.953125 12.953125v107.253906c10.574219-16.0625 19.3125-33.4375 25.90625-51.835938zm0 0"/><path d="m473.722656 230.675781c-7.152344 0-12.953125-5.796875-12.953125-12.953125v-141.171875c0-7.152343 5.800781-12.953125 12.953125-12.953125 7.15625 0 12.953125 5.800782 12.953125 12.953125v141.171875c0 7.15625-5.796875 12.953125-12.953125 12.953125zm0 0"/></g><path d="m38.277344 172.300781c-7.15625 0-12.957032-5.796875-12.957032-12.953125v58.375c0 7.15625 5.800782 12.953125 12.957032 12.953125 7.152344 0 12.953125-5.800781 12.953125-12.953125v-58.371094c0 7.152344-5.800781 12.949219-12.953125 12.949219zm0 0" fill="#11dfef"/><path d="m473.722656 172.300781c-7.152344 0-12.953125-5.796875-12.953125-12.953125v58.375c0 7.15625 5.800781 12.953125 12.953125 12.953125 7.15625 0 12.953125-5.800781 12.953125-12.953125v-58.371094c0 7.152344-5.796875 12.949219-12.953125 12.949219zm0 0" fill="#11dfef"/><path d="m62.625 0h-48.699219c-7.660156 0-13.925781 6.265625-13.925781 13.925781v48.699219c0 7.660156 6.265625 13.925781 13.925781 13.925781h48.699219c7.65625 0 13.925781-6.265625 13.925781-13.925781v-48.699219c0-7.660156-6.265625-13.925781-13.925781-13.925781zm0 0" fill="#8181fc"/><path d="m45.6875 60.382812c.070312 0 .140625.007813.210938.007813v-44.144531c-.070313 0-.140626.011718-.210938.011718-4.6875 0-8.484375-3.800781-8.484375-8.484374 0-3.476563 2.09375-6.460938 5.085937-7.773438h-28.363281c-7.660156 0-13.925781 6.265625-13.925781 13.925781v48.699219c0 7.660156 6.265625 13.925781 13.925781 13.925781h28.183594c-2.894531-1.351562-4.90625-4.28125-4.90625-7.6875 0-4.683593 3.796875-8.480469 8.484375-8.480469zm0 0" fill="#615df9"/><path d="m54.570312 15.542969h-32.585937c-3.550781 0-6.4375 2.890625-6.4375 6.4375v32.589843c0 3.546876 2.886719 6.4375 6.4375 6.4375h32.585937c3.546876 0 6.4375-2.890624 6.4375-6.4375v-32.589843c0-3.546875-2.890624-6.4375-6.4375-6.4375zm0 0" fill="#3d4ec6"/><path d="m36.378906 54.570312v-32.589843c0-3.546875 2.886719-6.4375 6.4375-6.4375h-20.832031c-3.550781 0-6.4375 2.890625-6.4375 6.4375v32.589843c0 3.546876 2.886719 6.4375 6.4375 6.4375h20.832031c-3.550781 0-6.4375-2.890624-6.4375-6.4375zm0 0" fill="#3342ae"/><path d="m280.347656 0h-48.695312c-7.660156 0-13.925782 6.265625-13.925782 13.925781v48.699219c0 7.660156 6.265626 13.925781 13.925782 13.925781h48.695312c7.660156 0 13.929688-6.265625 13.929688-13.925781v-48.699219c0-7.660156-6.269532-13.925781-13.929688-13.925781zm0 0" fill="#8181fc"/><path d="m263.414062 60.382812c.070313 0 .136719.007813.207032.007813v-44.144531c-.070313.003906-.136719.011718-.207032.011718-4.6875 0-8.488281-3.800781-8.488281-8.484374 0-3.476563 2.09375-6.460938 5.085938-7.773438h-28.359375c-7.660156 0-13.929688 6.269531-13.929688 13.925781v48.699219c0 7.660156 6.269532 13.925781 13.929688 13.925781h28.179687c-2.894531-1.351562-4.90625-4.277343-4.90625-7.683593 0-4.6875 3.800781-8.484376 8.488281-8.484376zm0 0" fill="#615df9"/><path d="m272.292969 15.542969h-32.585938c-3.550781 0-6.4375 2.890625-6.4375 6.4375v32.589843c0 3.546876 2.886719 6.4375 6.4375 6.4375h32.585938c3.550781 0 6.4375-2.890624 6.4375-6.4375v-32.585937c0-3.550781-2.886719-6.441406-6.4375-6.441406zm0 0" fill="#3d4ec6"/><path d="m254.101562 54.570312v-32.585937c0-3.550781 2.890626-6.4375 6.4375-6.4375h-20.832031c-3.550781 0-6.4375 2.886719-6.4375 6.4375v32.585937c0 3.550782 2.886719 6.4375 6.4375 6.4375h20.832031c-3.546874 0-6.4375-2.890624-6.4375-6.4375zm0 0" fill="#3342ae"/><path d="m498.074219 0h-48.699219c-7.660156 0-13.925781 6.265625-13.925781 13.925781v48.699219c0 7.660156 6.265625 13.925781 13.925781 13.925781h48.699219c7.65625 0 13.925781-6.265625 13.925781-13.925781v-48.699219c0-7.660156-6.269531-13.925781-13.925781-13.925781zm0 0" fill="#8181fc"/><path d="m481.136719 60.382812c.070312 0 .140625.007813.210937.007813v-44.144531c-.070312.003906-.140625.011718-.210937.011718-4.6875 0-8.484375-3.800781-8.484375-8.484374 0-3.476563 2.089844-6.460938 5.085937-7.773438h-28.363281c-7.660156 0-13.929688 6.269531-13.929688 13.925781v48.699219c0 7.660156 6.269532 13.925781 13.929688 13.925781h28.183594c-2.898438-1.351562-4.910156-4.277343-4.910156-7.683593.003906-4.6875 3.800781-8.484376 8.488281-8.484376zm0 0" fill="#615df9"/><path d="m490.015625 15.542969h-32.585937c-3.546876 0-6.4375 2.890625-6.4375 6.4375v32.589843c0 3.546876 2.890624 6.4375 6.4375 6.4375h32.585937c3.550781 0 6.441406-2.890624 6.441406-6.4375v-32.585937c0-3.550781-2.890625-6.441406-6.441406-6.441406zm0 0" fill="#3d4ec6"/><path d="m471.824219 54.570312v-32.585937c0-3.550781 2.890625-6.4375 6.441406-6.4375h-20.835937c-3.546876 0-6.4375 2.886719-6.4375 6.4375v32.585937c0 3.550782 2.886718 6.4375 6.4375 6.4375h20.835937c-3.550781 0-6.441406-2.890624-6.441406-6.4375zm0 0" fill="#3342ae"/><path d="m62.625 217.722656h-48.699219c-7.660156 0-13.925781 6.269532-13.925781 13.929688v48.695312c0 7.660156 6.265625 13.929688 13.925781 13.929688h48.699219c7.65625 0 13.925781-6.269532 13.925781-13.929688v-48.695312c0-7.660156-6.265625-13.929688-13.925781-13.929688zm0 0" fill="#8181fc"/><path d="m45.6875 278.105469c.070312 0 .140625.007812.210938.011719v-44.148438c-.070313.003906-.140626.011719-.210938.011719-4.6875 0-8.484375-3.796875-8.484375-8.484375 0-3.476563 2.09375-6.460938 5.085937-7.773438h-28.363281c-7.660156 0-13.925781 6.269532-13.925781 13.929688v48.695312c0 7.660156 6.265625 13.929688 13.925781 13.929688h28.183594c-2.894531-1.351563-4.90625-4.28125-4.90625-7.6875 0-4.6875 3.796875-8.484375 8.484375-8.484375zm0 0" fill="#615df9"/><path d="m54.570312 233.265625h-32.585937c-3.550781 0-6.4375 2.890625-6.4375 6.441406v32.585938c0 3.550781 2.886719 6.4375 6.4375 6.4375h32.585937c3.546876 0 6.4375-2.886719 6.4375-6.4375v-32.585938c0-3.550781-2.890624-6.441406-6.4375-6.441406zm0 0" fill="#3d4ec6"/><path d="m36.378906 272.292969v-32.585938c0-3.550781 2.886719-6.4375 6.4375-6.4375h-20.832031c-3.550781 0-6.4375 2.886719-6.4375 6.4375v32.585938c0 3.550781 2.886719 6.4375 6.4375 6.4375h20.832031c-3.550781 0-6.4375-2.886719-6.4375-6.4375zm0 0" fill="#3342ae"/><path d="m498.074219 217.722656h-48.699219c-7.660156 0-13.925781 6.269532-13.925781 13.929688v48.695312c0 7.660156 6.265625 13.929688 13.925781 13.929688h48.699219c7.65625 0 13.925781-6.269532 13.925781-13.929688v-48.695312c0-7.660156-6.269531-13.929688-13.925781-13.929688zm0 0" fill="#8181fc"/><path d="m481.136719 278.105469c.070312 0 .140625.007812.210937.011719v-44.148438c-.070312.003906-.140625.011719-.210937.011719-4.6875 0-8.484375-3.796875-8.484375-8.484375 0-3.476563 2.089844-6.460938 5.085937-7.773438h-28.363281c-7.660156 0-13.929688 6.269532-13.929688 13.929688v48.695312c0 7.660156 6.269532 13.929688 13.929688 13.929688h28.183594c-2.898438-1.351563-4.910156-4.28125-4.910156-7.6875.003906-4.6875 3.800781-8.484375 8.488281-8.484375zm0 0" fill="#615df9"/><path d="m490.015625 233.269531h-32.585937c-3.546876 0-6.4375 2.886719-6.4375 6.4375v32.585938c0 3.550781 2.890624 6.4375 6.4375 6.4375h32.585937c3.550781 0 6.441406-2.886719 6.441406-6.4375v-32.585938c0-3.550781-2.890625-6.4375-6.441406-6.4375zm0 0" fill="#3d4ec6"/><path d="m471.824219 272.292969v-32.585938c0-3.550781 2.890625-6.4375 6.441406-6.4375h-20.835937c-3.546876 0-6.4375 2.886719-6.4375 6.4375v32.585938c0 3.550781 2.886718 6.4375 6.4375 6.4375h20.835937c-3.550781 0-6.441406-2.886719-6.441406-6.4375zm0 0" fill="#3342ae"/><path d="m280.347656 435.449219h-48.695312c-7.660156 0-13.925782 6.265625-13.925782 13.925781v48.695312c0 7.660157 6.265626 13.929688 13.925782 13.929688h48.695312c7.660156 0 13.929688-6.269531 13.929688-13.929688v-48.695312c0-7.660156-6.269532-13.925781-13.929688-13.925781zm0 0" fill="#8181fc"/><path d="m263.414062 495.828125c.070313 0 .136719.011719.207032.011719v-44.144532c-.070313 0-.136719.011719-.207032.011719-4.6875 0-8.488281-3.800781-8.488281-8.484375 0-3.476562 2.09375-6.460937 5.085938-7.773437h-28.359375c-7.660156 0-13.929688 6.265625-13.929688 13.925781v48.699219c0 7.65625 6.269532 13.925781 13.929688 13.925781h28.179687c-2.894531-1.351562-4.90625-4.28125-4.90625-7.6875 0-4.683594 3.800781-8.484375 8.488281-8.484375zm0 0" fill="#615df9"/><path d="m272.292969 450.992188h-32.585938c-3.550781 0-6.4375 2.886718-6.4375 6.4375v32.585937c0 3.550781 2.886719 6.4375 6.4375 6.4375h32.585938c3.550781 0 6.4375-2.886719 6.4375-6.4375v-32.585937c0-3.546876-2.886719-6.4375-6.4375-6.4375zm0 0" fill="#3d4ec6"/><path d="m254.101562 490.019531v-32.589843c0-3.546876 2.890626-6.4375 6.4375-6.4375h-20.832031c-3.550781 0-6.4375 2.890624-6.4375 6.4375v32.589843c0 3.546875 2.886719 6.4375 6.4375 6.4375h20.832031c-3.546874 0-6.4375-2.890625-6.4375-6.4375zm0 0" fill="#3342ae"/><path d="m391.957031 406.601562h-271.914062c-8.054688 0-14.648438-6.589843-14.648438-14.648437v-271.910156c0-8.054688 6.59375-14.648438 14.648438-14.648438h271.914062c8.054688 0 14.648438 6.59375 14.648438 14.648438v271.914062c0 8.054688-6.59375 14.644531-14.648438 14.644531zm0 0" fill="#4fbbff"/><path d="m105.394531 120.042969v271.914062c0 8.054688 6.59375 14.648438 14.648438 14.648438h90.589843c-.210937-8.5 7.089844-13.992188 7.089844-13.992188s24.140625-13.847656-3.859375-28.0625c-28-14.210937 3.496094-42.042969 3.496094-42.042969s60.503906-37.742187 21.503906-62.242187c-29.085937-18.269531-26.546875-38.71875-23.375-47.9375 1.101563-3.199219.410157-6.734375-1.746093-9.339844-13.824219-16.703125-9.085938-30.636719-4.59375-37.882812 2.046874-3.3125 1.902343-7.570313-.390626-10.714844-9.460937-12.960937-4.824218-23.746094-.328124-29.785156 2.363281-3.167969 2.472656-7.46875.417968-10.847657-1.820312-2.988281-2.621094-5.796874-2.765625-8.363281h-86.039062c-8.054688 0-14.648438 6.59375-14.648438 14.648438zm0 0" fill="#27a3ff"/><path d="m357.789062 218.363281c-6.210937 10.425781-17.597656 17.429688-30.589843 17.429688-19.621094 0-35.585938-15.964844-35.585938-35.589844 0-1.675781.125-3.324219.351563-4.941406-1.945313-1.449219-3.894532-2.953125-5.859375-4.5625-29.597657-24.289063-58-31.476563-81.582031-31.246094-53.699219.523437-81.300782 37.957031-95.230469 47.554687 0 0-1.367188 1.214844-3.898438 3.105469v181.839844c0 8.054687 6.59375 14.648437 14.648438 14.648437h271.910156c8.058594 0 14.648437-6.59375 14.648437-14.648437v-188.546875c-13.011718 7.742188-29.632812 14.414062-48.8125 14.957031zm0 0" fill="#27a3ff"/><path d="m217.722656 392.613281s24.140625-13.847656-3.859375-28.0625c-28-14.214843 3.496094-42.042969 3.496094-42.042969s60.503906-37.742187 21.503906-62.242187c-29.085937-18.269531-26.546875-38.71875-23.375-47.9375 1.101563-3.199219.410157-6.738281-1.746093-9.34375-13.824219-16.699219-9.085938-30.632813-4.59375-37.882813 1.046874-1.691406 1.511718-3.625 1.421874-5.539062-2.046874-.089844-4.066406-.128906-6.042968-.109375-53.703125.523437-81.304688 37.957031-95.234375 47.554687 0 0-1.367188 1.214844-3.898438 3.109376v181.835937c0 8.058594 6.59375 14.648437 14.648438 14.648437h90.589843c-.210937-8.496093 7.089844-13.988281 7.089844-13.988281zm0 0" fill="#0080f4"/><path d="m364.304688 200.203125c0 20.492187-16.613282 37.105469-37.105469 37.105469-20.492188 0-37.105469-16.613282-37.105469-37.105469s16.613281-37.101563 37.105469-37.101563c20.492187 0 37.105469 16.609376 37.105469 37.101563zm0 0" fill="#fecd0a"/><path d="m323.046875 163.335938c-18.535156 2.066406-32.949219 17.78125-32.949219 36.867187 0 20.492187 16.609375 37.105469 37.101563 37.105469 12.738281 0 23.972656-6.421875 30.65625-16.199219-31.777344 3.546875-52.484375-31.902344-34.808594-57.773437zm0 0" fill="#fca60d"/><path d="m384.484375 270.492188c-9.964844-9.964844-26.125-9.964844-36.089844 0l-17.703125 17.703124c-4.355468 4.355469-11.414062 4.355469-15.769531 0l-72.929687-72.929687c-11.011719-11.007813-28.863282-11.007813-39.871094 0l-93.960938 93.960937c-.824218.824219-1.761718 1.449219-2.765625 1.898438v80.832031c0 8.054688 6.59375 14.648438 14.648438 14.648438h271.914062c8.054688 0 14.648438-6.59375 14.648438-14.648438v-99.339843zm0 0" fill="#a2ec00"/><path d="m217.722656 392.613281s24.140625-13.847656-3.859375-28.0625c-28-14.214843 3.496094-42.042969 3.496094-42.042969s60.503906-37.742187 21.503906-62.242187c-29.085937-18.269531-26.546875-38.71875-23.375-47.9375.519531-1.511719.628907-3.097656.382813-4.628906-5.039063 1.128906-9.828125 3.644531-13.75 7.566406l-93.960938 93.960937c-.820312.824219-1.761718 1.449219-2.765625 1.898438v80.832031c0 8.054688 6.59375 14.648438 14.648438 14.648438h90.589843c-.210937-8.5 7.089844-13.992188 7.089844-13.992188zm0 0" fill="#00c82f"/><path d="m290.09375 351.933594c-87.085938-67.074219-129.574219-2.175782-184.699219 24.234375v15.785156c0 8.058594 6.59375 14.648437 14.648438 14.648437h271.910156c8.058594 0 14.648437-6.589843 14.648437-14.648437v-41.945313c-25.914062 23.828126-65.828124 40.960938-116.507812 1.925782zm0 0" fill="#00c82f"/><path d="m217.722656 392.613281s24.140625-13.847656-3.859375-28.0625c-27.875-14.152343 3.210938-41.792969 3.488281-42.039062-43.292968.476562-74.75 35.828125-111.957031 53.65625v15.785156c0 8.058594 6.59375 14.648437 14.648438 14.648437h90.589843c-.210937-8.496093 7.089844-13.988281 7.089844-13.988281zm0 0" fill="#02ad22"/><path d="m391.953125 420.59375h-271.910156c-15.789063 0-28.636719-12.847656-28.636719-28.636719v-271.910156c0-15.792969 12.847656-28.640625 28.636719-28.640625h271.914062c15.789063 0 28.636719 12.847656 28.636719 28.640625v271.910156c0 15.789063-12.847656 28.636719-28.640625 28.636719zm-271.910156-301.207031c-.332031 0-.65625.324219-.65625.65625v271.910156c0 .335937.324219.660156.65625.660156h271.914062c.332031 0 .65625-.324219.65625-.660156v-271.910156c0-.332031-.324219-.65625-.65625-.65625zm0 0" fill="#e6f7fe"/><path d="m217.722656 392.613281h-97.679687c-.332031 0-.65625-.324219-.65625-.660156v-271.910156c0-.332031.324219-.65625.65625-.65625h90.238281c.09375-1.9375-.382812-3.902344-1.433594-5.628907-6.632812-10.894531.234375-19.390624 3.246094-22.351562h-92.046875c-15.792969 0-28.640625 12.847656-28.640625 28.636719v271.910156c0 15.792969 12.847656 28.640625 28.640625 28.640625h97.679687c-15.988281-15.988281-.003906-27.980469-.003906-27.980469zm0 0" fill="#d5f1fe"/></svg>