<svg height="511pt" viewBox="1 -10 511.999 511" width="511pt" xmlns="http://www.w3.org/2000/svg"><path d="m245 .5c-75.101562 0-142.300781 33.804688-187.242188 87.015625l87.539063 381.832031c30.460937 13.589844 64.195313 21.152344 99.703125 21.152344 135.3125 0 245-109.691406 245-245s-109.691406-245-245-245zm0 0" fill="#27a3ff"/><path d="m445.308594 85.65625h-385.976563c-18.25 21.175781-32.929687 45.511719-43.125 72.066406l65.34375 270.238282c1.191407 1.066406 2.386719 2.136718 3.597657 3.183593h383.828124v-321.820312c0-13.015625-10.652343-23.667969-23.667968-23.667969zm0 0" fill="#2b3894"/><path d="m69.765625 106.675781c0-9.832031 6.53125-18.214843 15.472656-21.015625h-25.90625c-36.976562 42.902344-59.332031 98.757813-59.332031 159.839844 0 66.621094 26.613281 127.007812 69.765625 171.167969zm0 0" fill="#232e7a"/><path d="m0 245.5c0 74.21875 33.015625 140.71875 85.148438 185.644531h363.828124v-249.273437h-440.625c-5.441406 20.292968-8.351562 41.621094-8.351562 63.628906zm0 0" fill="#e6f7fe"/><path d="m0 245.5c0 66.621094 26.613281 127.007812 69.765625 171.167969v-234.796875h-61.414063c-5.441406 20.292968-8.351562 41.621094-8.351562 63.628906zm0 0" fill="#d5f1fe"/><path d="m16.058594 158.125h432.917968v-48.367188c-.859374-1.285156-1.734374-2.5625-2.613281-3.832031-.441406-.164062-.917969-.269531-1.417969-.269531h-401.121093c-11.265625 16.175781-20.625 33.769531-27.765625 52.46875zm0 0" fill="#615df9"/><path d="m69.789062 105.65625h-25.964843c-11.265625 16.175781-20.625 33.769531-27.765625 52.46875h53.707031v-51.449219c0-.339843.007813-.679687.023437-1.019531zm0 0" fill="#3342ae"/><path d="m39.925781 140.65625c-5.511719 0-10-4.488281-10-10 0-6.226562 5.722657-11.058594 11.960938-9.796875 4.539062.851563 8.039062 4.953125 8.039062 9.796875 0 5.605469-4.574219 10-10 10zm0 0" fill="#fecd0a"/><path d="m70.425781 140.65625c-5.511719 0-10-4.488281-10-10 0-6.226562 5.722657-11.058594 11.960938-9.796875 4.539062.851563 8.039062 4.953125 8.039062 9.796875 0 5.605469-4.574219 10-10 10zm0 0" fill="#39df74"/><path d="m417.488281 138.625h-52.667969c-4.140624 0-7.5-3.359375-7.5-7.5s3.359376-7.5 7.5-7.5h52.667969c4.144531 0 7.5 3.359375 7.5 7.5s-3.355469 7.5-7.5 7.5zm0 0" fill="#8181fc"/><path d="m327.140625 138.625h-217.066406c-4.140625 0-7.5-3.359375-7.5-7.5s3.359375-7.5 7.5-7.5h217.066406c4.144531 0 7.5 3.359375 7.5 7.5s-3.355469 7.5-7.5 7.5zm0 0" fill="#8181fc"/><path d="m504.570312 429.144531c-8.148437 0-250.703124 0-421.734374 0 19.136718 16.90625 40.933593 30.871094 64.683593 41.179688h320.015625c21.449219 0 34.847656-8.570313 40.054688-10.433594 2.679687-1.191406 4.410156-3.851563 4.410156-6.789063v-16.53125c0-4.101562-3.324219-7.425781-7.429688-7.425781zm0 0" fill="#aeaeff"/><path d="m192.835938 448.625v-19.480469c-37.902344 0-75.414063 0-109.996094 0 19.132812 16.90625 40.929687 30.871094 64.683594 41.183594h40.652343c-3.847656-1.839844-6.507812-5.753906-6.507812-10.296875 0-6.222656 4.980469-11.273438 11.167969-11.40625zm0 0" fill="#8181fc"/><path d="m117.519531 429.144531v8.589844c0 6.601563 5.402344 12 12 12h161.992188c6.597656 0 12-5.398437 12-12v-8.589844c-57.855469 0-124.222657 0-185.992188 0zm0 0" fill="#8181fc"/><path d="m177.765625 437.734375v-8.589844c-20.265625 0-40.492187 0-60.246094 0v8.589844c0 6.601563 5.402344 12 12 12h60.246094c-6.601563 0-12-5.398437-12-12zm0 0" fill="#615df9"/><path d="m7.820312 183.871094h441.15625v-27.746094h-432.15625c-3.53125 9-6.542968 18.261719-9 27.746094zm0 0" fill="#d5f1fe"/><path d="m70.429688 183.871094c0-15.324219-12.421876-27.746094-27.746094-27.746094h-25.863282c-3.53125 9-6.542968 18.261719-9 27.746094zm0 0" fill="#11dfef"/><path d="m7.917969 281.402344h254.925781c4.375 0 7.917969-3.546875 7.917969-7.917969v-55.398437c0-4.371094-3.542969-7.914063-7.917969-7.914063h-254.925781c-2.25 0-4.273438.941406-5.714844 2.445313-1.441406 10.757812-2.203125 21.730468-2.203125 32.882812 0 11.386719.796875 22.585938 2.296875 33.558594 1.4375 1.445312 3.421875 2.34375 5.621094 2.34375zm0 0" fill="#fecd0a"/><path d="m58.5 273.484375v-55.394531c0-4.375 3.546875-7.917969 7.917969-7.917969h-58.5c-2.25 0-4.273438.941406-5.714844 2.445313-1.441406 10.757812-2.203125 21.730468-2.203125 32.882812 0 11.386719.796875 22.585938 2.296875 33.558594 1.433594 1.445312 3.421875 2.34375 5.621094 2.34375h58.5c-4.371094 0-7.917969-3.546875-7.917969-7.917969zm0 0" fill="#fca60d"/><path d="m262.84375 307.414062h-104.660156c-4.371094 0-7.914063 3.542969-7.914063 7.917969v76.882813c0 4.371094 3.542969 7.914062 7.914063 7.914062h104.660156c4.371094 0 7.917969-3.542968 7.917969-7.914062v-76.882813c0-4.375-3.542969-7.917969-7.917969-7.917969zm0 0" fill="#a2ec00"/><path d="m208.769531 392.214844v-76.882813c0-4.371093 3.542969-7.917969 7.914063-7.917969h-58.5c-4.371094 0-7.914063 3.542969-7.914063 7.917969v76.882813c0 4.371094 3.542969 7.917968 7.914063 7.917968h58.5c-4.371094-.003906-7.914063-3.546874-7.914063-7.917968zm0 0" fill="#00c82f"/><path d="m410.339844 210.171875h-104.660156c-4.375 0-7.917969 3.542969-7.917969 7.917969v174.125c0 4.371094 3.542969 7.917968 7.917969 7.917968h104.660156c4.371094 0 7.914062-3.546874 7.914062-7.917968v-174.125c0-4.375-3.542968-7.917969-7.914062-7.917969zm0 0" fill="#27a3ff"/><path d="m356.261719 392.214844v-174.125c0-4.375 3.542969-7.917969 7.917969-7.917969h-58.5c-4.371094 0-7.917969 3.542969-7.917969 7.917969v174.125c0 4.371094 3.542969 7.917968 7.917969 7.917968h58.5c-4.375-.003906-7.917969-3.546874-7.917969-7.917968zm0 0" fill="#0080f4"/><path d="m115.351562 307.414062h-104.660156c-.9375 0-1.832031.171876-2.664062.46875 8.992187 34.257813 25.214844 65.578126 46.941406 92.246094h60.382812c4.371094 0 7.917969-3.542968 7.917969-7.917968v-76.882813c0-4.371094-3.546875-7.914063-7.917969-7.914063zm0 0" fill="#f948b4"/><path d="m58.5 392.214844v-76.882813c0-4.371093 3.546875-7.917969 7.914062-7.917969h-55.722656c-.9375 0-1.832031.171876-2.664062.46875 8.992187 34.257813 25.214844 65.582032 46.941406 92.246094h11.445312c-4.367187 0-7.914062-3.542968-7.914062-7.914062zm0 0" fill="#e00e8b"/><path d="m383.210938 303.957031c0 13.917969-11.285157 25.199219-25.203126 25.199219-13.917968 0-25.203124-11.28125-25.203124-25.199219 0-13.921875 11.285156-25.203125 25.203124-25.203125 13.917969 0 25.203126 11.28125 25.203126 25.203125zm0 0" fill="#68cbfc"/><path d="m368.820312 316.824219c-10.316406 0-18.679687-8.363281-18.679687-18.683594 0-9.089844 6.496094-16.65625 15.097656-18.328125-2.289062-.6875-4.714843-1.058594-7.230469-1.058594-13.917968 0-25.203124 11.28125-25.203124 25.199219 0 13.921875 11.285156 25.203125 25.203124 25.203125 11.386719 0 21.007813-7.554688 24.128907-17.921875-3.386719 3.449219-8.097657 5.589844-13.316407 5.589844zm0 0" fill="#4fbbff"/><path d="m358.007812 20.671875c-94.226562 0-142.34375 112.734375-77.453124 181.058594 28.476562 29.988281 53.605468 61.832031 70.894531 94.003906 2.820312 5.246094 10.296875 5.246094 13.117187 0 17.289063-32.171875 42.417969-64.015625 70.898438-94.003906 64.886718-68.324219 16.769531-181.058594-77.457032-181.058594zm0 0" fill="#fc7acd"/><path d="m364.566406 295.734375c17.289063-32.171875 42.417969-64.015625 70.898438-94.003906-20.394532 4.648437-23.851563-6.664063-24.183594-13.398438-.121094-2.5-1.90625-4.582031-4.332031-5.214843-8.558594-2.222657-11.214844-9.503907-12.042969-13.832032-.394531-2.078125-1.964844-3.730468-3.988281-4.34375-54.726563-16.613281-51.65625-66.929687-49.09375-83.328125.433593-2.765625-1.261719-5.363281-3.929688-6.214843-9.660156-3.070313-9.363281-11.421876-8.085937-16.660157.601562-2.484375-.4375-5.113281-2.667969-6.359375-13.714844-7.664062-7.582031-22.191406-5.984375-25.449218-68.679688 24.589843-96.363281 116.089843-40.605469 174.800781 28.476563 29.988281 53.605469 61.832031 70.898438 94.003906 2.820312 5.246094 10.296875 5.246094 13.117187 0zm0 0" fill="#f948b4"/><path d="m423.6875 127.355469c0 36.273437-29.40625 65.679687-65.679688 65.679687-36.273437 0-65.679687-29.40625-65.679687-65.679687 0-36.273438 29.40625-65.675781 65.679687-65.675781 36.273438 0 65.679688 29.402343 65.679688 65.675781zm0 0" fill="#e00e8b"/><path d="m399.222656 178.480469c-2.664062-2.984375-3.820312-6.613281-4.3125-9.195313-.394531-2.078125-1.964844-3.730468-3.988281-4.34375-54.726563-16.613281-51.660156-66.929687-49.09375-83.328125.433594-2.765625-1.261719-5.363281-3.933594-6.214843-4.75-1.511719-7.089843-4.296876-8.089843-7.363282-22.15625 10.550782-37.472657 33.144532-37.472657 59.320313 0 36.273437 29.402344 65.679687 65.675781 65.679687 15.613282 0 29.941407-5.457031 41.214844-14.554687zm0 0" fill="#cc0a87"/><path d="m358.007812 205.535156c-43.105468 0-78.179687-35.070312-78.179687-78.179687 0-43.105469 35.070313-78.175781 78.179687-78.175781 43.109376 0 78.179688 35.070312 78.179688 78.175781 0 43.109375-35.070312 78.179687-78.179688 78.179687zm0-131.355468c-29.320312 0-53.179687 23.855468-53.179687 53.175781 0 29.324219 23.855469 53.179687 53.179687 53.179687 29.324219 0 53.179688-23.855468 53.179688-53.179687 0-29.320313-23.855469-53.175781-53.179688-53.175781zm0 0" fill="#f948b4"/><path d="m410.273438 185.433594c-.777344-1.113282-1.9375-1.957032-3.320313-2.316406-8.5625-2.222657-11.21875-9.503907-12.042969-13.832032-.183594-.953125-.621094-1.8125-1.230468-2.527344-9.441407 8.554688-21.957032 13.777344-35.671876 13.777344-29.324218 0-53.179687-23.855468-53.179687-53.179687 0-23.199219 14.941406-42.964844 35.699219-50.210938-.679688-.789062-1.574219-1.410156-2.632813-1.746093-9.660156-3.074219-9.363281-11.421876-8.085937-16.660157.34375-1.410156.140625-2.859375-.492188-4.082031-28.949218 11.464844-49.488281 39.71875-49.488281 72.699219 0 43.109375 35.070313 78.179687 78.179687 78.179687 20.078126 0 38.40625-7.613281 52.265626-20.101562zm0 0" fill="#e00e8b"/></svg>