<svg height="512pt" viewBox="-11 0 512 512" width="512pt" xmlns="http://www.w3.org/2000/svg"><path d="m245 22c-135.308594 0-245 109.691406-245 245 0 61.96875 23.015625 118.554688 60.953125 161.699219l293.777344 57.394531c80.210937-40.25 135.269531-123.238281 135.269531-219.09375 0-135.308594-109.691406-245-245-245zm0 0" fill="#fecd0a"/><path d="m317.609375 0h-219.160156c-21.265625 0-38.566407 17.300781-38.566407 38.566406v388.921875c7.359376 8.484375 15.304688 16.445313 23.75 23.84375l248.421876 44.726563c8.261718-3.144532 16.316406-6.699219 24.121093-10.683594v-446.808594c0-21.265625-17.300781-38.566406-38.566406-38.566406zm0 0" fill="#3d4ec6"/><path d="m134.085938 23.933594c-3.621094-2.449219-6.003907-6.59375-6.003907-11.296875 0-5.722657 3.527344-10.613281 8.523438-12.636719h-38.15625c-21.265625 0-38.566407 17.300781-38.566407 38.566406v388.921875c7.359376 8.484375 15.304688 16.445313 23.75 23.84375l50.457032 9.085938v-436.484375zm0 0" fill="#2b3894"/><path d="m317.609375 22.328125h-32.574219c-3.070312 0-5.558594 2.488281-5.558594 5.558594 0 7.367187-6.027343 13.394531-13.394531 13.394531h-116.105469c-7.367187 0-13.394531-6.027344-13.394531-13.394531 0-3.070313-2.488281-5.558594-5.558593-5.558594h-32.574219c-8.96875 0-16.242188 7.269531-16.242188 16.238281v411.507813c43.28125 38.515625 100.300781 61.925781 162.792969 61.925781 31.339844 0 61.300781-5.894531 88.847656-16.617188 0-51.179687 0-440.847656 0-456.816406 0-8.96875-7.269531-16.238281-16.238281-16.238281zm0 0" fill="#27a3ff"/><path d="m130.949219 30.796875c0-2.929687.726562-5.691406 1.984375-8.125-.59375-.21875-1.238282-.34375-1.910156-.34375h-32.574219c-8.96875 0-16.238281 7.269531-16.238281 16.238281v411.507813c14.757812 13.132812 31.113281 24.503906 48.738281 33.796875 0-145.421875 0-448.417969 0-453.074219zm0 0" fill="#0080f4"/><path d="m422.875 84.535156h-284.683594c-4 0-7.242187 3.242188-7.242187 7.242188v65.03125c0 4 3.242187 7.246094 7.242187 7.246094h284.683594c4 0 7.242188-3.246094 7.242188-7.246094v-65.03125c0-4-3.242188-7.242188-7.242188-7.242188zm0 0" fill="#d5f1fe"/><path d="m422.875 196.441406h-120.027344c-4 0-7.242187 3.242188-7.242187 7.242188v132.558594c0 4 3.242187 7.242187 7.242187 7.242187h120.027344c4 0 7.242188-3.242187 7.242188-7.242187v-132.558594c0-4-3.242188-7.242188-7.242188-7.242188zm0 0" fill="#f948b4"/><path d="m258.21875 196.441406h-120.027344c-4 0-7.242187 3.242188-7.242187 7.242188v59.039062c0 4 3.242187 7.242188 7.242187 7.242188h120.027344c4 0 7.246094-3.242188 7.246094-7.242188v-59.039062c0-4-3.246094-7.242188-7.246094-7.242188zm0 0" fill="#a2ec00"/><path d="m258.21875 299.859375h-120.027344c-4 0-7.242187 3.246094-7.242187 7.246094v132.554687c0 4 3.242187 7.242188 7.242187 7.242188h120.027344c4 0 7.246094-3.242188 7.246094-7.242188v-132.554687c-.003906-4-3.246094-7.246094-7.246094-7.246094zm0 0" fill="#fecd0a"/><path d="m422.875 373.382812h-120.027344c-4 0-7.242187 3.242188-7.242187 7.242188v59.035156c0 4 3.242187 7.246094 7.242187 7.246094h120.027344c4 0 7.242188-3.246094 7.242188-7.246094v-59.035156c0-4-3.242188-7.242188-7.242188-7.242188zm0 0" fill="#d5f1fe"/><path d="m168.949219 156.808594v-65.03125c0-4 3.242187-7.242188 7.242187-7.242188h-38c-4 0-7.242187 3.242188-7.242187 7.242188v65.035156c0 4 3.242187 7.242188 7.242187 7.242188h38c-4 0-7.242187-3.242188-7.242187-7.246094zm0 0" fill="#11dfef"/><path d="m333.605469 336.242188v-132.558594c0-4 3.242187-7.242188 7.242187-7.242188h-38c-4 0-7.242187 3.242188-7.242187 7.242188v132.558594c0 4 3.242187 7.242187 7.242187 7.242187h38c-4 0-7.242187-3.242187-7.242187-7.242187zm0 0" fill="#e00e8b"/><path d="m168.949219 262.722656v-59.039062c0-4 3.242187-7.242188 7.242187-7.242188h-38c-4 0-7.242187 3.242188-7.242187 7.242188v59.039062c0 4 3.242187 7.242188 7.242187 7.242188h38c-4 0-7.242187-3.242188-7.242187-7.242188zm0 0" fill="#00c82f"/><path d="m168.949219 439.660156v-132.554687c0-4 3.242187-7.246094 7.242187-7.246094h-38c-4 0-7.242187 3.246094-7.242187 7.246094v132.554687c0 4 3.242187 7.242188 7.242187 7.242188h38c-4 0-7.242187-3.242188-7.242187-7.242188zm0 0" fill="#fca60d"/><path d="m333.605469 439.660156v-59.035156c0-4 3.242187-7.242188 7.242187-7.242188h-38c-4 0-7.242187 3.242188-7.242187 7.242188v59.035156c0 4 3.242187 7.242188 7.242187 7.242188h38c-4 0-7.242187-3.242188-7.242187-7.242188zm0 0" fill="#11dfef"/><path d="m430.117188 331.082031-55.90625-61.117187 55.90625-61.117188v-5.160156c0-4-3.242188-7.246094-7.242188-7.246094h-4.105469l-55.910156 61.121094-55.910156-61.121094h-4.101563c-4 0-7.246094 3.246094-7.246094 7.246094v5.160156l55.910157 61.117188-55.910157 61.117187v5.160157c0 4 3.246094 7.242187 7.246094 7.242187h4.105469l55.90625-61.117187 55.910156 61.117187h4.105469c4 0 7.242188-3.242187 7.242188-7.242187zm0 0" fill="#fc7acd"/><path d="m265.460938 434.5-55.910157-61.117188 55.910157-61.117187v-5.160156c0-4-3.242188-7.242188-7.242188-7.242188h-4.105469l-55.910156 61.113281-55.90625-61.113281h-4.105469c-4 0-7.242187 3.242188-7.242187 7.242188v5.160156l55.90625 61.117187-55.90625 61.113282v5.164062c0 4 3.242187 7.242188 7.242187 7.242188h4.101563l55.910156-61.117188 55.910156 61.117188h4.105469c4 0 7.242188-3.242188 7.242188-7.242188zm0 0" fill="#fce395"/></svg>