<svg height="512pt" viewBox="-11 0 512 512" width="512pt" xmlns="http://www.w3.org/2000/svg"><path d="m112.03125 472.800781c38.296875 24.792969 83.949219 39.199219 132.96875 39.199219 49.003906 0 94.640625-14.394531 132.933594-39.175781l102.464844-137.71875c6.246093-21.621094 9.601562-44.46875 9.601562-68.105469 0-135.308594-109.691406-245-245-245s-245 109.691406-245 245c0 23.664062 3.367188 46.539062 9.625 68.1875zm0 0" fill="#27a3ff"/><path d="m112.011719 472.773438c38.300781 24.808593 83.957031 39.226562 132.988281 39.226562 49.015625 0 94.65625-14.410156 132.953125-39.203125l8.945313-12.027344h-283.820313zm0 0" fill="#2b3894"/><path d="m9.152344 135.976562c0-5.398437 4.375-9.773437 9.773437-9.773437h314.054688c5.398437 0 9.773437 4.375 9.773437 9.773437v328.929688c0 4.871094-3.949218 8.816406-8.820312 8.816406h42.585937c50.121094-31.957031 87.84375-81.636718 104.328125-140.21875v-282.539062h-471.695312zm0 0" fill="#fca60d"/><path d="m80.792969 112.726562v-61.761718h-71.640625v85.011718c0-5.398437 4.375-9.773437 9.773437-9.773437h72.535157c-6.097657-1.457031-10.667969-6.949219-10.667969-13.476563zm0 0" fill="#f98a10"/><path d="m471.027344 0h-452.058594c-5.421875 0-9.816406 4.394531-9.816406 9.816406v42.222656h471.695312v-42.222656c0-5.421875-4.394531-9.816406-9.820312-9.816406zm0 0" fill="#615df9"/><path d="m80.792969 13.867188c0-7.628907 6.238281-13.867188 13.867187-13.867188h-75.691406c-5.421875 0-9.816406 4.394531-9.816406 9.816406v42.21875h71.640625zm0 0" fill="#3342ae"/><path d="m9.152344 229.199219c0-4.871094 3.949218-8.820313 8.824218-8.820313h222.1875c4.875 0 8.824219 3.949219 8.824219 8.824219v236.367187c0 4.503907-3.652343 8.15625-8.152343 8.15625h96.335937c4.917969 0 8.90625-3.988281 8.90625-8.90625v-291.117187h-336.925781zm0 0" fill="#fecd0a"/><path d="m80.792969 207.675781v-33.96875h-71.640625v55.492188c0-4.871094 3.949218-8.820313 8.824218-8.820313h75.519532c-6.984375 0-12.703125-5.71875-12.703125-12.703125zm0 0" fill="#fca60d"/><path d="m336.207031 122.738281h-317.183593c-5.453126 0-9.871094 4.417969-9.871094 9.871094v42.167969h336.925781v-42.167969c0-5.453125-4.417969-9.871094-9.871094-9.871094zm0 0" fill="#615df9"/><path d="m80.792969 132.445312c0-3.882812 1.769531-7.371093 4.535156-9.707031h-66.304687c-5.453126 0-9.871094 4.417969-9.871094 9.871094v42.167969h71.640625zm0 0" fill="#3342ae"/><path d="m9.152344 333.550781c16.492187 58.558594 54.203125 108.222657 104.3125 140.175781h129.84375c4.550781 0 8.242187-3.691406 8.242187-8.242187v-196.84375h-242.398437zm0 0" fill="#fce395"/><path d="m80.792969 268.640625h-71.640625v64.910156c12.675781 45.007813 37.898437 84.753907 71.640625 115.25zm0 0" fill="#fecd0a"/><path d="m9.152344 226.589844v43.125h242.398437v-43.121094c0-4.925781-3.992187-8.917969-8.917969-8.917969h-224.5625c-4.925781 0-8.917968 3.992188-8.917968 8.914063zm0 0" fill="#615df9"/><path d="m80.792969 223.777344c0-2.996094 2.113281-5.5 4.929687-6.101563h-67.652344c-4.925781 0-8.917968 3.988281-8.917968 8.914063v43.121094h71.640625zm0 0" fill="#3342ae"/><path d="m48.101562 36.230469c-5.976562 0-10.71875-4.878907-10.71875-10.707031 0-6.660157 6.117188-11.863282 12.808594-10.515626 5.019532 1.019532 8.628906 5.371094 8.628906 10.515626 0 5.773437-4.679687 10.707031-10.71875 10.707031zm0 0" fill="#f948b4"/><path d="m80.792969 36.230469c-6.082031 0-10.71875-4.976563-10.71875-10.707031 0-6.851563 6.304687-11.828126 12.808593-10.515626 5.019532 1.019532 8.628907 5.371094 8.628907 10.515626 0 5.773437-4.675781 10.707031-10.71875 10.707031zm0 0" fill="#fecd0a"/><path d="m113.484375 36.230469c-5.972656 0-10.71875-4.878907-10.71875-10.707031 0-6.917969 6.34375-11.820313 12.808594-10.515626 5.222656 1.058594 8.628906 5.609376 8.628906 10.515626 0 5.773437-4.679687 10.707031-10.71875 10.707031zm0 0" fill="#39df74"/><path d="m48.101562 159.480469c-5.984374 0-10.71875-4.90625-10.71875-10.726563 0-6.683594 6.152344-11.847656 12.816407-10.503906 5.082031 1.046875 8.621093 5.4375 8.621093 10.503906 0 5.960938-4.878906 10.726563-10.71875 10.726563zm0 0" fill="#f948b4"/><path d="m80.792969 159.480469c-5.726563 0-10.71875-4.644531-10.71875-10.726563 0-6.804687 6.285156-11.816406 12.808593-10.503906 5.148438 1.042969 8.628907 5.511719 8.628907 10.503906 0 5.957032-4.863281 10.726563-10.71875 10.726563zm0 0" fill="#fecd0a"/><path d="m113.484375 159.480469c-5.863281 0-10.71875-4.785157-10.71875-10.726563 0-6.859375 6.304687-11.8125 12.808594-10.503906 5.171875 1.050781 8.628906 5.546875 8.628906 10.503906 0 6.082032-4.988281 10.726563-10.71875 10.726563zm0 0" fill="#39df74"/><path d="m48.101562 254.414062c-5.933593 0-10.71875-4.839843-10.71875-10.71875 0-6.871093 6.335938-11.808593 12.808594-10.511718 5.21875 1.066406 8.628906 5.59375 8.628906 10.511718 0 5.933594-4.859374 10.71875-10.71875 10.71875zm0 0" fill="#f948b4"/><path d="m80.792969 254.414062c-5.933594 0-10.71875-4.839843-10.71875-10.71875 0-6.871093 6.335937-11.808593 12.808593-10.511718 5.238282 1.070312 8.628907 5.621094 8.628907 10.511718 0 5.957032-4.875 10.71875-10.71875 10.71875zm0 0" fill="#fecd0a"/><path d="m113.484375 254.414062c-5.9375 0-10.71875-4.847656-10.71875-10.71875 0-6.84375 6.296875-11.8125 12.808594-10.511718 5.238281 1.070312 8.628906 5.621094 8.628906 10.511718 0 5.921876-4.859375 10.71875-10.71875 10.71875zm0 0" fill="#39df74"/><path d="m449.875 34.058594h-56.453125c-4.441406 0-8.039063-3.597656-8.039063-8.039063 0-4.441406 3.597657-8.039062 8.039063-8.039062h56.453125c4.441406 0 8.039062 3.597656 8.039062 8.039062 0 4.441407-3.597656 8.039063-8.039062 8.039063zm0 0" fill="#aeaeff"/><path d="m258.796875 156.796875h-102.816406c-4.441407 0-8.039063-3.597656-8.039063-8.039063 0-4.441406 3.597656-8.039062 8.039063-8.039062h102.816406c4.4375 0 8.039063 3.597656 8.039063 8.039062 0 4.441407-3.601563 8.039063-8.039063 8.039063zm0 0" fill="#aeaeff"/><path d="m228.90625 148.757812c0-4.441406 3.601562-8.039062 8.039062-8.039062h-80.964843c-4.441407 0-8.039063 3.597656-8.039063 8.039062 0 4.441407 3.597656 8.039063 8.039063 8.039063h80.964843c-4.4375 0-8.039062-3.597656-8.039062-8.039063zm0 0" fill="#8181fc"/><path d="m353.035156 34.058594h-197.054687c-4.441407 0-8.039063-3.597656-8.039063-8.039063 0-4.441406 3.597656-8.039062 8.039063-8.039062h197.054687c4.441406 0 8.039063 3.597656 8.039063 8.039062 0 4.441407-3.597657 8.039063-8.039063 8.039063zm0 0" fill="#aeaeff"/><path d="m320.242188 26.019531c0-4.441406 3.601562-8.039062 8.039062-8.039062h-172.300781c-4.441407 0-8.039063 3.597656-8.039063 8.039062 0 4.441407 3.597656 8.039063 8.039063 8.039063h172.300781c-4.4375 0-8.039062-3.597656-8.039062-8.039063zm0 0" fill="#8181fc"/><path d="m310.566406 156.796875h-17.148437c-4.441407 0-8.039063-3.597656-8.039063-8.039063 0-4.441406 3.597656-8.039062 8.039063-8.039062h17.148437c4.441406 0 8.039063 3.597656 8.039063 8.039062 0 4.441407-3.597657 8.039063-8.039063 8.039063zm0 0" fill="#aeaeff"/><path d="m220.175781 251.730469h-64.195312c-4.441407 0-8.039063-3.597657-8.039063-8.039063 0-4.4375 3.597656-8.039062 8.039063-8.039062h64.195312c4.4375 0 8.039063 3.601562 8.039063 8.039062 0 4.441406-3.601563 8.039063-8.039063 8.039063zm0 0" fill="#aeaeff"/><path d="m188.769531 243.695312c0-4.441406 3.601563-8.039062 8.039063-8.039062h-40.828125c-4.441407 0-8.039063 3.597656-8.039063 8.039062 0 4.4375 3.597656 8.039063 8.039063 8.039063h40.828125c-4.4375-.003906-8.039063-3.601563-8.039063-8.039063zm0 0" fill="#8181fc"/></svg>