<svg height="512pt" viewBox="0 -11 512 512" width="512pt" xmlns="http://www.w3.org/2000/svg"><path d="m245 0c-56.863281 0-109.203125 19.378906-150.777344 51.886719l-81.078125 113.765625c-3.8125 11.136718-6.835937 22.636718-9.023437 34.433594l1.234375 96.035156c2.046875 9.628906 4.648437 19.054687 7.789062 28.230468l81.078125 113.765626c41.578125 32.503906 93.914063 51.882812 150.777344 51.882812 135.308594 0 245-109.691406 245-245s-109.691406-245-245-245zm0 0" fill="#2b3894"/><path d="m17.699219 153.4375c2.046875 1.53125 4.574219 2.453125 7.308593 2.453125h66.863282c6.734375 0 12.246094-5.511719 12.246094-12.25v-66.863281c0-6.734375-5.511719-12.246094-12.246094-12.246094h-12.550782c-26.65625 24.480469-47.863281 54.789062-61.621093 88.90625zm0 0" fill="#f948b4"/><path d="m91.871094 292.929688h-66.863282c-6.734374 0-12.246093-5.511719-12.246093-12.25v-66.859376c0-6.738281 5.511719-12.25 12.246093-12.25h66.863282c6.734375 0 12.246094 5.511719 12.246094 12.25v66.859376c0 6.738281-5.511719 12.25-12.246094 12.25zm0 0" fill="#fca60d"/><path d="m91.871094 334.109375h-66.863282c-2.734374 0-5.261718.921875-7.308593 2.453125 13.757812 34.117188 34.964843 64.425781 61.617187 88.90625h12.554688c6.734375 0 12.246094-5.511719 12.246094-12.25v-66.859375c0-6.738281-5.511719-12.25-12.246094-12.25zm0 0" fill="#27a3ff"/><path d="m58.4375 143.640625v-57.402344c-16.957031 19.910157-30.800781 42.550781-40.738281 67.199219 2.046875 1.53125 4.574219 2.453125 7.308593 2.453125h45.679688c-6.734375 0-12.25-5.511719-12.25-12.25zm0 0" fill="#e00e8b"/><path d="m58.441406 280.679688v-66.863282c0-6.734375 5.511719-12.246094 12.246094-12.246094h-45.679688c-6.734374 0-12.246093 5.511719-12.246093 12.246094v66.863282c0 6.734374 5.511719 12.25 12.246093 12.25h45.679688c-6.734375 0-12.246094-5.511719-12.246094-12.25zm0 0" fill="#f98a10"/><path d="m58.4375 346.359375c0-6.738281 5.511719-12.25 12.25-12.25h-45.679688c-2.734374 0-5.261718.921875-7.308593 2.453125 9.9375 24.648438 23.78125 47.289062 40.742187 67.199219v-57.402344zm0 0" fill="#0080f4"/><path d="m66.417969 77.289062h24.941406v65.839844h-65.839844v-7.082031c-4.742187 9.53125-8.890625 19.414063-12.375 29.605469 3.53125 1.910156 7.574219 2.996094 11.863281 2.996094h66.863282c13.789062 0 25.007812-11.21875 25.007812-25.007813v-66.859375c0-13-9.964844-23.707031-22.65625-24.894531-9.910156 7.746093-19.203125 16.246093-27.804687 25.402343zm0 0" fill="#fc7acd"/><path d="m499.75 155.890625h-343.402344c-6.734375 0-12.246094-5.511719-12.246094-12.25v-66.863281c0-6.734375 5.511719-12.246094 12.246094-12.246094h343.402344c6.738281 0 12.25 5.511719 12.25 12.246094v66.863281c0 6.738281-5.511719 12.25-12.25 12.25zm0 0" fill="#e6f7fe"/><path d="m25.007812 305.6875h66.863282c13.789062 0 25.007812-11.21875 25.007812-25.007812v-66.859376c0-13.792968-11.21875-25.011718-25.007812-25.011718h-66.863282c-8.71875 0-16.40625 4.492187-20.886718 11.277344-2.695313 14.5625-4.121094 29.570312-4.121094 44.914062 0 17.53125 1.855469 34.628906 5.355469 51.121094 4.585937 5.820312 11.6875 9.566406 19.652343 9.566406zm.511719-91.359375h65.839844v65.84375h-65.839844zm0 0" fill="#fecd0a"/><path d="m499.75 292.929688h-343.402344c-6.734375 0-12.246094-5.511719-12.246094-12.25v-66.859376c0-6.738281 5.511719-12.25 12.246094-12.25h343.402344c6.738281 0 12.25 5.511719 12.25 12.25v66.859376c0 6.738281-5.511719 12.25-12.25 12.25zm0 0" fill="#e6f7fe"/><path d="m91.871094 321.351562h-66.863282c-4.289062 0-8.332031 1.085938-11.863281 3 3.484375 10.1875 7.632813 20.070313 12.375 29.601563v-7.082031h65.839844v65.839844h-24.941406c8.601562 9.15625 17.894531 17.65625 27.804687 25.402343 12.691406-1.1875 22.65625-11.894531 22.65625-24.894531v-66.859375c0-13.789063-11.21875-25.007813-25.007812-25.007813zm0 0" fill="#4fbbff"/><path d="m499.75 425.46875h-343.402344c-6.734375 0-12.246094-5.511719-12.246094-12.25v-66.859375c0-6.738281 5.511719-12.25 12.246094-12.25h343.402344c6.738281 0 12.25 5.511719 12.25 12.25v66.859375c0 6.738281-5.511719 12.25-12.25 12.25zm0 0" fill="#e6f7fe"/><g fill="#d5f1fe"><path d="m227.148438 143.640625v-66.863281c0-6.734375 5.511718-12.246094 12.25-12.246094h-83.050782c-6.738281 0-12.25 5.511719-12.25 12.246094v66.863281c0 6.738281 5.511719 12.25 12.25 12.25h83.050782c-6.738282 0-12.25-5.511719-12.25-12.25zm0 0"/><path d="m227.148438 280.679688v-66.863282c0-6.734375 5.511718-12.246094 12.25-12.246094h-83.050782c-6.738281 0-12.25 5.511719-12.25 12.246094v66.863282c0 6.734374 5.511719 12.25 12.25 12.25h83.050782c-6.738282 0-12.25-5.511719-12.25-12.25zm0 0"/><path d="m227.148438 413.21875v-66.859375c0-6.738281 5.511718-12.25 12.25-12.25h-83.050782c-6.738281 0-12.25 5.511719-12.25 12.25v66.859375c0 6.738281 5.511719 12.25 12.25 12.25h83.050782c-6.738282 0-12.25-5.511719-12.25-12.25zm0 0"/></g><path d="m58.4375 143.128906h-32.917969v-7.082031c-4.742187 9.53125-8.890625 19.414063-12.375 29.605469 3.53125 1.910156 7.574219 2.996094 11.863281 2.996094h33.429688c-14.925781-14.925782 0-25.519532 0-25.519532zm0 0" fill="#f948b4"/><path d="m58.4375 188.808594h-33.429688c-8.71875 0-16.40625 4.492187-20.886718 11.277344-2.695313 14.5625-4.121094 29.570312-4.121094 44.914062 0 17.53125 1.855469 34.628906 5.355469 51.121094 4.585937 5.820312 11.6875 9.566406 19.652343 9.566406h33.429688c-16.628906-11.746094-.171875-25.382812-.007812-25.519531h-32.910157v-65.839844h32.898438c-15.296875-13.957031.019531-25.519531.019531-25.519531zm0 0" fill="#fca60d"/><path d="m58.4375 321.351562h-33.429688c-4.289062 0-8.332031 1.085938-11.863281 2.996094 3.484375 10.191406 7.632813 20.070313 12.375 29.605469v-7.085937h32.917969c0 .003906-14.878906-10.636719 0-25.515626zm0 0" fill="#27a3ff"/></svg>