<svg height="512pt" viewBox="-6 0 512 512" width="512pt" xmlns="http://www.w3.org/2000/svg"><path d="m497.003906 306.5c2.082032-12.859375 3.183594-26.050781 3.183594-39.5 0-135.308594-109.691406-245-245-245s-245 109.691406-245 245c0 13.058594 1.03125 25.871094 3 38.378906zm0 0" fill="#00c82f"/><path d="m463.339844 67.539062h-69.277344v393.832032c0 2.832031-.363281 5.578125-1.046875 8.199218 54.894531-37.421874 93.796875-96.566406 104.316406-165.070312v-202.96875c.003907-18.742188-15.246093-33.992188-33.992187-33.992188zm0 0" fill="#2b3894"/><path d="m445.222656 90.773438c0-10.4375 6.339844-19.394532 15.378906-23.234376h-66.535156v393.832032c0 2.832031-.367187 5.578125-1.050781 8.199218 19.644531-13.390624 37.226563-29.578124 52.207031-47.96875zm0 0" fill="#232e7a"/><path d="m463.34375 104.417969h-69.277344v356.953125c0 2.832031-.367187 5.578125-1.050781 8.199218 36.503906-24.882812 65.925781-59.375 84.640625-99.835937v-251.003906c0-7.90625-6.410156-14.3125-14.3125-14.3125zm0 0" fill="#27a3ff"/><path d="m445.222656 104.417969h-51.15625v356.953125c0 2.832031-.367187 5.578125-1.050781 8.199218 19.644531-13.390624 37.230469-29.566406 52.207031-47.957031zm0 0" fill="#0080f4"/><path d="m394.066406 233.328125h40.148438c6.492187 0 11.804687-5.3125 11.804687-11.808594v-47.78125c0-6.492187-5.3125-11.804687-11.804687-11.804687h-40.148438zm0 0" fill="#4fbbff"/><path d="m394.066406 340.839844h40.148438c6.492187 0 11.804687-5.3125 11.804687-11.808594v-47.78125c0-6.492188-5.3125-11.808594-11.804687-11.808594h-40.148438zm0 0" fill="#0063f2"/><path d="m434.214844 376.953125h-40.148438v71.398437h25.859375c9.398438-8.542968 18.117188-17.820312 26.09375-27.714843v-31.875c0-6.496094-5.3125-11.808594-11.804687-11.808594zm0 0" fill="#4fbbff"/><path d="m13.902344 133.449219h-1.636719c-6.746094 0-12.265625 5.519531-12.265625 12.265625v47.53125c0 6.746094 5.519531 12.265625 12.265625 12.265625h1.636719zm0 0" fill="#d5f1fe"/><path d="m6.707031 172.082031c-2.851562 0-5.335937-1.527343-6.707031-3.800781v24.964844c0 6.746094 5.519531 12.265625 12.265625 12.265625h1.636719v-38.167969c-1.199219 2.785156-3.96875 4.738281-7.195313 4.738281zm0 0" fill="#11dfef"/><path d="m13.902344 225.957031h-1.636719c-6.746094 0-12.265625 5.519531-12.265625 12.265625v7.15625c0 6.746094 5.519531 12.265625 12.265625 12.265625h1.636719zm0 0" fill="#11dfef"/><path d="m12.878906 102.851562v200.527344c10.441406 70.140625 50.613282 130.5625 107.285156 168.066406v-403.90625h-71.972656c-19.46875 0-35.3125 15.84375-35.3125 35.3125zm0 0" fill="#e6f7fe"/><path d="m48.417969 67.539062c11.113281 3.136719 19.257812 13.34375 19.257812 25.457032v331.660156c15.140625 17.988281 32.816407 33.773438 52.488281 46.789062v-403.90625zm0 0" fill="#d5f1fe"/><path d="m105.34375 108.917969h14.820312v-15.332031h-14.820312c-4.234375 0-7.667969 3.429687-7.667969 7.664062s3.433594 7.667969 7.667969 7.667969zm0 0" fill="#11dfef"/><path d="m81.34375 108.910156c-4.242188 0-7.667969-3.425781-7.667969-7.664062 0-3.527344 2.433594-6.738282 6.164063-7.511719 4.75-.957031 9.171875 2.734375 9.171875 7.511719-.003907 4.105468-3.332031 7.664062-7.667969 7.664062zm0 0" fill="#11dfef"/><path d="m33.324219 140.972656v230.050782c19.222656 40.929687 49.433593 75.667968 86.839843 100.421874v-339.019531h-78.292968c-4.722656 0-8.546875 3.828125-8.546875 8.546875zm0 0" fill="#27a3ff"/><path d="m67.675781 132.425781v292.234375c15.140625 17.988282 32.816407 33.769532 52.488281 46.785156v-339.019531zm0 0" fill="#0080f4"/><path d="m75.390625 189.40625c-6.746094 0-12.269531 5.519531-12.269531 12.265625v49.640625c0 6.746094 5.523437 12.265625 12.269531 12.265625h44.773437v-74.171875zm0 0" fill="#4fbbff"/><path d="m75.390625 301.097656c-6.746094 0-12.269531 5.519532-12.269531 12.265625v49.640625c0 6.746094 5.523437 12.265625 12.269531 12.265625h44.773437v-74.171875zm0 0" fill="#0063f2"/><path d="m64.089844 420.300781c15.90625 19.808594 34.832031 37.085938 56.074218 51.144531v-58.65625h-44.773437c-5.066406 0-9.4375 3.109376-11.300781 7.511719zm0 0" fill="#4fbbff"/><path d="m365.238281 0h-215.117187c-20.871094 0-37.851563 16.980469-37.851563 37.855469v428.148437c40.226563 28.941406 89.578125 45.996094 142.917969 45.996094 55.566406 0 106.804688-18.507812 147.90625-49.683594v-424.460937c0-20.875-16.980469-37.855469-37.855469-37.855469zm0 0" fill="#3d4ec6"/><path d="m222.203125 42.300781c-11.40625-.917969-20.378906-10.464843-20.378906-22.109375 0-8.972656 5.324219-16.695312 12.984375-20.191406h-64.6875c-20.871094 0-37.855469 16.980469-37.855469 37.855469v428.148437c31.792969 22.871094 69.285156 38.308594 109.9375 43.785156zm0 0" fill="#3342ae"/><path d="m365.238281 21.914062h-31.972656c-3.011719 0-5.457031 2.445313-5.457031 5.457032 0 7.234375-5.917969 13.148437-13.148438 13.148437h-113.960937c-7.230469 0-13.148438-5.914062-13.148438-13.148437 0-3.011719-2.441406-5.457032-5.457031-5.457032h-31.972656c-8.800782 0-15.9375 7.136719-15.9375 15.941407v442.214843c35.695312 20.316407 76.992187 31.929688 121.003906 31.929688 46.078125 0 89.175781-12.730469 125.992188-34.847656 0-156.164063 0-427.421875 0-439.296875 0-8.804688-7.136719-15.941407-15.941407-15.941407zm0 0" fill="#27a3ff"/><path d="m214.738281 40.519531h-14.035156c-7.234375 0-13.148437-5.914062-13.148437-13.148437 0-3.011719-2.445313-5.457032-5.460938-5.457032h-31.96875c-8.804688 0-15.941406 7.136719-15.941406 15.941407v442.210937c24.519531 13.957032 51.683594 23.804688 80.554687 28.605469zm0 0" fill="#0080f4"/><path d="m339.078125 191.109375h-162.796875c-7 0-12.722656-5.726563-12.722656-12.722656v-51.5c0-7 5.722656-12.726563 12.722656-12.726563h162.796875c7 0 12.726563 5.726563 12.726563 12.726563v51.5c0 6.996093-5.726563 12.722656-12.726563 12.722656zm0 0" fill="#4fbbff"/><path d="m339.078125 306.984375h-162.796875c-7 0-12.722656-5.726563-12.722656-12.726563v-51.496093c0-7 5.722656-12.726563 12.722656-12.726563h162.796875c7 0 12.726563 5.726563 12.726563 12.726563v51.496093c0 7-5.726563 12.726563-12.726563 12.726563zm0 0" fill="#0080f4"/><path d="m339.078125 422.855469h-162.796875c-7 0-12.722656-5.726563-12.722656-12.722657v-51.5c0-7 5.722656-12.726562 12.722656-12.726562h162.796875c7 0 12.726563 5.726562 12.726563 12.726562v51.5c0 6.996094-5.726563 12.722657-12.726563 12.722657zm0 0" fill="#4fbbff"/><path d="m204.765625 178.386719v-51.5c0-7 5.726563-12.726563 12.726563-12.726563h-41.210938c-7 0-12.722656 5.726563-12.722656 12.726563v51.5c0 6.996093 5.726562 12.722656 12.722656 12.722656h41.210938c-7 0-12.726563-5.726563-12.726563-12.722656zm0 0" fill="#27a3ff"/><path d="m204.765625 294.257812v-51.496093c0-7 5.726563-12.726563 12.726563-12.726563h-41.210938c-7 0-12.722656 5.726563-12.722656 12.726563v51.496093c0 7 5.726562 12.726563 12.722656 12.726563h41.210938c-7 0-12.726563-5.726563-12.726563-12.726563zm0 0" fill="#0063f2"/><path d="m204.765625 410.132812v-51.5c0-7 5.726563-12.726562 12.726563-12.726562h-41.210938c-7 0-12.722656 5.730469-12.722656 12.726562v51.5c0 6.996094 5.726562 12.722657 12.722656 12.722657h41.210938c-7 0-12.726563-5.726563-12.726563-12.722657zm0 0" fill="#27a3ff"/><path d="m344.429688 90.648438h-30.398438c-4.394531 0-7.953125-3.5625-7.953125-7.953126 0-4.394531 3.558594-7.953124 7.953125-7.953124h30.398438c4.390624 0 7.953124 3.558593 7.953124 7.953124 0 4.390626-3.5625 7.953126-7.953124 7.953126zm0 0" fill="#fce395"/><path d="m329.585938 82.695312c0-4.394531 3.5625-7.953124 7.953124-7.953124h-23.507812c-4.394531 0-7.953125 3.558593-7.953125 7.953124 0 4.390626 3.558594 7.953126 7.953125 7.953126h23.507812c-4.390624 0-7.953124-3.5625-7.953124-7.953126zm0 0" fill="#fecd0a"/><path d="m225.34375 469.484375c-5.726562 0-10.605469-4.632813-10.605469-10.605469 0-6.734375 6.171875-11.710937 12.671875-10.402344 4.996094 1.015626 8.527344 5.367188 8.527344 10.402344 0 5.957032-4.863281 10.605469-10.59375 10.605469zm0 0" fill="#e6f7fe"/><g fill="#4fbbff"><path d="m257.675781 466.832031c-4.375 0-7.953125-3.570312-7.953125-7.953125 0-3.574218 2.464844-6.984375 6.40625-7.804687 4.972656-.976563 9.511719 2.859375 9.511719 7.804687 0 4.320313-3.527344 7.953125-7.964844 7.953125zm0 0"/><path d="m290.019531 466.832031c-4.535156 0-7.945312-3.71875-7.945312-7.953125 0-5.007812 4.566406-8.773437 9.503906-7.804687 3.84375.800781 6.394531 4.101562 6.394531 7.804687 0 4.394532-3.574218 7.953125-7.953125 7.953125zm0 0"/></g></svg>