<svg height="512pt" viewBox="-11 0 512 512" width="512pt" xmlns="http://www.w3.org/2000/svg"><path d="m77.25 445.546875h335.5c47.546875-44.691406 77.25-108.144531 77.25-178.546875 0-135.308594-109.691406-245-245-245s-245 109.691406-245 245c0 70.402344 29.703125 133.855469 77.25 178.546875zm0 0" fill="#27a3ff"/><path d="m113.460938 44.480469h300.363281v33.386719h-300.363281zm0 0" fill="#d5f1fe"/><path d="m375.519531 474.359375c13.746094-8.671875 26.582031-18.664063 38.304688-29.816406v-6.230469h-38.304688zm0 0" fill="#d5f1fe"/><path d="m113.460938 73.3125v1.683594h255.328124c3.71875 0 6.730469 3.011718 6.730469 6.726562v120.847656h38.304688v-129.257812zm0 0" fill="#e6f7fe"/><path d="m375.519531 199.703125v117.148437h38.304688v-117.148437zm0 0" fill="#d5f1fe"/><path d="m168.242188 44.480469h-54.78125v28.828125h81.699218c0-15.921875-12.050781-28.828125-26.917968-28.828125zm0 0" fill="#11dfef"/><path d="m178.746094 65.867188v-19.109376c-3.230469-1.46875-6.777344-2.277343-10.503906-2.277343h-54.78125v28.828125h67.898437c-1.632813-2.046875-2.613281-4.632813-2.613281-7.441406zm0 0" fill="#0ac6e5"/><path d="m375.519531 313.613281v129.261719h38.304688v-129.261719zm0 0" fill="#11dfef"/><path d="m407.074219 0h-286.863281c-3.726563 0-6.75 3.023438-6.75 6.75v39.640625h300.363281v-39.640625c0-3.726562-3.023438-6.75-6.75-6.75zm0 0" fill="#615df9"/><path d="m178.746094 12c0-6.601562 5.398437-12 12-12h-70.535156c-3.726563 0-6.75 3.023438-6.75 6.75v39.640625h65.285156zm0 0" fill="#3342ae"/><path d="m148.1875 32.753906c-5.144531 0-9.554688-4.164062-9.554688-9.554687 0-6.078125 5.59375-10.558594 11.417969-9.375 4.597657.933593 7.691407 4.945312 7.691407 9.375 0 5.257812-4.308594 9.554687-9.554688 9.554687zm0 0" fill="#f948b4"/><path d="m177.332031 32.753906c-5.1875 0-9.554687-4.230468-9.554687-9.554687 0-6.121094 5.628906-10.539063 11.417968-9.375 4.628907.941406 7.691407 4.972656 7.691407 9.375 0 5.300781-4.339844 9.554687-9.554688 9.554687zm0 0" fill="#fecd0a"/><path d="m206.476562 32.753906c-5.214843 0-9.554687-4.238281-9.554687-9.554687 0-4.585938 3.230469-8.472657 7.679687-9.375 5.855469-1.179688 11.429688 3.332031 11.429688 9.375 0 5.246093-4.277344 9.554687-9.554688 9.554687zm0 0" fill="#39df74"/><path d="m336.011719 30.363281h-91.65625c-3.960938 0-7.167969-3.210937-7.167969-7.167969 0-3.960937 3.207031-7.167968 7.167969-7.167968h91.65625c3.960937 0 7.167969 3.207031 7.167969 7.167968 0 3.957032-3.207032 7.167969-7.167969 7.167969zm0 0" fill="#aeaeff"/><path d="m382.167969 30.363281h-15.289063c-3.957031 0-7.167968-3.210937-7.167968-7.167969 0-3.960937 3.210937-7.167968 7.167968-7.167968h15.289063c3.957031 0 7.167969 3.207031 7.167969 7.167968 0 3.957032-3.210938 7.167969-7.167969 7.167969zm0 0" fill="#aeaeff"/><path d="m76.175781 117.859375h300.363281v33.390625h-300.363281zm0 0" fill="#d5f1fe"/><path d="m76.175781 146.691406h300.363281v129.257813h-300.363281zm0 0" fill="#e6f7fe"/><path d="m76.175781 146.691406h63.871094v129.257813h-63.871094zm0 0" fill="#d5f1fe"/><path d="m76.175781 273.085938h300.363281v117.148437h-300.363281zm0 0" fill="#fc7acd"/><path d="m76.175781 273.085938h63.871094v117.148437h-63.871094zm0 0" fill="#f948b4"/><path d="m130.957031 117.859375h-54.78125v28.832031h81.699219c0-15.921875-12.050781-28.832031-26.917969-28.832031zm0 0" fill="#11dfef"/><path d="m140.046875 119.550781c-2.839844-1.089843-5.898437-1.691406-9.089844-1.691406h-54.78125v28.832031h63.871094zm0 0" fill="#0ac6e5"/><g fill="#d5f1fe"><path d="m344.882812 180.503906h-15.289062c-3.957031 0-7.167969-3.207031-7.167969-7.164062 0-3.960938 3.210938-7.167969 7.167969-7.167969h15.289062c3.957032 0 7.167969 3.207031 7.167969 7.167969-.003906 3.957031-3.210937 7.164062-7.167969 7.164062zm0 0"/><path d="m301.492188 180.503906h-15.289063c-3.957031 0-7.167969-3.207031-7.167969-7.164062 0-3.960938 3.210938-7.167969 7.167969-7.167969h15.289063c3.957031 0 7.167968 3.207031 7.167968 7.167969 0 3.957031-3.210937 7.164062-7.167968 7.164062zm0 0"/><path d="m258.101562 180.503906h-15.289062c-3.957031 0-7.164062-3.207031-7.164062-7.164062 0-3.960938 3.207031-7.167969 7.164062-7.167969h15.289062c3.960938 0 7.167969 3.207031 7.167969 7.167969 0 3.957031-3.207031 7.164062-7.167969 7.164062zm0 0"/><path d="m214.714844 180.503906h-15.289063c-3.960937 0-7.167969-3.207031-7.167969-7.164062 0-3.960938 3.210938-7.167969 7.167969-7.167969h15.289063c3.957031 0 7.164062 3.207031 7.164062 7.167969 0 3.957031-3.207031 7.164062-7.164062 7.164062zm0 0"/></g><path d="m155.945312 331.410156c0 10.730469-8.695312 19.429688-19.425781 19.429688s-19.429687-8.699219-19.429687-19.429688c0-10.730468 8.699218-19.429687 19.429687-19.429687s19.425781 8.699219 19.425781 19.429687zm0 0" fill="#e00e8b"/><path d="m245.785156 331.410156c0 10.730469-8.699218 19.429688-19.429687 19.429688s-19.425781-8.699219-19.425781-19.429688c0-10.730468 8.695312-19.429687 19.425781-19.429687s19.429687 8.699219 19.429687 19.429687zm0 0" fill="#f948b4"/><path d="m335.625 331.410156c0 10.730469-8.699219 19.429688-19.429688 19.429688-10.730468 0-19.429687-8.699219-19.429687-19.429688 0-10.730468 8.699219-19.429687 19.429687-19.429687 10.730469 0 19.429688 8.699219 19.429688 19.429687zm0 0" fill="#f948b4"/><path d="m76.175781 444.546875c43.945313 41.796875 103.386719 67.453125 168.824219 67.453125 48.410156 0 93.535156-14.046875 131.539062-38.277344v-86.726562h-300.363281zm0 0" fill="#f948b4"/><path d="m140.046875 386.996094h-63.871094v57.546875c18.71875 17.808593 40.261719 32.667969 63.871094 43.882812zm0 0" fill="#e00e8b"/><path d="m117.164062 475.882812-17.503906-17.5c-3.730468-3.730468-3.730468-9.78125 0-13.515624l17.503906-17.5c3.730469-3.730469 9.78125-3.730469 13.511719 0 3.730469 3.734374 3.730469 9.78125 0 13.515624l-10.742187 10.742188 10.742187 10.746094c3.730469 3.730468 3.730469 9.78125 0 13.511718-3.730469 3.734376-9.78125 3.730469-13.511719 0zm0 0" fill="#fc7acd"/><path d="m322.039062 475.882812c-3.730468-3.730468-3.730468-9.78125 0-13.511718l10.742188-10.746094-10.742188-10.742188c-3.734374-3.734374-3.730468-9.785156 0-13.515624 3.730469-3.730469 9.78125-3.730469 13.511719 0l17.503907 17.5c3.730468 3.734374 3.730468 9.785156 0 13.515624l-17.503907 17.5c-3.730469 3.734376-9.78125 3.730469-13.511719 0zm0 0" fill="#fc7acd"/><path d="m369.789062 73.382812h-286.863281c-3.730469 0-6.75 3.019532-6.75 6.746094v39.644532h300.363281v-39.640626c0-3.730468-3.023437-6.75-6.75-6.75zm0 0" fill="#615df9"/><path d="m140.046875 85.308594c0-6.167969 4.714844-11.285156 10.71875-11.925782h-67.839844c-3.726562 0-6.75 3.019532-6.75 6.746094v39.644532h63.871094zm0 0" fill="#3342ae"/><path d="m110.902344 106.136719c-5.144532 0-9.554688-4.167969-9.554688-9.554688 0-6.078125 5.589844-10.558593 11.417969-9.375 4.597656.933594 7.691406 4.945313 7.691406 9.375 0 5.257813-4.308593 9.554688-9.554687 9.554688zm0 0" fill="#f948b4"/><path d="m140.046875 106.136719c-5.191406 0-9.558594-4.230469-9.558594-9.554688 0-6.121093 5.632813-10.542969 11.421875-9.375 4.625.9375 7.691406 4.96875 7.691406 9.375 0 5.296875-4.339843 9.554688-9.554687 9.554688zm0 0" fill="#fecd0a"/><path d="m169.1875 106.136719c-5.210938 0-9.554688-4.242188-9.554688-9.554688 0-4.589843 3.230469-8.472656 7.683594-9.375 5.855469-1.179687 11.429688 3.332031 11.429688 9.375 0 5.242188-4.277344 9.554688-9.558594 9.554688zm0 0" fill="#39df74"/><path d="m298.726562 103.742188h-91.65625c-3.960937 0-7.167968-3.207032-7.167968-7.167969 0-3.957031 3.207031-7.164063 7.167968-7.164063h91.65625c3.960938 0 7.167969 3.207032 7.167969 7.164063 0 3.960937-3.207031 7.167969-7.167969 7.167969zm0 0" fill="#aeaeff"/><path d="m315.410156 23.195312c0-3.957031 3.210938-7.167968 7.167969-7.167968h-78.226563c-3.957031 0-7.164062 3.207031-7.164062 7.167968 0 3.957032 3.207031 7.167969 7.164062 7.167969h78.226563c-3.957031 0-7.167969-3.210937-7.167969-7.167969zm0 0" fill="#8181fc"/><path d="m278.125 96.574219c0-3.957031 3.210938-7.164063 7.167969-7.164063h-78.222657c-3.960937 0-7.167968 3.207032-7.167968 7.164063 0 3.960937 3.207031 7.167969 7.167968 7.167969h78.222657c-3.957031 0-7.167969-3.207032-7.167969-7.167969zm0 0" fill="#8181fc"/><path d="m344.882812 103.742188h-15.289062c-3.957031 0-7.167969-3.207032-7.167969-7.167969 0-3.957031 3.210938-7.164063 7.167969-7.164063h15.289062c3.957032 0 7.167969 3.207032 7.167969 7.164063-.003906 3.960937-3.210937 7.167969-7.167969 7.167969zm0 0" fill="#aeaeff"/></svg>