<svg height="512pt" viewBox="-11 0 512 512" width="512pt" xmlns="http://www.w3.org/2000/svg"><path d="m464.042969 376.835938c16.597656-33.039063 25.957031-70.34375 25.957031-109.835938 0-135.308594-109.691406-245-245-245s-245 109.691406-245 245c0 39.492188 9.359375 76.796875 25.957031 109.835938zm0 0" fill="#fecd0a"/><path d="m465.035156 71.292969h-440.070312v303.542969c39.886718 81.238281 123.425781 137.164062 220.035156 137.164062s180.148438-55.925781 220.035156-137.164062zm0 0" fill="#e6f7fe"/><path d="m91.800781 71.292969h-66.835937v303.542969c15.949218 32.484374 38.882812 60.914062 66.835937 83.347656zm0 0" fill="#d5f1fe"/><path d="m24.964844 47.027344h440.070312v26.265625h-440.070312zm0 0" fill="#d5f1fe"/><path d="m141.921875 73.292969h-116.957031v-26.265625h92.210937c13.667969 0 24.746094 11.757812 24.746094 26.265625zm0 0" fill="#11dfef"/><path d="m24.964844 47.027344h66.835937v26.265625h-66.835937zm0 0" fill="#0ac6e5"/><path d="m463.691406 0c-8.492187 0-425.023437 0-437.382812 0-.742188 0-1.34375.601562-1.34375 1.34375v47.207031h440.070312v-47.207031c0-.742188-.601562-1.34375-1.34375-1.34375zm0 0" fill="#615df9"/><path d="m91.800781 12c0-6.601562 5.402344-12 12-12-43.664062 0-74.277343 0-77.492187 0-.742188 0-1.34375.601562-1.34375 1.34375v47.207031h66.835937zm0 0" fill="#3342ae"/><path d="m61.300781 33.808594c-5.507812 0-10-4.488282-10-10 0-4.769532 3.351563-8.859375 8.050781-9.8125 6.117188-1.230469 11.949219 3.472656 11.949219 9.8125 0 5.554687-4.542969 10-10 10zm0 0" fill="#f948b4"/><path d="m91.800781 33.808594c-5.429687 0-10-4.421875-10-10 0-6.324219 5.816407-11.046875 11.949219-9.8125 4.84375.984375 8.050781 5.214844 8.050781 9.8125 0 5.507812-4.488281 10-10 10zm0 0" fill="#fecd0a"/><path d="m122.300781 33.808594c-5.429687 0-10-4.421875-10-10 0-6.355469 5.84375-11.042969 11.949219-9.8125 4.84375.984375 8.050781 5.21875 8.050781 9.8125 0 5.507812-4.488281 10-10 10zm0 0" fill="#39df74"/><path d="m91.800781 106.929688h-30.5c-4.140625 0-7.5-3.355469-7.5-7.5 0-4.140626 3.359375-7.5 7.5-7.5h30.5c4.140625 0 7.5 3.359374 7.5 7.5 0 4.144531-3.355469 7.5-7.5 7.5zm0 0" fill="#11dfef"/><path d="m324.359375 134.414062h-158.71875c-2.617187 0-4.738281 2.121094-4.738281 4.734376v16.285156c0 2.617187 2.121094 4.738281 4.738281 4.738281h158.71875c2.613281 0 4.734375-2.121094 4.734375-4.738281v-16.285156c.003906-2.613282-2.117188-4.734376-4.734375-4.734376zm0 0" fill="#d5f1fe"/><path d="m193.351562 155.433594v-16.285156c0-2.613282 2.121094-4.734376 4.738282-4.734376h-32.449219c-2.617187 0-4.738281 2.121094-4.738281 4.734376v16.285156c0 2.617187 2.121094 4.738281 4.738281 4.738281h32.449219c-2.617188 0-4.738282-2.121094-4.738282-4.738281zm0 0" fill="#11dfef"/><path d="m324.359375 134.414062h-22.503906v25.757813h22.503906c2.617187 0 4.738281-2.121094 4.738281-4.738281v-16.285156c0-2.613282-2.121094-4.734376-4.738281-4.734376zm0 0" fill="#615df9"/><g fill="#11dfef"><path d="m386.519531 342.835938h-48.332031c-4.140625 0-7.5-3.359376-7.5-7.5 0-4.144532 3.359375-7.5 7.5-7.5h48.332031c4.140625 0 7.5 3.355468 7.5 7.5 0 4.140624-3.359375 7.5-7.5 7.5zm0 0"/><path d="m426.484375 372.722656h-88.296875c-4.140625 0-7.5-3.355468-7.5-7.5 0-4.144531 3.359375-7.5 7.5-7.5h88.296875c4.140625 0 7.5 3.355469 7.5 7.5 0 4.144532-3.359375 7.5-7.5 7.5zm0 0"/><path d="m426.484375 402.613281h-88.296875c-4.140625 0-7.5-3.359375-7.5-7.5 0-4.144531 3.359375-7.5 7.5-7.5h88.296875c4.140625 0 7.5 3.355469 7.5 7.5 0 4.140625-3.359375 7.5-7.5 7.5zm0 0"/><path d="m433.757812 423.195312c-.8125-3.269531-3.753906-5.695312-7.273437-5.695312h-88.296875c-4.140625 0-7.5 3.359375-7.5 7.5 0 4.144531 3.359375 7.5 7.5 7.5h87.449219c2.78125-3.03125 5.492187-6.132812 8.121093-9.304688zm0 0"/><path d="m338.1875 447.390625c-4.140625 0-7.5 3.355469-7.5 7.5 0 4.140625 3.359375 7.5 7.5 7.5h54.621094c6.226562-4.71875 12.21875-9.722656 17.957031-15zm0 0"/><path d="m249.183594 342.835938h-48.332032c-4.140624 0-7.5-3.359376-7.5-7.5 0-4.144532 3.359376-7.5 7.5-7.5h48.332032c4.140625 0 7.5 3.355468 7.5 7.5 0 4.140624-3.359375 7.5-7.5 7.5zm0 0"/><path d="m289.148438 372.722656h-88.296876c-4.140624 0-7.5-3.355468-7.5-7.5 0-4.144531 3.359376-7.5 7.5-7.5h88.296876c4.140624 0 7.5 3.355469 7.5 7.5 0 4.144532-3.359376 7.5-7.5 7.5zm0 0"/><path d="m289.148438 402.613281h-88.296876c-4.140624 0-7.5-3.359375-7.5-7.5 0-4.144531 3.359376-7.5 7.5-7.5h88.296876c4.140624 0 7.5 3.355469 7.5 7.5 0 4.140625-3.359376 7.5-7.5 7.5zm0 0"/><path d="m289.148438 432.5h-88.296876c-4.140624 0-7.5-3.355469-7.5-7.5 0-4.140625 3.359376-7.5 7.5-7.5h88.296876c4.140624 0 7.5 3.359375 7.5 7.5 0 4.144531-3.359376 7.5-7.5 7.5zm0 0"/><path d="m289.148438 462.390625h-88.296876c-4.140624 0-7.5-3.359375-7.5-7.5 0-4.144531 3.359376-7.5 7.5-7.5h88.296876c4.140624 0 7.5 3.355469 7.5 7.5 0 4.140625-3.359376 7.5-7.5 7.5zm0 0"/><path d="m111.847656 342.835938h-48.332031c-4.140625 0-7.5-3.359376-7.5-7.5 0-4.144532 3.359375-7.5 7.5-7.5h48.332031c4.140625 0 7.5 3.355468 7.5 7.5 0 4.140624-3.359375 7.5-7.5 7.5zm0 0"/><path d="m151.8125 372.722656h-88.296875c-4.140625 0-7.5-3.355468-7.5-7.5 0-4.144531 3.359375-7.5 7.5-7.5h88.296875c4.140625 0 7.5 3.355469 7.5 7.5 0 4.144532-3.359375 7.5-7.5 7.5zm0 0"/><path d="m151.8125 402.613281h-88.296875c-4.140625 0-7.5-3.359375-7.5-7.5 0-4.144531 3.359375-7.5 7.5-7.5h88.296875c4.140625 0 7.5 3.355469 7.5 7.5 0 4.140625-3.359375 7.5-7.5 7.5zm0 0"/><path d="m151.8125 417.5h-88.296875c-3.519531 0-6.460937 2.425781-7.273437 5.695312 2.628906 3.171876 5.339843 6.273438 8.121093 9.304688h87.449219c4.140625 0 7.5-3.355469 7.5-7.5 0-4.140625-3.359375-7.5-7.5-7.5zm0 0"/><path d="m151.8125 447.390625h-72.578125c5.738281 5.277344 11.730469 10.28125 17.957031 15h54.621094c4.140625 0 7.5-3.359375 7.5-7.5 0-4.144531-3.359375-7.5-7.5-7.5zm0 0"/></g><path d="m435.792969 31.773438h-52.667969c-4.144531 0-7.5-3.355469-7.5-7.5 0-4.140626 3.355469-7.5 7.5-7.5h52.667969c4.140625 0 7.5 3.359374 7.5 7.5 0 4.144531-3.359375 7.5-7.5 7.5zm0 0" fill="#aeaeff"/><path d="m345.445312 31.773438h-183.847656c-4.140625 0-7.5-3.355469-7.5-7.5 0-4.140626 3.359375-7.5 7.5-7.5h183.847656c4.144532 0 7.5 3.359374 7.5 7.5 0 4.144531-3.355468 7.5-7.5 7.5zm0 0" fill="#aeaeff"/><path d="m303.976562 24.273438c0-4.140626 3.355469-7.5 7.5-7.5h-149.878906c-4.140625 0-7.5 3.359374-7.5 7.5 0 4.144531 3.359375 7.5 7.5 7.5h149.878906c-4.144531 0-7.5-3.355469-7.5-7.5zm0 0" fill="#8181fc"/><path d="m432.964844 194.929688h-101.257813c-1.6875 0-3.066406 1.378906-3.066406 3.066406v17.902344s24.707031-17.90625 52.238281 4.6875c.71875.589843 1.429688 1.136718 2.140625 1.667968-.082031.589844-.128906 1.191406-.128906 1.804688 0 7.171875 5.835937 13.007812 13.003906 13.007812 4.75 0 8.910157-2.558594 11.179688-6.371094 17.296875-.492187 28.957031-14.613281 28.957031-14.613281v-18.085937c0-1.6875-1.378906-3.066406-3.066406-3.066406zm0 0" fill="#fce395"/><path d="m331.707031 194.929688c-1.6875 0-3.066406 1.378906-3.066406 3.066406v17.902344s10.847656-7.859376 26.175781-6.589844c.035156-.039063.070313-.085938.101563-.125.714843-.839844.730469-2.039063.097656-2.949219-4.066406-5.84375 1.328125-11.304687 1.328125-11.304687zm0 0" fill="#fecd0a"/><path d="m350.1875 229.5625c4.023438-4.023438 10.546875-4.023438 14.570312 0l26.652344 26.652344c1.589844 1.589844 4.167969 1.589844 5.761719 0l6.46875-6.46875c3.640625-3.640625 9.546875-3.640625 13.1875 0l19.203125 19.203125v-54.648438s-11.660156 14.121094-28.957031 14.613281c-2.269531 3.8125-6.429688 6.371094-11.179688 6.371094-7.171875 0-13.003906-5.835937-13.003906-13.003906 0-.613281.046875-1.214844.128906-1.808594-.710937-.527344-1.425781-1.078125-2.140625-1.664062-27.53125-22.59375-52.238281-4.691406-52.238281-4.691406v36.996093zm0 0" fill="#fecd0a"/><path d="m356.179688 226.636719c.082031-.136719.164062-.269531.242187-.394531.558594-.875.488281-2.019532-.191406-2.804688-5.949219-6.859375-3.277344-11.941406-1.3125-14.253906.390625-.460938.566406-1.03125.546875-1.597656-15.671875-1.550782-26.824219 6.53125-26.824219 6.53125v36.992187l21.546875-21.546875c1.679688-1.679688 3.800781-2.648438 5.992188-2.925781zm0 0" fill="#fca60d"/><path d="m409.453125 222.28125c0 7.488281-6.070313 13.558594-13.558594 13.558594s-13.558593-6.070313-13.558593-13.558594 6.070312-13.558594 13.558593-13.558594 13.558594 6.070313 13.558594 13.558594zm0 0" fill="#fca60d"/><path d="m394.019531 208.867188c-6.597656.914062-11.683593 6.5625-11.683593 13.414062 0 7.488281 6.070312 13.558594 13.558593 13.558594 4.871094 0 9.125-2.574219 11.519531-6.429688-11.488281 1.589844-19.378906-10.902344-13.394531-20.542968zm0 0" fill="#f98a10"/><path d="m416.828125 247.96875c-3.640625-3.644531-9.546875-3.644531-13.1875 0l-6.46875 6.46875c-1.589844 1.589844-4.171875 1.589844-5.761719 0l-26.652344-26.652344c-4.023437-4.023437-10.546874-4.023437-14.570312 0l-21.546875 21.546875v26.738281s24.707031-17.90625 52.238281 4.6875c30.664063 25.167969 55.152344-4.503906 55.152344-4.503906v-9.085937zm0 0" fill="#fca60d"/><path d="m360.421875 245.070312c-10.277344-6.539062-6.199219-15.371093-4-18.828124.28125-.4375.402344-.945313.367187-1.441407-2.402343.160157-4.765624 1.144531-6.601562 2.984375l-21.546875 21.546875v26.738281s8.972656-6.496093 22.128906-6.722656c.921875-1.128906 1.816407-1.769531 1.816407-1.769531 5.957031-2.40625 20.882812-14.203125 7.835937-22.507813zm0 0" fill="#f98a10"/><path d="m331.707031 302.320312h101.257813c1.6875 0 3.066406-1.378906 3.066406-3.066406v-24.777344s-24.488281 29.667969-55.152344 4.503907c-27.53125-22.59375-52.238281-4.6875-52.238281-4.6875v24.960937c0 1.6875 1.378906 3.066406 3.066406 3.066406zm0 0" fill="#8181fc"/><path d="m357.34375 284.941406c-15.902344-9.402344-4.761719-17.359375-4.757812-17.363281-14.140626-.386719-23.945313 6.714844-23.945313 6.714844v24.960937c0 1.6875 1.378906 3.066406 3.066406 3.066406h27.929688c4.042969-4.117187 8.171875-11.191406-2.292969-17.378906zm0 0" fill="#615df9"/><path d="m295.628906 194.929688h-101.257812c-1.6875 0-3.066406 1.378906-3.066406 3.066406v17.902344s24.707031-17.90625 52.238281 4.6875c.71875.589843 1.429687 1.136718 2.140625 1.667968-.082032.589844-.128906 1.191406-.128906 1.804688 0 7.171875 5.835937 13.007812 13.003906 13.007812 4.75 0 8.910156-2.558594 11.179687-6.371094 17.296875-.492187 28.957031-14.613281 28.957031-14.613281v-18.085937c0-1.6875-1.378906-3.066406-3.066406-3.066406zm0 0" fill="#fce395"/><path d="m194.371094 194.929688c-1.6875 0-3.066406 1.378906-3.066406 3.066406v17.902344s10.847656-7.859376 26.175781-6.589844c.035156-.039063.070312-.085938.101562-.125.714844-.839844.726563-2.039063.097657-2.949219-4.066407-5.84375 1.324218-11.304687 1.324218-11.304687zm0 0" fill="#fecd0a"/><path d="m212.851562 229.5625c4.023438-4.023438 10.546876-4.023438 14.570313 0l26.652344 26.652344c1.589843 1.589844 4.167969 1.589844 5.761719 0l6.46875-6.46875c3.640624-3.640625 9.546874-3.640625 13.1875 0l19.203124 19.203125v-54.648438s-11.660156 14.121094-28.957031 14.613281c-2.269531 3.8125-6.429687 6.371094-11.179687 6.371094-7.167969 0-13.003906-5.835937-13.003906-13.003906 0-.613281.046874-1.214844.128906-1.808594-.710938-.527344-1.421875-1.078125-2.140625-1.664062-27.53125-22.59375-52.238281-4.691406-52.238281-4.691406v36.996093zm0 0" fill="#fecd0a"/><path d="m218.839844 226.636719c.085937-.136719.167968-.269531.246094-.394531.558593-.875.488281-2.019532-.191407-2.804688-5.949219-6.859375-3.277343-11.941406-1.316406-14.253906.394531-.460938.570313-1.03125.546875-1.597656-15.667969-1.550782-26.824219 6.53125-26.824219 6.53125v36.992187l21.546875-21.546875c1.683594-1.679688 3.804688-2.648438 5.992188-2.925781zm0 0" fill="#fca60d"/><path d="m272.117188 222.28125c0 7.488281-6.070313 13.558594-13.558594 13.558594-7.488282 0-13.558594-6.070313-13.558594-13.558594s6.070312-13.558594 13.558594-13.558594c7.488281 0 13.558594 6.070313 13.558594 13.558594zm0 0" fill="#fca60d"/><path d="m256.683594 208.867188c-6.597656.914062-11.683594 6.5625-11.683594 13.414062 0 7.488281 6.070312 13.558594 13.558594 13.558594 4.871094 0 9.125-2.574219 11.519531-6.429688-11.488281 1.589844-19.378906-10.902344-13.394531-20.542968zm0 0" fill="#f98a10"/><path d="m279.492188 247.96875c-3.640626-3.644531-9.546876-3.644531-13.1875 0l-6.46875 6.46875c-1.589844 1.589844-4.171876 1.589844-5.761719 0l-26.652344-26.652344c-4.023437-4.023437-10.546875-4.023437-14.570313 0l-21.546874 21.546875v26.738281s24.707031-17.90625 52.238281 4.6875c30.664062 25.167969 55.152343-4.503906 55.152343-4.503906v-9.085937zm0 0" fill="#fca60d"/><path d="m223.082031 245.070312c-10.277343-6.539062-6.195312-15.371093-3.996093-18.828124.277343-.4375.402343-.945313.367187-1.441407-2.40625.160157-4.765625 1.144531-6.601563 2.984375l-21.546874 21.546875v26.738281s8.972656-6.496093 22.128906-6.722656c.917968-1.128906 1.816406-1.769531 1.816406-1.769531 5.957031-2.40625 20.882812-14.203125 7.832031-22.507813zm0 0" fill="#f98a10"/><path d="m194.371094 302.320312h101.257812c1.6875 0 3.066406-1.378906 3.066406-3.066406v-24.777344s-24.488281 29.667969-55.152343 4.503907c-27.53125-22.59375-52.238281-4.6875-52.238281-4.6875v24.960937c0 1.6875 1.378906 3.066406 3.066406 3.066406zm0 0" fill="#8181fc"/><path d="m220.007812 284.941406c-15.902343-9.402344-4.761718-17.359375-4.757812-17.363281-14.140625-.386719-23.945312 6.714844-23.945312 6.714844v24.960937c0 1.6875 1.378906 3.066406 3.066406 3.066406h27.929687c4.042969-4.117187 8.171875-11.191406-2.292969-17.378906zm0 0" fill="#615df9"/><path d="m158.292969 194.929688h-101.257813c-1.6875 0-3.066406 1.378906-3.066406 3.066406v17.902344s24.707031-17.90625 52.238281 4.6875c.71875.589843 1.429688 1.136718 2.140625 1.667968-.082031.589844-.128906 1.191406-.128906 1.804688 0 7.171875 5.835938 13.007812 13.003906 13.007812 4.75 0 8.910156-2.558594 11.179688-6.371094 17.296875-.492187 28.957031-14.613281 28.957031-14.613281v-18.085937c0-1.6875-1.378906-3.066406-3.066406-3.066406zm0 0" fill="#fce395"/><path d="m57.035156 194.929688c-1.6875 0-3.066406 1.378906-3.066406 3.066406v17.902344s10.847656-7.859376 26.175781-6.589844c.035157-.039063.070313-.085938.101563-.125.714844-.839844.726562-2.039063.097656-2.949219-4.066406-5.84375 1.324219-11.304687 1.324219-11.304687zm0 0" fill="#fecd0a"/><path d="m75.515625 229.5625c4.023437-4.023438 10.546875-4.023438 14.570313 0l26.652343 26.652344c1.589844 1.589844 4.167969 1.589844 5.761719 0l6.46875-6.46875c3.640625-3.640625 9.546875-3.640625 13.1875 0l19.203125 19.203125v-54.648438s-11.660156 14.121094-28.957031 14.613281c-2.269532 3.8125-6.429688 6.371094-11.179688 6.371094-7.167968 0-13.003906-5.835937-13.003906-13.003906 0-.613281.046875-1.214844.128906-1.808594-.710937-.527344-1.421875-1.078125-2.140625-1.664062-27.53125-22.59375-52.238281-4.691406-52.238281-4.691406v36.996093zm0 0" fill="#fecd0a"/><path d="m81.503906 226.636719c.085938-.136719.167969-.269531.246094-.394531.558594-.875.488281-2.019532-.191406-2.804688-5.949219-6.859375-3.277344-11.941406-1.316406-14.253906.394531-.460938.570312-1.03125.546874-1.597656-15.667968-1.550782-26.824218 6.53125-26.824218 6.53125v36.992187l21.546875-21.546875c1.683593-1.679688 3.804687-2.648438 5.992187-2.925781zm0 0" fill="#fca60d"/><path d="m134.78125 222.28125c0 7.488281-6.070312 13.558594-13.558594 13.558594-7.488281 0-13.558594-6.070313-13.558594-13.558594s6.070313-13.558594 13.558594-13.558594c7.488282 0 13.558594 6.070313 13.558594 13.558594zm0 0" fill="#fca60d"/><path d="m119.347656 208.867188c-6.597656.914062-11.683594 6.5625-11.683594 13.414062 0 7.488281 6.070313 13.558594 13.558594 13.558594 4.871094 0 9.125-2.574219 11.519532-6.429688-11.488282 1.589844-19.382813-10.902344-13.394532-20.542968zm0 0" fill="#f98a10"/><path d="m142.15625 247.96875c-3.640625-3.644531-9.546875-3.644531-13.1875 0l-6.46875 6.46875c-1.589844 1.589844-4.171875 1.589844-5.761719 0l-26.652343-26.652344c-4.023438-4.023437-10.546876-4.023437-14.570313 0l-21.546875 21.546875v26.738281s24.707031-17.90625 52.238281 4.6875c30.664063 25.167969 55.152344-4.503906 55.152344-4.503906v-9.085937zm0 0" fill="#fca60d"/><path d="m85.746094 245.070312c-10.277344-6.539062-6.195313-15.371093-3.996094-18.828124.277344-.4375.402344-.945313.367188-1.441407-2.40625.160157-4.765626 1.144531-6.601563 2.984375l-21.546875 21.546875v26.738281s8.972656-6.496093 22.128906-6.722656c.917969-1.128906 1.816406-1.769531 1.816406-1.769531 5.957032-2.40625 20.882813-14.203125 7.832032-22.507813zm0 0" fill="#f98a10"/><path d="m57.035156 302.320312h101.257813c1.6875 0 3.066406-1.378906 3.066406-3.066406v-24.777344s-24.488281 29.667969-55.152344 4.503907c-27.53125-22.59375-52.238281-4.6875-52.238281-4.6875v24.960937c0 1.6875 1.378906 3.066406 3.066406 3.066406zm0 0" fill="#8181fc"/><path d="m82.671875 284.941406c-15.902344-9.402344-4.761719-17.359375-4.757813-17.363281-14.140624-.386719-23.945312 6.714844-23.945312 6.714844v24.960937c0 1.6875 1.378906 3.066406 3.066406 3.066406h27.929688c4.042968-4.117187 8.171875-11.191406-2.292969-17.378906zm0 0" fill="#615df9"/></svg>