<svg height="512pt" viewBox="0 0 512 512" width="512pt" xmlns="http://www.w3.org/2000/svg"><path d="m431.160156 423.902344.476563 1.800781c36.390625-42.753906 58.363281-98.15625 58.363281-158.703125 0-135.308594-109.691406-245-245-245-70.648438 0-134.296875 29.914062-179.011719 77.753906zm0 0" fill="#00c82f"/><path d="m226.546875 379.386719c-7.789063 0-14.101563-6.3125-14.101563-14.101563v-195.210937h-192.507812c-12.820312 29.730469-19.9375 62.492187-19.9375 96.925781 0 135.308594 109.691406 245 245 245 75.613281 0 143.21875-34.261719 188.160156-88.097656v-44.515625zm0 0" fill="#3d4ec6"/><path d="m80.425781 170.074219h-60.488281c-12.820312 29.730469-19.9375 62.496093-19.9375 96.925781 0 71.960938 31.023438 136.671875 80.425781 181.492188zm0 0" fill="#3342ae"/><path d="m19.074219 172.074219h414.085937v-26.265625h-401.125c-4.820312 8.453125-9.15625 17.21875-12.960937 26.265625zm0 0" fill="#d5f1fe"/><path d="m32.035156 145.808594c-4.820312 8.453125-9.15625 17.21875-12.960937 26.265625h90.96875c0-14.507813-11.078125-26.265625-24.742188-26.265625zm0 0" fill="#11dfef"/><path d="m80.425781 145.808594h-48.390625c-4.820312 8.453125-9.15625 17.21875-12.960937 26.265625h61.351562zm0 0" fill="#11dfef"/><path d="m212.445312 98.78125c-52.617187 0-105.1875 0-145.554687 0-13.792969 14.601562-25.808594 30.902344-35.707031 48.546875h181.261718zm0 0" fill="#615df9"/><path d="m80.425781 109.972656c0-5.089844 3.214844-9.457031 7.714844-11.191406-7.386719 0-14.492187 0-21.25 0-13.792969 14.601562-25.808594 30.902344-35.707031 48.546875h49.242187zm0 0" fill="#3342ae"/><path d="m59.550781 132.589844c-5.433593 0-10-4.421875-10-10 0-6.324219 5.816407-11.046875 11.949219-9.8125 4.84375.984375 8.050781 5.214844 8.050781 9.8125 0 5.507812-4.488281 10-10 10zm0 0" fill="#fecd0a"/><path d="m90.425781 132.589844c-5.433593 0-10-4.421875-10-10 0-6.355469 5.84375-11.042969 11.949219-9.8125 4.84375.984375 8.050781 5.21875 8.050781 9.8125 0 5.507812-4.488281 10-10 10zm0 0" fill="#39df74"/><path d="m212.445312 115.554688h-82.375c-4.140624 0-7.5 3.359374-7.5 7.5 0 4.140624 3.359376 7.5 7.5 7.5h82.375zm0 0" fill="#8181fc"/><path d="m33.796875 379.410156h185.351563c-3.984376-2.117187-6.703126-6.308594-6.703126-11.125v-21.347656h-178.648437c-2.691406 0-4.871094 2.179688-4.871094 4.867188v22.738281c0 2.6875 2.179688 4.867187 4.871094 4.867187zm0 0" fill="#fecd0a"/><path d="m28.925781 230.773438v82.277343c0 2.6875 2.179688 4.867188 4.867188 4.867188h178.652343v-92.015625h-178.648437c-2.691406 0-4.871094 2.183594-4.871094 4.871094zm0 0" fill="#27a3ff"/><path d="m76.78125 374.542969v-22.738281c0-2.6875 2.179688-4.867188 4.867188-4.867188h-47.855469c-2.6875 0-4.867188 2.179688-4.867188 4.867188v22.738281c0 2.6875 2.179688 4.867187 4.867188 4.867187h47.855469c-2.6875.003906-4.867188-2.179687-4.867188-4.867187zm0 0" fill="#fca60d"/><path d="m76.78125 313.050781v-82.277343c0-2.691407 2.179688-4.871094 4.867188-4.871094h-47.855469c-2.6875 0-4.867188 2.179687-4.867188 4.871094v82.277343c0 2.6875 2.179688 4.867188 4.867188 4.867188h47.855469c-2.6875 0-4.867188-2.179688-4.867188-4.867188zm0 0" fill="#0080f4"/><g fill="#8181fc"><path d="m71.175781 206.253906h-30.5c-4.144531 0-7.5-3.359375-7.5-7.5 0-4.144531 3.355469-7.5 7.5-7.5h30.5c4.140625 0 7.5 3.355469 7.5 7.5 0 4.140625-3.359375 7.5-7.5 7.5zm0 0"/><path d="m195.371094 410.34375h-149.0625c3.722656 5.152344 7.644531 10.15625 11.753906 15h137.308594c4.140625 0 7.5-3.359375 7.5-7.5 0-4.144531-3.359375-7.5-7.5-7.5zm0 0"/><path d="m195.371094 442.445312h-121.355469c5.386719 5.25 11.015625 10.257813 16.871094 15h104.484375c4.140625 0 7.5-3.359374 7.5-7.5 0-4.144531-3.359375-7.5-7.5-7.5zm0 0"/><path d="m195.371094 474.546875h-80.589844c8.851562 5.566406 18.085938 10.582031 27.65625 15h52.929688c4.144531 0 7.5-3.355469 7.5-7.5s-3.355469-7.5-7.496094-7.5zm0 0"/><path d="m390.839844 425.34375h-159.960938c-4.144531 0-7.5-3.359375-7.5-7.5 0-4.144531 3.355469-7.5 7.5-7.5h159.960938c4.140625 0 7.5 3.355469 7.5 7.5 0 4.140625-3.359375 7.5-7.5 7.5zm0 0"/><path d="m390.839844 457.445312h-159.960938c-4.144531 0-7.5-3.359374-7.5-7.5 0-4.144531 3.355469-7.5 7.5-7.5h159.960938c4.140625 0 7.5 3.355469 7.5 7.5 0 4.140626-3.359375 7.5-7.5 7.5zm0 0"/><path d="m375.21875 474.546875h-144.339844c-4.144531 0-7.5 3.355469-7.5 7.5s3.355469 7.5 7.5 7.5h116.683594c9.570312-4.417969 18.804688-9.433594 27.65625-15zm0 0"/></g><path d="m229.660156 46.550781v28.878907h242.609375c6.949219 0 12.601563 5.652343 12.601563 12.601562v220.425781h13.027344c7.789062 0 14.101562-6.3125 14.101562-14.101562v-247.804688zm0 0" fill="#86fdfb"/><path d="m286.503906 65.808594v-19.257813h-56.84375v28.878907h61.714844c-2.945312-2.191407-4.871094-5.6875-4.871094-9.621094zm0 0" fill="#d5f1fe"/><path d="m204.03125 121.480469v246.804687c0 7.789063 6.3125 14.101563 14.101562 14.101563h254.136719c7.789063 0 14.101563-6.3125 14.101563-14.101563v-246.804687zm0 0" fill="#e6f7fe"/><path d="m260.871094 368.285156v-246.804687h-56.839844v246.804687c0 7.789063 6.3125 14.101563 14.101562 14.101563h56.839844c-7.785156 0-14.101562-6.3125-14.101562-14.101563zm0 0" fill="#d5f1fe"/><path d="m486.371094 122.480469v-34.449219c0-7.789062-6.3125-14.101562-14.101563-14.101562h-254.136719c-7.789062 0-14.101562 6.3125-14.101562 14.101562v34.449219zm0 0" fill="#615df9"/><path d="m274.972656 73.929688h-56.839844c-7.789062 0-14.101562 6.3125-14.101562 14.101562v34.449219h56.839844v-34.449219c0-7.789062 6.316406-14.101562 14.101562-14.101562zm0 0" fill="#3342ae"/><path d="m259.503906 238.988281h-14.445312c-4.144532 0-7.5-3.355469-7.5-7.5 0-4.140625 3.355468-7.5 7.5-7.5h14.445312c4.140625 0 7.5 3.359375 7.5 7.5 0 4.144531-3.359375 7.5-7.5 7.5zm0 0" fill="#11dfef"/><path d="m354.550781 238.988281h-45.34375c-4.140625 0-7.5-3.355469-7.5-7.5 0-4.140625 3.359375-7.5 7.5-7.5h45.34375c4.140625 0 7.5 3.359375 7.5 7.5 0 4.144531-3.359375 7.5-7.5 7.5zm0 0" fill="#4fbbff"/><path d="m423.835938 238.988281h-41.433594c-4.140625 0-7.5-3.355469-7.5-7.5 0-4.140625 3.359375-7.5 7.5-7.5h41.433594c4.140624 0 7.5 3.359375 7.5 7.5 0 4.144531-3.359376 7.5-7.5 7.5zm0 0" fill="#11dfef"/><path d="m259.503906 274.148438h-14.445312c-4.144532 0-7.5-3.359376-7.5-7.5 0-4.144532 3.355468-7.5 7.5-7.5h14.445312c4.140625 0 7.5 3.355468 7.5 7.5 0 4.140624-3.359375 7.5-7.5 7.5zm0 0" fill="#4fbbff"/><path d="m259.503906 309.304688h-14.445312c-4.144532 0-7.5-3.355469-7.5-7.5 0-4.144532 3.355468-7.5 7.5-7.5h14.445312c4.140625 0 7.5 3.355468 7.5 7.5 0 4.144531-3.359375 7.5-7.5 7.5zm0 0" fill="#fecd0a"/><path d="m259.503906 344.464844h-14.445312c-4.144532 0-7.5-3.359375-7.5-7.5 0-4.144532 3.355468-7.5 7.5-7.5h14.445312c4.140625 0 7.5 3.355468 7.5 7.5 0 4.140625-3.359375 7.5-7.5 7.5zm0 0" fill="#11dfef"/><path d="m354.550781 274.148438h-66.058593c-4.140626 0-7.5-3.359376-7.5-7.5 0-4.144532 3.359374-7.5 7.5-7.5h66.058593c4.140625 0 7.5 3.355468 7.5 7.5 0 4.140624-3.359375 7.5-7.5 7.5zm0 0" fill="#11dfef"/><path d="m354.550781 309.304688h-66.058593c-4.140626 0-7.5-3.355469-7.5-7.5 0-4.144532 3.359374-7.5 7.5-7.5h66.058593c4.140625 0 7.5 3.355468 7.5 7.5 0 4.144531-3.359375 7.5-7.5 7.5zm0 0" fill="#4fbbff"/><path d="m323.476562 344.464844h-34.984374c-4.140626 0-7.5-3.359375-7.5-7.5 0-4.144532 3.359374-7.5 7.5-7.5h34.984374c4.140626 0 7.5 3.355468 7.5 7.5 0 4.140625-3.359374 7.5-7.5 7.5zm0 0" fill="#11dfef"/><path d="m447.238281 274.148438h-64.835937c-4.140625 0-7.5-3.359376-7.5-7.5 0-4.144532 3.359375-7.5 7.5-7.5h64.835937c4.140625 0 7.5 3.355468 7.5 7.5 0 4.140624-3.359375 7.5-7.5 7.5zm0 0" fill="#fecd0a"/><path d="m259.503906 168.671875h-14.445312c-4.144532 0-7.5-3.355469-7.5-7.5s3.355468-7.5 7.5-7.5h14.445312c4.140625 0 7.5 3.355469 7.5 7.5 0 4.140625-3.359375 7.5-7.5 7.5zm0 0" fill="#11dfef"/><path d="m259.503906 203.828125h-14.445312c-4.144532 0-7.5-3.355469-7.5-7.5 0-4.140625 3.355468-7.5 7.5-7.5h14.445312c4.140625 0 7.5 3.359375 7.5 7.5 0 4.144531-3.359375 7.5-7.5 7.5zm0 0" fill="#fecd0a"/><path d="m335.300781 168.671875h-46.808593c-4.140626 0-7.5-3.355469-7.5-7.5s3.359374-7.5 7.5-7.5h46.808593c4.140625 0 7.5 3.355469 7.5 7.5 0 4.140625-3.359375 7.5-7.5 7.5zm0 0" fill="#4fbbff"/><path d="m313.117188 203.828125h-24.625c-4.140626 0-7.5-3.355469-7.5-7.5 0-4.140625 3.359374-7.5 7.5-7.5h24.625c4.144531 0 7.5 3.359375 7.5 7.5 0 4.144531-3.355469 7.5-7.5 7.5zm0 0" fill="#d5f1fe"/><path d="m512 48.550781v-34.449219c0-7.789062-6.3125-14.101562-14.101562-14.101562h-254.136719c-7.785157 0-14.101563 6.3125-14.101563 14.101562v34.449219zm0 0" fill="#615df9"/><path d="m286.503906 12c0-6.601562 5.398438-12 12-12h-54.742187c-7.785157 0-14.101563 6.3125-14.101563 14.101562v34.449219h56.84375zm0 0" fill="#3342ae"/><path d="m240.371094 108.203125c-5.425782 0-10-4.386719-10-10 0-4.757813 3.339844-8.84375 8.042968-9.800781 6.089844-1.226563 11.957032 3.445312 11.957032 9.800781 0 5.476563-4.445313 10-10 10zm0 0" fill="#f948b4"/><path d="m270.871094 108.203125c-5.484375 0-10-4.449219-10-10 0-6.398437 5.875-11.023437 11.953125-9.800781 4.730469.960937 8.046875 5.089844 8.046875 9.800781 0 5.386719-4.359375 10-10 10zm0 0" fill="#fecd0a"/><path d="m301.371094 108.203125c-5.429688 0-10-4.398437-10-10 0-6.316406 5.804687-11.039063 11.953125-9.800781 4.714843.957031 8.046875 5.078125 8.046875 9.800781 0 5.476563-4.445313 10-10 10zm0 0" fill="#39df74"/><path d="m410.9375 105.703125h-77.921875c-4.140625 0-7.5-3.355469-7.5-7.5 0-4.140625 3.359375-7.5 7.5-7.5h77.921875c4.144531 0 7.5 3.359375 7.5 7.5 0 4.144531-3.355469 7.5-7.5 7.5zm0 0" fill="#aeaeff"/><path d="m454.242188 105.703125h-16c-4.144532 0-7.5-3.355469-7.5-7.5 0-4.140625 3.355468-7.5 7.5-7.5h16c4.140624 0 7.5 3.359375 7.5 7.5 0 4.144531-3.359376 7.5-7.5 7.5zm0 0" fill="#aeaeff"/><path d="m266.003906 34.273438c-5.542968 0-10-4.5-10-10 0-4.699219 3.265625-8.832032 8.039063-9.800782 6.152343-1.242187 11.960937 3.488282 11.960937 9.800782 0 5.441406-4.4375 10-10 10zm0 0" fill="#f948b4"/><path d="m296.503906 34.273438c-5.542968 0-10-4.5-10-10 0-6.414063 5.882813-11.027344 11.949219-9.800782 4.792969.972656 8.050781 5.136719 8.050781 9.800782 0 5.441406-4.4375 10-10 10zm0 0" fill="#fecd0a"/><path d="m327.003906 34.273438c-5.425781 0-10-4.398438-10-10 0-6.414063 5.882813-11.027344 11.949219-9.800782 4.835937.980469 8.050781 5.179688 8.050781 9.800782 0 5.425781-4.421875 10-10 10zm0 0" fill="#39df74"/><path d="m436.570312 31.773438h-77.925781c-4.140625 0-7.5-3.355469-7.5-7.5 0-4.140626 3.359375-7.5 7.5-7.5h77.925781c4.140626 0 7.5 3.359374 7.5 7.5 0 4.144531-3.359374 7.5-7.5 7.5zm0 0" fill="#aeaeff"/><path d="m386.964844 98.203125c0-4.140625 3.355468-7.5 7.5-7.5h-61.449219c-4.140625 0-7.5 3.359375-7.5 7.5 0 4.144531 3.359375 7.5 7.5 7.5h61.449219c-4.144532 0-7.5-3.355469-7.5-7.5zm0 0" fill="#8181fc"/><path d="m412.59375 24.273438c0-4.140626 3.359375-7.5 7.5-7.5h-61.449219c-4.140625 0-7.5 3.359374-7.5 7.5 0 4.144531 3.359375 7.5 7.5 7.5h61.449219c-4.140625 0-7.5-3.355469-7.5-7.5zm0 0" fill="#8181fc"/><path d="m479.871094 31.773438h-16c-4.144532 0-7.5-3.355469-7.5-7.5 0-4.140626 3.355468-7.5 7.5-7.5h16c4.140625 0 7.5 3.359374 7.5 7.5 0 4.144531-3.359375 7.5-7.5 7.5zm0 0" fill="#aeaeff"/></svg>