<svg height="512pt" viewBox="-11 0 512 512" width="512pt" xmlns="http://www.w3.org/2000/svg"><path d="m464.042969 376.835938c16.597656-33.039063 25.957031-70.34375 25.957031-109.835938 0-135.308594-109.691406-245-245-245s-245 109.691406-245 245c0 39.492188 9.359375 76.796875 25.957031 109.835938zm0 0" fill="#f948b4"/><path d="m465.035156 47.027344h-440.070312v327.808594c39.886718 81.238281 123.425781 137.164062 220.035156 137.164062s180.148438-55.925781 220.035156-137.164062c0-153.984376 0-317.613282 0-327.808594zm0 0" fill="#e6f7fe"/><path d="m91.800781 47.027344h-66.835937v327.808594c15.949218 32.484374 38.882812 60.914062 66.835937 83.347656zm0 0" fill="#d5f1fe"/><path d="m463.691406 0c-8.492187 0-425.023437 0-437.382812 0-.742188 0-1.34375.601562-1.34375 1.34375v47.207031h440.070312v-47.207031c0-.742188-.601562-1.34375-1.34375-1.34375zm0 0" fill="#615df9"/><path d="m91.800781 16.503906c0-7.609375 4.929688-14.105468 11.746094-16.503906-43.53125 0-74.027344 0-77.238281 0-.742188 0-1.34375.601562-1.34375 1.34375v47.207031h66.835937zm0 0" fill="#3342ae"/><path d="m61.300781 33.808594c-5.507812 0-10-4.488282-10-10 0-4.769532 3.351563-8.859375 8.050781-9.8125 6.117188-1.230469 11.949219 3.472656 11.949219 9.8125 0 5.554687-4.542969 10-10 10zm0 0" fill="#f948b4"/><path d="m91.800781 33.808594c-5.429687 0-10-4.421875-10-10 0-6.324219 5.816407-11.046875 11.949219-9.8125 4.84375.984375 8.050781 5.214844 8.050781 9.8125 0 5.507812-4.488281 10-10 10zm0 0" fill="#fecd0a"/><path d="m122.300781 33.808594c-5.429687 0-10-4.421875-10-10 0-6.355469 5.84375-11.042969 11.949219-9.8125 4.84375.984375 8.050781 5.21875 8.050781 9.8125 0 5.507812-4.488281 10-10 10zm0 0" fill="#39df74"/><path d="m436.140625 31.773438h-52.667969c-4.144531 0-7.5-3.359376-7.5-7.5 0-4.140626 3.355469-7.5 7.5-7.5h52.667969c4.140625 0 7.5 3.359374 7.5 7.5 0 4.140624-3.359375 7.5-7.5 7.5zm0 0" fill="#aeaeff"/><path d="m345.792969 31.773438h-183.847657c-4.140624 0-7.5-3.359376-7.5-7.5 0-4.140626 3.359376-7.5 7.5-7.5h183.847657c4.140625 0 7.5 3.359374 7.5 7.5 0 4.140624-3.355469 7.5-7.5 7.5zm0 0" fill="#aeaeff"/><path d="m304.320312 24.273438c0-4.140626 3.359376-7.5 7.5-7.5h-149.875c-4.140624 0-7.5 3.359374-7.5 7.5 0 4.140624 3.359376 7.5 7.5 7.5h149.875c-4.140624 0-7.5-3.355469-7.5-7.5zm0 0" fill="#8181fc"/><path d="m90.292969 280.128906c-4.625-8.011718-4.625-17.964844.003906-25.976562 71.535156-123.933594 237.710937-124.210938 309.410156 0 4.625 8.011718 4.625 17.964844 0 25.976562-71.550781 123.949219-237.726562 124.191406-309.414062 0zm0 0" fill="#d5f1fe"/><path d="m276.578125 349.015625c.984375-3.929687-.644531-8.007813-4.019531-10.25-16.59375-11.03125-15.171875-28.285156-12.707032-37.90625 1.035157-4.039063-.632812-8.335937-4.230468-10.449219-21.78125-12.792968-24.386719-33.886718-24.074219-44.996094.113281-4.042968-2.203125-7.820312-5.96875-9.300781-18.519531-7.273437-17.304687-25.789062-14.804687-36.496093.996093-4.261719-1.070313-8.5625-4.933594-10.613282-9.953125-5.296875-10.042969-14.839844-9.199219-20.097656.042969-.273438.070313-.550781.089844-.824219-41.925781 12.332031-80.433594 41.023438-106.4375 86.070313-4.625 8.011718-4.625 17.964844 0 25.976562 44.425781 76.964844 125.140625 106.117188 197.132812 87.675782-12.078125-3.867188-12.386719-12.632813-10.847656-18.789063zm0 0" fill="#b4e7fd"/><path d="m93.753906 184.671875c-4.140625 0-7.5-3.355469-7.5-7.5v-50.011719c0-10.347656 8.417969-18.765625 18.765625-18.765625h50.011719c4.144531 0 7.5 3.355469 7.5 7.5 0 4.140625-3.355469 7.5-7.5 7.5h-50.011719c-2.039062 0-3.765625 1.722657-3.765625 3.765625v50.011719c0 4.144531-3.359375 7.5-7.5 7.5zm0 0" fill="#d5f1fe"/><path d="m396.246094 184.671875c-4.140625 0-7.5-3.355469-7.5-7.5v-50.011719c0-2.042968-1.726563-3.765625-3.765625-3.765625h-50.011719c-4.144531 0-7.5-3.359375-7.5-7.5 0-4.144531 3.355469-7.5 7.5-7.5h50.011719c10.347656 0 18.765625 8.417969 18.765625 18.765625v50.011719c0 4.144531-3.359375 7.5-7.5 7.5zm0 0" fill="#d5f1fe"/><path d="m113.972656 267.140625c61.378906 105.523437 200.757813 105.386719 262.054688 0-61.378906-105.527344-200.757813-105.386719-262.054688 0zm0 0" fill="#b4e7fd"/><path d="m272.558594 338.765625c-16.59375-11.03125-15.171875-28.285156-12.707032-37.90625 1.035157-4.039063-.632812-8.335937-4.230468-10.449219-21.78125-12.792968-24.386719-33.886718-24.074219-44.996094.113281-4.042968-2.203125-7.820312-5.96875-9.300781-18.519531-7.273437-17.304687-25.789062-14.804687-36.496093.585937-2.511719.101562-5.035157-1.179688-7.105469-37.460938 9.539062-72.230469 34.410156-95.621094 74.628906 37.039063 63.683594 102.488282 88.867187 162.039063 75.675781-.730469-1.609375-1.90625-3.023437-3.453125-4.050781zm0 0" fill="#0ac6e5"/><path d="m302.992188 333.984375c18.6875-16.226563 30.507812-40.152344 30.507812-66.84375 0-26.707031-11.835938-50.644531-30.539062-66.871094-37.082032-16.285156-78.886719-16.265625-115.957032.027344-18.683594 16.226563-30.503906 40.152344-30.503906 66.84375 0 26.707031 11.835938 50.644531 30.539062 66.871094 37.082032 16.285156 78.882813 16.265625 115.953126-.027344zm0 0" fill="#615df9"/><path d="m272.558594 338.765625c-16.59375-11.03125-15.171875-28.285156-12.707032-37.90625 1.035157-4.039063-.632812-8.335937-4.230468-10.449219-21.78125-12.792968-24.386719-33.886718-24.074219-44.996094.113281-4.042968-2.203125-7.820312-5.96875-9.300781-18.519531-7.273437-17.304687-25.789062-14.804687-36.496093.585937-2.507813.105468-5.023438-1.175782-7.09375-7.667968 1.953124-15.226562 4.535156-22.59375 7.777343-18.683594 16.222657-30.503906 40.148438-30.503906 66.839844 0 26.707031 11.835938 50.644531 30.539062 66.871094 28.308594 12.429687 59.363282 15.351562 88.964844 8.792969-.730468-1.605469-1.902344-3.015626-3.445312-4.039063zm0 0" fill="#3342ae"/><path d="m276.75 267.140625c0 17.535156-14.214844 31.75-31.75 31.75s-31.75-14.214844-31.75-31.75 14.214844-31.75 31.75-31.75 31.75 14.214844 31.75 31.75zm0 0" fill="#8181fc"/><path d="m213.25 267.140625c0 17.535156 14.214844 31.75 31.75 31.75 5.273438 0 10.242188-1.292969 14.617188-3.570313-.699219-2.011718-2.066407-3.777343-3.996094-4.910156-21.78125-12.792968-24.386719-33.890625-24.074219-44.996094.0625-2.222656-.613281-4.367187-1.855469-6.089843-9.800781 5.402343-16.441406 15.832031-16.441406 27.816406zm0 0" fill="#615df9"/><path d="m117.953125 116.007812c0-3.101562 1.476563-5.851562 3.75-7.613281h-16.683594c-10.347656 0-18.765625 8.417969-18.765625 18.765625v50.015625c0 4.140625 3.359375 7.5 7.5 7.5s7.5-3.359375 7.5-7.5v-50.015625c0-2.039062 1.726563-3.765625 3.765625-3.765625h16.394531c-2.113281-1.765625-3.460937-4.417969-3.460937-7.386719zm0 0" fill="#b4e7fd"/><path d="m366.402344 116.007812c0-3.101562 1.472656-5.851562 3.75-7.613281h-35.183594c-4.144531 0-7.5 3.359375-7.5 7.5 0 4.144531 3.355469 7.5 7.5 7.5h34.890625c-2.113281-1.765625-3.457031-4.417969-3.457031-7.386719zm0 0" fill="#b4e7fd"/><path d="m93.753906 349.605469c-4.140625 0-7.5 3.359375-7.5 7.5v50.011719c0 10.351562 8.417969 18.769531 18.765625 18.769531h50.011719c4.144531 0 7.5-3.359375 7.5-7.5 0-4.144531-3.355469-7.5-7.5-7.5h-50.011719c-2.039062 0-3.765625-1.726563-3.765625-3.769531v-50.011719c0-4.140625-3.359375-7.5-7.5-7.5zm0 0" fill="#d5f1fe"/><path d="m396.246094 349.605469c-4.140625 0-7.5 3.359375-7.5 7.5v50.011719c0 2.042968-1.726563 3.769531-3.765625 3.769531h-50.011719c-4.144531 0-7.5 3.355469-7.5 7.5 0 4.140625 3.355469 7.5 7.5 7.5h50.011719c10.347656 0 18.765625-8.417969 18.765625-18.769531v-50.011719c0-4.140625-3.359375-7.5-7.5-7.5zm0 0" fill="#d5f1fe"/><g fill="#b4e7fd"><path d="m117.953125 418.273438c0 3.101562 1.476563 5.851562 3.75 7.613281h-16.683594c-10.347656 0-18.765625-8.421875-18.765625-18.769531v-50.011719c0-4.140625 3.359375-7.5 7.5-7.5s7.5 3.359375 7.5 7.5v50.011719c0 2.042968 1.726563 3.769531 3.765625 3.769531h16.394531c-2.113281 1.765625-3.460937 4.417969-3.460937 7.386719zm0 0"/><path d="m366.402344 418.273438c0 3.101562 1.472656 5.851562 3.75 7.613281h-35.183594c-4.144531 0-7.5-3.359375-7.5-7.5 0-4.144531 3.355469-7.5 7.5-7.5h34.890625c-2.113281 1.765625-3.457031 4.417969-3.457031 7.386719zm0 0"/></g></svg>