<svg height="512pt" viewBox="0 -10 512 511" width="512pt" xmlns="http://www.w3.org/2000/svg"><path d="m245 .5c-50.546875 0-97.511719 15.3125-136.527344 41.542969l-28.664062 384.382812c43.5625 39.796875 101.539062 64.074219 165.191406 64.074219 135.308594 0 245-109.691406 245-245s-109.691406-245-245-245zm0 0" fill="#27a3ff"/><path d="m437.207031 41.351562h-327.679687c-30.136719 20.039063-55.582032 46.570313-74.339844 77.597657l18.257812 279.273437c8.308594 10.40625 17.433594 20.132813 27.300782 29.054688h247.894531v-248.996094c0-12.441406 10.121094-22.5625 22.5625-22.5625h118.148437v-82.226562c0-17.722657-14.417968-32.140626-32.144531-32.140626zm0 0" fill="#2b3894"/><path d="m2.097656 273.128906-.308594 1.996094c5.574219 46.234375 24.019532 88.5 51.65625 123.113281h275.195313v-125.109375zm0 0" fill="#e6f7fe"/><path d="m2.097656 273.128906-.308594 1.996094c5.574219 46.234375 24.019532 88.5 51.65625 123.113281h20.210938v-125.109375zm0 0" fill="#d5f1fe"/><path d="m440.3125 118.9375v-45.445312c0-1.683594-1.421875-3.105469-3.101562-3.105469h-363.535157c-14.773437 14.457031-27.734375 30.761719-38.488281 48.550781zm0 0" fill="#615df9"/><path d="m73.65625 118.9375v-48.53125c-14.765625 14.453125-27.71875 30.75-38.46875 48.53125zm0 0" fill="#3342ae"/><path d="m187.855469 336.664062c0 17.535157-14.214844 31.75-31.75 31.75-17.535157 0-31.75-14.214843-31.75-31.75 0-17.535156 14.214843-31.75 31.75-31.75 17.535156 0 31.75 14.214844 31.75 31.75zm0 0" fill="#3d4ec6"/><path d="m83.839844 336.664062c0 17.535157-14.21875 31.75-31.75 31.75-17.535156 0-31.75-14.214843-31.75-31.75 0-17.535156 14.214844-31.75 31.75-31.75 17.53125 0 31.75 14.214844 31.75 31.75zm0 0" fill="#3d4ec6"/><path d="m291.875 336.664062c0 17.535157-14.214844 31.75-31.75 31.75s-31.75-14.214843-31.75-31.75c0-17.535156 14.214844-31.75 31.75-31.75s31.75 14.214844 31.75 31.75zm0 0" fill="#3d4ec6"/><path d="m178.105469 357.160156c-17.535157 0-31.75-14.214844-31.75-31.75 0-7.769531 2.796875-14.886718 7.433593-20.402344-16.453124 1.1875-29.433593 14.898438-29.433593 31.652344 0 17.535156 14.214843 31.75 31.75 31.75 9.761719 0 18.492187-4.40625 24.316406-11.339844-.765625.054688-1.535156.089844-2.316406.089844zm0 0" fill="#3342ae"/><path d="m74.089844 357.160156c-17.535156 0-31.75-14.214844-31.75-31.75 0-7.769531 2.792968-14.886718 7.429687-20.402344-16.449219 1.1875-29.429687 14.898438-29.429687 31.652344 0 17.535156 14.214844 31.75 31.75 31.75 9.761718 0 18.492187-4.40625 24.316406-11.339844-.765625.054688-1.539062.089844-2.316406.089844zm0 0" fill="#3342ae"/><path d="m282.125 357.160156c-17.535156 0-31.75-14.214844-31.75-31.75 0-7.769531 2.796875-14.886718 7.433594-20.40625-16.453125 1.1875-29.433594 14.902344-29.433594 31.65625 0 17.535156 14.214844 31.75 31.75 31.75 9.761719 0 18.492188-4.40625 24.316406-11.339844-.765625.054688-1.535156.089844-2.316406.089844zm0 0" fill="#3342ae"/><path d="m411.417969 102.160156h-52.667969c-4.144531 0-7.5-3.355468-7.5-7.5 0-4.140625 3.355469-7.5 7.5-7.5h52.667969c4.140625 0 7.5 3.359375 7.5 7.5 0 4.144532-3.359375 7.5-7.5 7.5zm0 0" fill="#aeaeff"/><path d="m321.070312 102.160156h-230.246093c-4.140625 0-7.5-3.355468-7.5-7.5 0-4.140625 3.359375-7.5 7.5-7.5h230.246093c4.140626 0 7.5 3.359375 7.5 7.5 0 4.144532-3.355468 7.5-7.5 7.5zm0 0" fill="#aeaeff"/><path d="m284.441406 94.660156c0-4.140625 3.359375-7.5 7.5-7.5h-201.117187c-4.140625 0-7.5 3.359375-7.5 7.5 0 4.144532 3.359375 7.5 7.5 7.5h201.117187c-4.140625 0-7.5-3.355468-7.5-7.5zm0 0" fill="#8181fc"/><path d="m57.109375 175.648438h-27.378906c-4.140625 0-7.5-3.355469-7.5-7.5 0-4.140626 3.359375-7.5 7.5-7.5h27.378906c4.144531 0 7.5 3.359374 7.5 7.5 0 4.144531-3.355469 7.5-7.5 7.5zm0 0" fill="#8181fc"/><path d="m22.105469 143.679688h418.207031v-24.742188h-405.125c-4.8125 7.960938-9.183594 16.222656-13.082031 24.742188zm0 0" fill="#d5f1fe"/><path d="m73.65625 118.9375h-38.46875c-4.8125 7.960938-9.183594 16.222656-13.082031 24.742188h51.550781zm0 0" fill="#11dfef"/><path d="m70.800781 143.679688c0-13.664063-11.078125-24.742188-24.746093-24.742188h-10.867188c-4.8125 7.960938-9.183594 16.222656-13.082031 24.742188zm0 0" fill="#0ac6e5"/><path d="m440.3125 143.679688h-418.207031c-14.1875 31.011718-22.105469 65.488281-22.105469 101.820312 0 10.027344.617188 19.914062 1.789062 29.628906h326.851563v-96.847656c0-12.441406 10.121094-22.5625 22.5625-22.5625h89.109375zm0 0" fill="#f948b4"/><path d="m73.65625 143.679688h-51.550781c-14.1875 31.011718-22.105469 65.488281-22.105469 101.820312 0 10.027344.617188 19.914062 1.789062 29.628906h71.867188zm0 0" fill="#e00e8b"/><path d="m264.789062 275.128906h63.855469v-96.847656c0-12.441406 10.121094-22.5625 22.558594-22.5625h89.109375v-12.039062h-280.390625zm0 0" fill="#fc7acd"/><path d="m487.9375 154.21875h-136.734375c-13.265625 0-24.0625 10.792969-24.0625 24.0625v288.15625c0 13.269531 10.796875 24.0625 24.0625 24.0625h136.734375c13.269531 0 24.0625-10.792969 24.0625-24.0625v-288.15625c0-13.265625-10.792969-24.0625-24.0625-24.0625zm0 0" fill="#3d4ec6"/><path d="m379.949219 475.050781c1.929687 0 3.703125.640625 5.132812 1.714844v-294.828125c-7.351562-.707031-13.101562-6.894531-13.101562-14.429688 0-5.945312 3.582031-11.050781 8.707031-13.289062h-29.484375c-13.265625 0-24.0625 10.792969-24.0625 24.0625v288.15625c0 13.269531 10.796875 24.0625 24.0625 24.0625h23.617187c-2.09375-1.5625-3.453124-4.054688-3.453124-6.867188 0-4.742187 3.84375-8.582031 8.582031-8.582031zm0 0" fill="#3342ae"/><path d="m341.070312 305.785156v160.652344c0 5.597656 4.539063 10.132812 10.132813 10.132812h136.734375c5.59375 0 10.132812-4.535156 10.132812-10.132812 0-5.511719 0-86.070312 0-160.652344zm0 0" fill="#e6f7fe"/><path d="m375.0625 305.785156h-33.992188v160.652344c0 5.597656 4.539063 10.132812 10.132813 10.132812h23.859375zm0 0" fill="#d5f1fe"/><path d="m396.226562 354.539062c0 8.765626-7.109374 15.875-15.875 15.875-8.769531 0-15.875-7.109374-15.875-15.875 0-8.769531 7.105469-15.875 15.875-15.875 8.765626 0 15.875 7.105469 15.875 15.875zm0 0" fill="#3d4ec6"/><path d="m396.226562 413.402344c0 8.765625-7.109374 15.875-15.875 15.875-8.769531 0-15.875-7.109375-15.875-15.875 0-8.769532 7.105469-15.875 15.875-15.875 8.765626 0 15.875 7.105468 15.875 15.875zm0 0" fill="#3d4ec6"/><path d="m379.25 338.71875c-8.25.566406-14.773438 7.421875-14.773438 15.816406 0 8.769532 7.105469 15.875 15.875 15.875 5.609376 0 10.527344-2.914062 13.347657-7.304687-13.136719.898437-21.4375-13.523438-14.449219-24.386719zm0 0" fill="#3342ae"/><path d="m379.25 397.582031c-8.25.566407-14.773438 7.425781-14.773438 15.820313 0 8.769531 7.105469 15.875 15.875 15.875 5.609376 0 10.527344-2.914063 13.347657-7.304688-13.25.902344-21.378907-13.617187-14.449219-24.390625zm0 0" fill="#3342ae"/><path d="m487.9375 168.148438h-20.320312c-1.917969 0-3.46875 1.554687-3.46875 3.46875 0 4.597656-3.761719 8.359374-8.359376 8.359374h-72.4375c-4.59375 0-8.355468-3.761718-8.355468-8.359374 0-1.914063-1.554688-3.46875-3.46875-3.46875h-20.324219c-5.59375 0-10.132813 4.535156-10.132813 10.132812v129.503906h157v-129.503906c0-5.59375-4.535156-10.132812-10.132812-10.132812zm0 0" fill="#f948b4"/><path d="m375.0625 172.636719c-.039062-.335938-.066406-.671875-.066406-1.019531 0-1.917969-1.554688-3.46875-3.46875-3.46875h-20.324219c-5.59375 0-10.132813 4.535156-10.132813 10.132812v129.503906h33.992188zm0 0" fill="#e00e8b"/><path d="m487.9375 168.148438h-20.320312c-1.917969 0-3.46875 1.554687-3.46875 3.46875 0 4.597656-3.761719 8.359374-8.359376 8.359374h-39.953124l82.234374 103.078126v-104.773438c0-5.59375-4.535156-10.132812-10.132812-10.132812zm0 0" fill="#fc7acd"/><g fill="#11dfef"><path d="m445.222656 349.5h-22.539062c-4.144532 0-7.5-3.355469-7.5-7.5s3.355468-7.5 7.5-7.5h22.539062c4.140625 0 7.5 3.355469 7.5 7.5 0 4.140625-3.359375 7.5-7.5 7.5zm0 0"/><path d="m467.761719 374.574219h-45.078125c-4.140625 0-7.5-3.355469-7.5-7.5 0-4.140625 3.359375-7.5 7.5-7.5h45.078125c4.140625 0 7.5 3.359375 7.5 7.5 0 4.144531-3.359375 7.5-7.5 7.5zm0 0"/><path d="m445.222656 408.363281h-22.539062c-4.144532 0-7.5-3.355469-7.5-7.5 0-4.140625 3.355468-7.5 7.5-7.5h22.539062c4.140625 0 7.5 3.359375 7.5 7.5 0 4.144531-3.359375 7.5-7.5 7.5zm0 0"/><path d="m467.761719 433.4375h-45.078125c-4.140625 0-7.5-3.355469-7.5-7.5 0-4.140625 3.359375-7.5 7.5-7.5h45.078125c4.140625 0 7.5 3.359375 7.5 7.5 0 4.144531-3.359375 7.5-7.5 7.5zm0 0"/></g><path d="m394.039062 216.902344h-27.378906c-4.140625 0-7.5-3.355469-7.5-7.5 0-4.140625 3.359375-7.5 7.5-7.5h27.378906c4.144532 0 7.5 3.359375 7.5 7.5 0 4.144531-3.355468 7.5-7.5 7.5zm0 0" fill="#fc7acd"/></svg>