<svg height="512pt" viewBox="-11 0 512 512" width="512pt" xmlns="http://www.w3.org/2000/svg"><path d="m464.042969 376.835938c16.597656-33.039063 25.957031-70.34375 25.957031-109.835938 0-135.308594-109.691406-245-245-245s-245 109.691406-245 245c0 39.492188 9.359375 76.796875 25.957031 109.835938zm0 0" fill="#27a3ff"/><path d="m465.035156 71.292969h-440.070312v303.542969c39.886718 81.238281 123.425781 137.164062 220.035156 137.164062s180.148438-55.925781 220.035156-137.164062zm0 0" fill="#e6f7fe"/><path d="m91.800781 71.292969h-66.835937v303.542969c15.949218 32.484374 38.882812 60.914062 66.835937 83.347656zm0 0" fill="#d5f1fe"/><path d="m24.964844 47.027344h440.070312v26.265625h-440.070312zm0 0" fill="#d5f1fe"/><path d="m141.921875 73.292969h-116.957031v-26.265625h92.210937c13.667969 0 24.746094 11.757812 24.746094 26.265625zm0 0" fill="#11dfef"/><path d="m24.964844 47.027344h66.835937v26.265625h-66.835937zm0 0" fill="#0ac6e5"/><path d="m463.691406 0c-8.492187 0-425.023437 0-437.382812 0-.742188 0-1.34375.601562-1.34375 1.34375v47.207031h440.070312v-47.207031c0-.742188-.601562-1.34375-1.34375-1.34375zm0 0" fill="#615df9"/><path d="m91.800781 13.570312c0-7.464843 6.105469-13.570312 13.570313-13.570312-44.5 0-75.808594 0-79.0625 0-.746094 0-1.34375.601562-1.34375 1.34375v47.207031h66.835937zm0 0" fill="#3342ae"/><path d="m61.300781 33.808594c-5.507812 0-10-4.488282-10-10 0-4.769532 3.351563-8.859375 8.050781-9.8125 6.117188-1.230469 11.949219 3.472656 11.949219 9.8125 0 5.554687-4.542969 10-10 10zm0 0" fill="#f948b4"/><path d="m91.800781 33.808594c-5.429687 0-10-4.421875-10-10 0-6.324219 5.816407-11.046875 11.949219-9.8125 4.84375.984375 8.050781 5.214844 8.050781 9.8125 0 5.507812-4.488281 10-10 10zm0 0" fill="#fecd0a"/><path d="m122.300781 33.808594c-5.429687 0-10-4.421875-10-10 0-6.355469 5.84375-11.042969 11.949219-9.8125 4.84375.984375 8.050781 5.21875 8.050781 9.8125 0 5.507812-4.488281 10-10 10zm0 0" fill="#39df74"/><path d="m440.292969 263.253906v-158.972656c0-3.449219-2.796875-6.242188-6.246094-6.242188h-220.089844c-3.449219 0-6.246093 2.792969-6.246093 6.242188v158.972656c0 3.445313 2.796874 6.242188 6.246093 6.242188h220.089844c3.449219 0 6.246094-2.796875 6.246094-6.242188zm0 0" fill="#11dfef"/><path d="m249.765625 263.253906v-158.972656c0-3.449219 2.792969-6.242188 6.242187-6.242188h-42.050781c-3.449219 0-6.246093 2.792969-6.246093 6.242188v158.972656c0 3.445313 2.796874 6.242188 6.246093 6.242188h42.050781c-3.449218 0-6.242187-2.796875-6.242187-6.242188zm0 0" fill="#0ac6e5"/><path d="m218.132812 98.039062h-162.179687c-3.449219 0-6.246094 2.792969-6.246094 6.242188v158.972656c0 3.445313 2.796875 6.242188 6.246094 6.242188h162.179687zm0 0" fill="#615df9"/><path d="m91.800781 263.253906v-158.972656c0-3.449219 2.796875-6.242188 6.246094-6.242188h-42.09375c-3.449219 0-6.246094 2.792969-6.246094 6.242188v158.972656c0 3.445313 2.796875 6.242188 6.246094 6.242188h42.09375c-3.449219 0-6.246094-2.796875-6.246094-6.242188zm0 0" fill="#3342ae"/><path d="m190.820312 123.53125h-113.800781c-1.894531 0-3.445312 1.550781-3.445312 3.445312v20.121094s27.765625-20.125 58.707031 5.265625c.808594.664063 1.605469 1.28125 2.40625 1.875-.09375.664063-.144531 1.339844-.144531 2.03125 0 8.058594 6.554687 14.617188 14.613281 14.617188 5.335938 0 10.011719-2.878907 12.566406-7.160157 19.4375-.550781 32.542969-16.421874 32.542969-16.421874v-20.328126c0-1.894531-1.550781-3.445312-3.445313-3.445312zm0 0" fill="#fce395"/><path d="m77.019531 123.53125c-1.894531 0-3.445312 1.550781-3.445312 3.445312v20.121094s12.191406-8.832031 29.417969-7.40625c.039062-.046875.078124-.097656.113281-.140625.804687-.945312.820312-2.292969.109375-3.3125-4.570313-6.570312 1.492187-12.707031 1.492187-12.707031zm0 0" fill="#fecd0a"/><path d="m402.003906 184.605469h-145.738281c-4.144531 0-7.5-3.359375-7.5-7.5 0-4.144531 3.355469-7.5 7.5-7.5h145.738281c4.144532 0 7.5 3.355469 7.5 7.5 0 4.140625-3.355468 7.5-7.5 7.5zm0 0" fill="#e6f7fe"/><path d="m402.003906 213.492188h-145.738281c-4.144531 0-7.5-3.355469-7.5-7.5 0-4.140626 3.355469-7.5 7.5-7.5h145.738281c4.144532 0 7.5 3.359374 7.5 7.5 0 4.144531-3.355468 7.5-7.5 7.5zm0 0" fill="#e6f7fe"/><path d="m329.132812 242.382812h-72.871093c-4.140625 0-7.5-3.359374-7.5-7.5 0-4.144531 3.359375-7.5 7.5-7.5h72.871093c4.144532 0 7.5 3.355469 7.5 7.5 0 4.140626-3.355468 7.5-7.5 7.5zm0 0" fill="#e6f7fe"/><path d="m332.632812 148.4375h-72.871093c-5.523438 0-10-4.476562-10-10s4.476562-10 10-10h72.871093c5.523438 0 10 4.476562 10 10s-4.476562 10-10 10zm0 0" fill="#8181fc"/><path d="m303.949219 138.4375c0-5.523438 4.476562-10 10-10h-54.183594c-5.523437 0-10 4.476562-10 10s4.476563 10 10 10h54.183594c-5.523438 0-10-4.476562-10-10zm0 0" fill="#615df9"/><path d="m402.003906 242.382812h-10.371094c-4.144531 0-7.5-3.359374-7.5-7.5 0-4.144531 3.355469-7.5 7.5-7.5h10.371094c4.140625 0 7.5 3.355469 7.5 7.5 0 4.140626-3.355468 7.5-7.5 7.5zm0 0" fill="#e6f7fe"/><path d="m97.789062 162.453125c4.519532-4.519531 11.851563-4.519531 16.375 0l29.949219 29.953125c1.789063 1.789062 4.691407 1.789062 6.480469 0l7.269531-7.269531c4.09375-4.09375 10.730469-4.09375 14.820313 0l21.582031 21.582031v-61.414062s-13.105469 15.871093-32.542969 16.421874c-2.550781 4.28125-7.226562 7.160157-12.5625 7.160157-8.058594 0-14.617187-6.558594-14.617187-14.617188 0-.691406.050781-1.367187.144531-2.03125-.796875-.59375-1.597656-1.210937-2.40625-1.875-30.9375-25.390625-58.707031-5.265625-58.707031-5.265625v41.574219zm0 0" fill="#fecd0a"/><path d="m104.523438 159.167969c.089843-.15625.183593-.304688.273437-.445313.625-.984375.550781-2.269531-.214844-3.152344-6.6875-7.710937-3.683593-13.421874-1.476562-16.019531.441406-.515625.636719-1.15625.613281-1.796875-17.609375-1.742187-30.144531 7.34375-30.144531 7.34375v41.574219l24.214843-24.21875c1.890626-1.886719 4.273438-2.976563 6.734376-3.285156zm0 0" fill="#fca60d"/><path d="m164.394531 154.269531c0 8.414063-6.820312 15.238281-15.238281 15.238281-8.414062 0-15.234375-6.824218-15.234375-15.238281 0-8.417969 6.820313-15.238281 15.234375-15.238281 8.417969 0 15.238281 6.820312 15.238281 15.238281zm0 0" fill="#fca60d"/><path d="m147.046875 139.191406c-7.414063 1.03125-13.125 7.378906-13.125 15.078125 0 8.414063 6.820313 15.238281 15.234375 15.238281 5.472656 0 10.257812-2.894531 12.945312-7.226562-12.910156 1.789062-21.777343-12.25-15.054687-23.089844zm0 0" fill="#f98a10"/><path d="m172.683594 183.136719c-4.09375-4.09375-10.730469-4.09375-14.820313 0l-7.269531 7.269531c-1.789062 1.789062-4.691406 1.789062-6.480469 0l-29.949219-29.953125c-4.523437-4.519531-11.855468-4.519531-16.375 0l-24.214843 24.21875v30.050781s27.765625-20.125 58.707031 5.265625c34.460938 28.285157 61.984375-5.058593 61.984375-5.058593v-10.210938zm0 0" fill="#fca60d"/><path d="m109.289062 179.882812c-11.550781-7.351562-6.964843-17.273437-4.492187-21.160156.3125-.496094.449219-1.066406.414063-1.621094-2.703126.175782-5.355469 1.289063-7.421876 3.351563l-24.214843 24.21875v30.050781s10.085937-7.304687 24.867187-7.558594c1.035156-1.269531 2.042969-1.988281 2.042969-1.988281 6.695313-2.703125 23.46875-15.960937 8.804687-25.292969zm0 0" fill="#f98a10"/><path d="m77.019531 244.222656h113.800781c1.894532 0 3.445313-1.550781 3.445313-3.449218v-27.84375s-27.523437 33.339843-61.984375 5.058593c-30.9375-25.390625-58.707031-5.269531-58.707031-5.269531v28.054688c0 1.898437 1.550781 3.449218 3.445312 3.449218zm0 0" fill="#8181fc"/><path d="m105.828125 224.6875c-17.871094-10.566406-5.347656-19.507812-5.34375-19.511719-15.890625-.4375-26.910156 7.546875-26.910156 7.546875v28.054688c0 1.894531 1.550781 3.445312 3.445312 3.445312h31.386719c4.546875-4.625 9.1875-12.578125-2.578125-19.535156zm0 0" fill="#615df9"/><path d="m440.292969 414.9375v-114.453125c0-3.449219-2.796875-6.246094-6.246094-6.246094h-220.089844c-3.449219 0-6.246093 2.796875-6.246093 6.246094v158.96875c0 3.449219 2.796874 6.246094 6.246093 6.246094h174.378907c19.730468-14.257813 37.253906-31.382813 51.957031-50.761719zm0 0" fill="#11dfef"/><path d="m249.765625 459.453125v-158.96875c0-3.449219 2.792969-6.242187 6.242187-6.242187h-42.050781c-3.449219 0-6.246093 2.792968-6.246093 6.242187v158.96875c0 3.449219 2.796874 6.246094 6.246093 6.246094h42.050781c-3.449218 0-6.242187-2.796875-6.242187-6.246094zm0 0" fill="#0ac6e5"/><path d="m49.707031 300.484375v114.453125c14.703125 19.382812 32.226563 36.503906 51.957031 50.761719h116.46875v-171.457031h-162.179687c-3.449219 0-6.246094 2.792968-6.246094 6.242187zm0 0" fill="#615df9"/><path d="m91.800781 300.484375c0-3.449219 2.796875-6.242187 6.246094-6.242187h-42.09375c-3.449219 0-6.246094 2.792968-6.246094 6.242187v114.453125c12.207031 16.085938 26.355469 30.609375 42.09375 43.238281zm0 0" fill="#3342ae"/><g fill="#e6f7fe"><path d="m402.003906 380.808594h-145.738281c-4.144531 0-7.5-3.359375-7.5-7.5 0-4.144532 3.355469-7.5 7.5-7.5h145.738281c4.144532 0 7.5 3.355468 7.5 7.5 0 4.140625-3.355468 7.5-7.5 7.5zm0 0"/><path d="m402.003906 409.695312h-145.738281c-4.144531 0-7.5-3.355468-7.5-7.5 0-4.144531 3.355469-7.5 7.5-7.5h145.738281c4.144532 0 7.5 3.355469 7.5 7.5 0 4.144532-3.355468 7.5-7.5 7.5zm0 0"/><path d="m329.132812 438.585938h-72.871093c-4.140625 0-7.5-3.359376-7.5-7.5 0-4.144532 3.359375-7.5 7.5-7.5h72.871093c4.144532 0 7.5 3.355468 7.5 7.5 0 4.140624-3.355468 7.5-7.5 7.5zm0 0"/><path d="m402.003906 438.585938h-10.371094c-4.144531 0-7.5-3.359376-7.5-7.5 0-4.144532 3.355469-7.5 7.5-7.5h10.371094c4.140625 0 7.5 3.355468 7.5 7.5 0 4.140624-3.355468 7.5-7.5 7.5zm0 0"/></g><path d="m436.140625 31.773438h-52.667969c-4.144531 0-7.5-3.355469-7.5-7.5 0-4.140626 3.355469-7.5 7.5-7.5h52.667969c4.140625 0 7.5 3.359374 7.5 7.5 0 4.144531-3.359375 7.5-7.5 7.5zm0 0" fill="#aeaeff"/><path d="m345.792969 31.773438h-183.847657c-4.140624 0-7.5-3.355469-7.5-7.5 0-4.140626 3.359376-7.5 7.5-7.5h183.847657c4.140625 0 7.5 3.359374 7.5 7.5 0 4.144531-3.355469 7.5-7.5 7.5zm0 0" fill="#aeaeff"/><path d="m304.320312 24.273438c0-4.140626 3.359376-7.5 7.5-7.5h-149.875c-4.140624 0-7.5 3.359374-7.5 7.5 0 4.144531 3.359376 7.5 7.5 7.5h149.875c-4.140624 0-7.5-3.355469-7.5-7.5zm0 0" fill="#8181fc"/><path d="m332.632812 344.640625h-72.871093c-5.523438 0-10-4.476563-10-10s4.476562-10 10-10h72.871093c5.523438 0 10 4.476563 10 10s-4.476562 10-10 10zm0 0" fill="#8181fc"/><path d="m303.949219 334.640625c0-5.523437 4.476562-10 10-10h-54.183594c-5.523437 0-10 4.476563-10 10s4.476563 10 10 10h54.183594c-5.523438 0-10-4.476563-10-10zm0 0" fill="#615df9"/><path d="m190.820312 319.734375h-113.800781c-1.894531 0-3.445312 1.550781-3.445312 3.445313v20.121093s27.765625-20.125 58.707031 5.265625c.808594.664063 1.605469 1.28125 2.40625 1.875-.09375.664063-.144531 1.339844-.144531 2.03125 0 8.058594 6.554687 14.617188 14.613281 14.617188 5.335938 0 10.011719-2.878906 12.566406-7.160156 19.4375-.550782 32.542969-16.421876 32.542969-16.421876v-20.328124c0-1.894532-1.550781-3.445313-3.445313-3.445313zm0 0" fill="#fce395"/><path d="m77.019531 319.734375c-1.894531 0-3.445312 1.550781-3.445312 3.445313v20.121093s12.191406-8.832031 29.417969-7.40625c.039062-.046875.078124-.097656.113281-.140625.804687-.945312.820312-2.292968.109375-3.3125-4.570313-6.570312 1.492187-12.707031 1.492187-12.707031zm0 0" fill="#fecd0a"/><path d="m97.789062 358.65625c4.519532-4.519531 11.851563-4.519531 16.375 0l29.949219 29.953125c1.789063 1.789063 4.691407 1.789063 6.480469 0l7.269531-7.269531c4.09375-4.09375 10.730469-4.09375 14.820313 0l21.582031 21.582031v-61.414063s-13.105469 15.871094-32.542969 16.421876c-2.550781 4.28125-7.226562 7.160156-12.5625 7.160156-8.058594 0-14.617187-6.558594-14.617187-14.617188 0-.691406.050781-1.367187.144531-2.03125-.796875-.59375-1.597656-1.210937-2.40625-1.875-30.9375-25.390625-58.707031-5.265625-58.707031-5.265625v41.570313zm0 0" fill="#fecd0a"/><path d="m104.523438 355.367188c.089843-.152344.183593-.304688.273437-.441407.625-.984375.550781-2.273437-.214844-3.152343-6.6875-7.710938-3.683593-13.421876-1.476562-16.019532.441406-.519531.636719-1.15625.613281-1.800781-17.609375-1.738281-30.144531 7.34375-30.144531 7.34375v41.574219l24.214843-24.214844c1.890626-1.886719 4.273438-2.976562 6.734376-3.289062zm0 0" fill="#fca60d"/><path d="m164.394531 350.472656c0 8.414063-6.820312 15.238282-15.238281 15.238282-8.414062 0-15.234375-6.824219-15.234375-15.238282 0-8.417968 6.820313-15.238281 15.234375-15.238281 8.417969 0 15.238281 6.820313 15.238281 15.238281zm0 0" fill="#fca60d"/><path d="m147.046875 335.394531c-7.414063 1.03125-13.125 7.378907-13.125 15.078125 0 8.414063 6.820313 15.238282 15.234375 15.238282 5.472656 0 10.257812-2.894532 12.945312-7.226563-12.910156 1.789063-21.777343-12.25-15.054687-23.089844zm0 0" fill="#f98a10"/><path d="m172.683594 379.339844c-4.09375-4.09375-10.730469-4.09375-14.820313 0l-7.269531 7.269531c-1.789062 1.789063-4.691406 1.789063-6.480469 0l-29.949219-29.953125c-4.523437-4.519531-11.855468-4.519531-16.375 0l-24.214843 24.214844v30.054687s27.765625-20.125 58.707031 5.265625c34.460938 28.285156 61.984375-5.058594 61.984375-5.058594v-10.210937zm0 0" fill="#fca60d"/><path d="m109.289062 376.085938c-11.550781-7.351563-6.964843-17.273438-4.492187-21.160157.3125-.496093.449219-1.066406.414063-1.621093-2.703126.175781-5.355469 1.289062-7.421876 3.351562l-24.214843 24.214844v30.050781s10.085937-7.300781 24.871093-7.554687c1.035157-1.269532 2.039063-1.988282 2.039063-1.988282 6.695313-2.703125 23.46875-15.960937 8.804687-25.292968zm0 0" fill="#f98a10"/><path d="m77.019531 440.425781h113.800781c1.894532 0 3.445313-1.554687 3.445313-3.449219v-27.84375s-27.523437 33.339844-61.984375 5.058594c-30.9375-25.390625-58.707031-5.269531-58.707031-5.269531v28.054687c0 1.894532 1.550781 3.449219 3.445312 3.449219zm0 0" fill="#8181fc"/><path d="m105.828125 420.890625c-17.871094-10.566406-5.347656-19.507813-5.347656-19.507813-15.886719-.441406-26.90625 7.542969-26.90625 7.542969v28.054688c0 1.894531 1.550781 3.445312 3.445312 3.445312h31.386719c4.546875-4.628906 9.1875-12.578125-2.578125-19.535156zm0 0" fill="#615df9"/></svg>