<svg height="512pt" viewBox="0 -11 512 512" width="512pt" xmlns="http://www.w3.org/2000/svg"><path d="m280.988281 164.054688h195.304688c-33.429688-95.53125-124.351563-164.054688-231.292969-164.054688-41.0625 0-79.761719 10.117188-113.753906 27.972656zm0 0" fill="#27a3ff"/><path d="m253.714844 27.972656h-122.46875c-13.433594 7.054688-26.128906 15.320313-37.945313 24.652344v111.429688h187.6875v-108.808594c0-15.039063-12.234375-27.273438-27.273437-27.273438zm0 0" fill="#2b3894"/><path d="m0 245c0 56.621094 19.21875 108.75 51.472656 150.238281v-205.414062c0-14.210938 11.5625-25.769531 25.773438-25.769531h179.105468v-85.878907h-190.757812c-40.691406 43.742188-65.59375 102.371094-65.59375 166.824219zm0 0" fill="#fecd0a"/><path d="m93.300781 78.175781h-27.707031c-40.691406 43.742188-65.59375 102.371094-65.59375 166.824219 0 56.621094 19.21875 108.75 51.472656 150.238281v-205.414062c0-14.210938 11.5625-25.769531 25.773438-25.769531h16.054687zm0 0" fill="#fca60d"/><path d="m253.714844 52.609375h-160.414063c-10.601562 8.367187-20.492187 17.589844-29.570312 27.566406h192.617187v-24.929687c0-1.429688-1.203125-2.636719-2.632812-2.636719zm0 0" fill="#d5f1fe"/><path d="m93.300781 52.609375c-10.601562 8.367187-20.492187 17.589844-29.570312 27.566406h29.570312zm0 0" fill="#11dfef"/><path d="m210.851562 121.523438c0-7.613282-6.167968-13.78125-13.78125-13.78125h-153.933593c-.386719 0-.765625.027343-1.144531.058593-4.144532 6.125-8.015626 12.453125-11.605469 18.957031 2.0625 5.015626 6.988281 8.550782 12.75 8.550782h153.933593c7.613282 0 13.78125-6.171875 13.78125-13.785156zm0 0" fill="#fca60d"/><path d="m91.886719 121.523438c0-7.613282 6.171875-13.78125 13.785156-13.78125h-62.535156c-.386719 0-.765625.027343-1.144531.058593-4.144532 6.125-8.015626 12.453125-11.605469 18.957031 2.0625 5.015626 6.988281 8.550782 12.75 8.550782h62.535156c-7.613281 0-13.785156-6.171875-13.785156-13.785156zm0 0" fill="#f98a10"/><path d="m52.90625 188.171875h-32.375c-4.140625 0-7.5-3.359375-7.5-7.5 0-4.144531 3.359375-7.5 7.5-7.5h32.375c4.144531 0 7.5 3.355469 7.5 7.5 0 4.140625-3.355469 7.5-7.5 7.5zm0 0" fill="#fecd0a"/><path d="m52.90625 219.640625h-32.375c-4.140625 0-7.5-3.355469-7.5-7.5 0-4.140625 3.359375-7.5 7.5-7.5h32.375c4.144531 0 7.5 3.359375 7.5 7.5 0 4.144531-3.355469 7.5-7.5 7.5zm0 0" fill="#fecd0a"/><path d="m52.90625 251.113281h-32.375c-4.140625 0-7.5-3.355469-7.5-7.5 0-4.140625 3.359375-7.5 7.5-7.5h32.375c4.144531 0 7.5 3.359375 7.5 7.5 0 4.144531-3.355469 7.5-7.5 7.5zm0 0" fill="#fecd0a"/><path d="m52.90625 282.585938h-32.375c-4.140625 0-7.5-3.359376-7.5-7.5 0-4.140626 3.359375-7.5 7.5-7.5h32.375c4.144531 0 7.5 3.359374 7.5 7.5 0 4.140624-3.355469 7.5-7.5 7.5zm0 0" fill="#fecd0a"/><path d="m52.90625 314.058594h-32.375c-4.140625 0-7.5-3.359375-7.5-7.5 0-4.144532 3.359375-7.5 7.5-7.5h32.375c4.144531 0 7.5 3.355468 7.5 7.5 0 4.140625-3.355469 7.5-7.5 7.5zm0 0" fill="#fecd0a"/><path d="m52.90625 330.53125h-32.375c-1.726562 0-3.308594.585938-4.578125 1.566406 1.730469 4.542969 3.574219 9.023438 5.5625 13.433594h31.390625c4.144531 0 7.5-3.359375 7.5-7.5 0-4.144531-3.355469-7.5-7.5-7.5zm0 0" fill="#fecd0a"/><path d="m52.90625 362.003906h-23.214844c2.785156 5.109375 5.746094 10.113282 8.875 15h14.339844c4.144531 0 7.5-3.359375 7.5-7.5 0-4.144531-3.355469-7.5-7.5-7.5zm0 0" fill="#fecd0a"/><path d="m484.726562 162.554688h-407.480468c-15.039063 0-27.273438 12.234374-27.273438 27.269531v203.457031c7.539063 9.902344 15.828125 19.191406 24.757813 27.828125l62.980469 44.175781c32.402343 15.816406 68.800781 24.714844 107.289062 24.714844h239.726562c15.039063 0 27.273438-12.234375 27.273438-27.273438v-272.902343c0-15.035157-12.234375-27.269531-27.273438-27.269531zm0 0" fill="#3d4ec6"/><path d="m74.730469 421.109375 46.3125 32.484375v-263.769531c0-15.035157 12.234375-27.269531 27.273437-27.269531h-71.070312c-15.039063 0-27.273438 12.234374-27.273438 27.269531v203.457031c7.539063 9.902344 15.828125 19.191406 24.757813 27.828125zm0 0" fill="#2b3894"/><path d="m427.988281 101.34375c-2.925781-2.933594-7.675781-2.929688-10.605469 0l-5.933593 5.929688v-27.195313c0-21.488281-17.480469-38.96875-38.964844-38.96875h-27.035156l5.933593-5.929687c2.929688-2.929688 2.929688-7.679688 0-10.609376-2.929687-2.925781-7.679687-2.925781-10.605468 0l-18.738282 18.738282c-2.925781 2.925781-2.929687 7.679687 0 10.605468l18.738282 18.738282c2.925781 2.925781 7.675781 2.925781 10.605468 0 2.929688-2.929688 2.929688-7.679688 0-10.605469l-5.933593-5.933594h27.035156c13.214844 0 23.964844 10.75 23.964844 23.964844v27.199219l-5.933594-5.933594c-2.925781-2.929688-7.675781-2.929688-10.605469 0-2.929687 2.929688-2.929687 7.679688 0 10.605469l18.738282 18.738281c2.925781 2.925781 7.675781 2.925781 10.605468 0l18.738282-18.738281c2.925781-2.929688 2.925781-7.679688-.003907-10.605469zm0 0" fill="#d5f1fe"/><path d="m74.609375 421.023438c18.5 17.914062 39.808594 32.9375 63.210937 44.339843h346.90625c1.429688 0 2.636719-1.207031 2.636719-2.636719v-249.96875h-412.753906zm0 0" fill="#fecd0a"/><path d="m74.609375 421.023438c13.976563 13.535156 29.558594 25.414062 46.433594 35.332031v-243.597657h-46.433594zm0 0" fill="#fca60d"/><path d="m357.953125 271.769531h-153.933594c-7.613281 0-13.785156-6.171875-13.785156-13.785156 0-7.609375 6.171875-13.78125 13.785156-13.78125h153.933594c7.613281 0 13.785156 6.171875 13.785156 13.78125 0 7.613281-6.171875 13.785156-13.785156 13.785156zm0 0" fill="#fca60d"/><path d="m251.734375 257.988281c0-7.613281 6.171875-13.785156 13.785156-13.785156h-61.5c-7.613281 0-13.785156 6.171875-13.785156 13.785156 0 7.609375 6.171875 13.78125 13.785156 13.78125h61.5c-7.613281 0-13.785156-6.171875-13.785156-13.78125zm0 0" fill="#f98a10"/><g fill="#fce395"><path d="m263.054688 309.855469h-134.511719c-4.140625 0-7.5-3.359375-7.5-7.5 0-4.144531 3.359375-7.5 7.5-7.5h134.511719c4.140624 0 7.5 3.355469 7.5 7.5 0 4.140625-3.359376 7.5-7.5 7.5zm0 0"/><path d="m263.054688 341.328125h-134.511719c-4.140625 0-7.5-3.359375-7.5-7.5 0-4.144531 3.359375-7.5 7.5-7.5h134.511719c4.140624 0 7.5 3.355469 7.5 7.5 0 4.140625-3.359376 7.5-7.5 7.5zm0 0"/><path d="m263.054688 372.800781h-134.511719c-4.140625 0-7.5-3.359375-7.5-7.5 0-4.144531 3.359375-7.5 7.5-7.5h134.511719c4.140624 0 7.5 3.355469 7.5 7.5 0 4.140625-3.359376 7.5-7.5 7.5zm0 0"/><path d="m263.054688 404.269531h-134.511719c-4.140625 0-7.5-3.355469-7.5-7.5 0-4.140625 3.359375-7.5 7.5-7.5h134.511719c4.140624 0 7.5 3.359375 7.5 7.5 0 4.144531-3.359376 7.5-7.5 7.5zm0 0"/><path d="m263.054688 435.742188h-134.511719c-4.140625 0-7.5-3.355469-7.5-7.5 0-4.140626 3.359375-7.5 7.5-7.5h134.511719c4.140624 0 7.5 3.359374 7.5 7.5 0 4.144531-3.359376 7.5-7.5 7.5zm0 0"/><path d="m433.429688 309.855469h-134.511719c-4.140625 0-7.5-3.359375-7.5-7.5 0-4.144531 3.359375-7.5 7.5-7.5h134.511719c4.140624 0 7.5 3.355469 7.5 7.5 0 4.140625-3.359376 7.5-7.5 7.5zm0 0"/><path d="m433.429688 341.328125h-134.511719c-4.140625 0-7.5-3.359375-7.5-7.5 0-4.144531 3.359375-7.5 7.5-7.5h134.511719c4.140624 0 7.5 3.355469 7.5 7.5 0 4.140625-3.359376 7.5-7.5 7.5zm0 0"/><path d="m433.429688 372.800781h-134.511719c-4.140625 0-7.5-3.359375-7.5-7.5 0-4.144531 3.359375-7.5 7.5-7.5h134.511719c4.140624 0 7.5 3.355469 7.5 7.5 0 4.140625-3.359376 7.5-7.5 7.5zm0 0"/><path d="m433.429688 404.269531h-134.511719c-4.140625 0-7.5-3.355469-7.5-7.5 0-4.140625 3.359375-7.5 7.5-7.5h134.511719c4.140624 0 7.5 3.359375 7.5 7.5 0 4.144531-3.359376 7.5-7.5 7.5zm0 0"/><path d="m433.429688 435.742188h-134.511719c-4.140625 0-7.5-3.355469-7.5-7.5 0-4.140626 3.359375-7.5 7.5-7.5h134.511719c4.140624 0 7.5 3.359374 7.5 7.5 0 4.144531-3.359376 7.5-7.5 7.5zm0 0"/></g><path d="m460.667969 333.828125v26.269531c0 2.871094 2.328125 5.203125 5.203125 5.203125h21.492187v-31.472656zm0 0" fill="#f98a10"/><path d="m460.667969 333.828125v-26.269531c0-2.875 2.328125-5.203125 5.203125-5.203125h21.492187v31.472656zm0 0" fill="#fca60d"/><path d="m484.726562 187.191406h-407.480468c-1.429688 0-2.636719 1.207032-2.636719 2.632813v24.933593h412.753906v-24.933593c0-1.425781-1.207031-2.632813-2.636719-2.632813zm0 0" fill="#d5f1fe"/><path d="m74.609375 189.824219v24.933593h90.988281c0-15.226562-12.34375-27.566406-27.566406-27.566406h-60.785156c-1.429688 0-2.636719 1.207032-2.636719 2.632813zm0 0" fill="#11dfef"/><path d="m74.609375 189.824219v24.933593h46.433594v-24.933593c0-.886719.046875-1.765625.132812-2.632813h-43.929687c-1.429688 0-2.636719 1.207032-2.636719 2.632813zm0 0" fill="#0ac6e5"/><path d="m380.453125 57.480469c-.6875-1.257813-1.078125-2.699219-1.078125-4.230469 0-4.867188 3.945312-8.8125 8.8125-8.8125h.027344c-4.816406-2.132812-10.136719-3.328125-15.730469-3.328125h-27.035156l5.933593-5.933594c2.929688-2.929687 2.929688-7.675781 0-10.605469-2.929687-2.929687-7.679687-2.929687-10.605468 0l-18.738282 18.738282c-2.925781 2.925781-2.929687 7.675781 0 10.605468l18.738282 18.734376c2.925781 2.929687 7.675781 2.929687 10.605468 0 2.929688-2.925782 2.929688-7.675782 0-10.605469l-5.933593-5.933594h27.035156c2.792969 0 5.476563.488281 7.96875 1.371094zm0 0" fill="#11dfef"/></svg>